  999
file created by gear template generator
  0
SECTION
  2
HEADER
  9
$ACADVER
  1
AC1006
  9
$INSBASE
  10
0.0
  20
0.0
  30
0.0
  9
$EXTMIN
  10
0.0
  20
0.0
  9
$EXTMAX
  10
10000.0
  20
10000.0
  0
ENDSEC
  0
SECTION
  2
ENTITIES
  0
LINE
  8
0
  10
5.13891
  20
2.49857
  30
0
  11
5.13891
  21
2.49857
  31
0
  0
LINE
  8
0
  10
5.13891
  20
2.49857
  30
0
  11
5.14552
  21
2.47152
  31
0
  0
LINE
  8
0
  10
5.14552
  20
2.47152
  30
0
  11
5.15398
  21
2.4604
  31
0
  0
LINE
  8
0
  10
5.15398
  20
2.4604
  30
0
  11
5.1628
  21
2.45211
  31
0
  0
LINE
  8
0
  10
5.1628
  20
2.45211
  30
0
  11
5.18024
  21
2.43469
  31
0
  0
LINE
  8
0
  10
5.18024
  20
2.43469
  30
0
  11
5.19937
  21
2.4296
  31
0
  0
LINE
  8
0
  10
5.19937
  20
2.4296
  30
0
  11
5.21835
  21
2.42339
  31
0
  0
LINE
  8
0
  10
5.21835
  20
2.42339
  30
0
  11
5.25592
  21
2.40856
  31
0
  0
LINE
  8
0
  10
5.25592
  20
2.40856
  30
0
  11
5.29307
  21
2.39112
  31
0
  0
LINE
  8
0
  10
5.29307
  20
2.39112
  30
0
  11
5.32981
  21
2.37144
  31
0
  0
LINE
  8
0
  10
5.32981
  20
2.37144
  30
0
  11
5.36615
  21
2.34976
  31
0
  0
LINE
  8
0
  10
5.36615
  20
2.34976
  30
0
  11
5.40208
  21
2.32622
  31
0
  0
LINE
  8
0
  10
5.40208
  20
2.32622
  30
0
  11
5.43759
  21
2.30092
  31
0
  0
LINE
  8
0
  10
5.43759
  20
2.30092
  30
0
  11
5.47265
  21
2.27396
  31
0
  0
LINE
  8
0
  10
5.47265
  20
2.27396
  30
0
  11
5.49865
  21
2.25269
  31
0
  0
LINE
  8
0
  10
5.49865
  20
2.25269
  30
0
  11
5.47325
  21
2.13404
  31
0
  0
LINE
  8
0
  10
5.47325
  20
2.13404
  30
0
  11
5.44082
  21
2.12528
  31
0
  0
LINE
  8
0
  10
5.44082
  20
2.12528
  30
0
  11
5.39778
  21
2.11504
  31
0
  0
LINE
  8
0
  10
5.39778
  20
2.11504
  30
0
  11
5.35503
  21
2.10651
  31
0
  0
LINE
  8
0
  10
5.35503
  20
2.10651
  30
0
  11
5.31261
  21
2.09975
  31
0
  0
LINE
  8
0
  10
5.31261
  20
2.09975
  30
0
  11
5.27058
  21
2.09484
  31
0
  0
LINE
  8
0
  10
5.27058
  20
2.09484
  30
0
  11
5.22901
  21
2.09194
  31
0
  0
LINE
  8
0
  10
5.22901
  20
2.09194
  30
0
  11
5.18797
  21
2.09123
  31
0
  0
LINE
  8
0
  10
5.18797
  20
2.09123
  30
0
  11
5.14762
  21
2.09308
  31
0
  0
LINE
  8
0
  10
5.14762
  20
2.09308
  30
0
  11
5.12777
  21
2.09519
  31
0
  0
LINE
  8
0
  10
5.12777
  20
2.09519
  30
0
  11
5.10823
  21
2.09838
  31
0
  0
LINE
  8
0
  10
5.10823
  20
2.09838
  30
0
  11
5.08518
  21
2.08963
  31
0
  0
LINE
  8
0
  10
5.08518
  20
2.08963
  30
0
  11
5.07375
  21
2.08568
  31
0
  0
LINE
  8
0
  10
5.07375
  20
2.08568
  30
0
  11
5.06147
  21
2.079
  31
0
  0
LINE
  8
0
  10
5.06147
  20
2.079
  30
0
  11
5.04437
  21
2.05702
  31
0
  0
LINE
  8
0
  10
5.04437
  20
2.05702
  30
0
  11
5.01832
  21
1.97924
  31
0
  0
LINE
  8
0
  10
5.01832
  20
1.97924
  30
0
  11
5.01874
  21
1.95141
  31
0
  0
LINE
  8
0
  10
5.01874
  20
1.95141
  30
0
  11
5.02452
  21
1.93867
  31
0
  0
LINE
  8
0
  10
5.02452
  20
1.93867
  30
0
  11
5.03127
  21
1.92863
  31
0
  0
LINE
  8
0
  10
5.03127
  20
1.92863
  30
0
  11
5.0444
  21
1.90777
  31
0
  0
LINE
  8
0
  10
5.0444
  20
1.90777
  30
0
  11
5.06192
  21
1.89855
  31
0
  0
LINE
  8
0
  10
5.06192
  20
1.89855
  30
0
  11
5.07904
  21
1.88828
  31
0
  0
LINE
  8
0
  10
5.07904
  20
1.88828
  30
0
  11
5.11237
  21
1.86546
  31
0
  0
LINE
  8
0
  10
5.11237
  20
1.86546
  30
0
  11
5.1447
  21
1.84018
  31
0
  0
LINE
  8
0
  10
5.1447
  20
1.84018
  30
0
  11
5.17614
  21
1.81282
  31
0
  0
LINE
  8
0
  10
5.17614
  20
1.81282
  30
0
  11
5.20675
  21
1.7836
  31
0
  0
LINE
  8
0
  10
5.20675
  20
1.7836
  30
0
  11
5.23654
  21
1.75265
  31
0
  0
LINE
  8
0
  10
5.23654
  20
1.75265
  30
0
  11
5.26553
  21
1.72009
  31
0
  0
LINE
  8
0
  10
5.26553
  20
1.72009
  30
0
  11
5.29372
  21
1.68601
  31
0
  0
LINE
  8
0
  10
5.29372
  20
1.68601
  30
0
  11
5.31433
  21
1.65948
  31
0
  0
LINE
  8
0
  10
5.31433
  20
1.65948
  30
0
  11
5.26316
  21
1.54946
  31
0
  0
LINE
  8
0
  10
5.26316
  20
1.54946
  30
0
  11
5.22959
  21
1.54813
  31
0
  0
LINE
  8
0
  10
5.22959
  20
1.54813
  30
0
  11
5.18536
  21
1.54773
  31
0
  0
LINE
  8
0
  10
5.18536
  20
1.54773
  30
0
  11
5.14178
  21
1.54892
  31
0
  0
LINE
  8
0
  10
5.14178
  20
1.54892
  30
0
  11
5.09892
  21
1.55177
  31
0
  0
LINE
  8
0
  10
5.09892
  20
1.55177
  30
0
  11
5.05685
  21
1.55634
  31
0
  0
LINE
  8
0
  10
5.05685
  20
1.55634
  30
0
  11
5.01567
  21
1.56276
  31
0
  0
LINE
  8
0
  10
5.01567
  20
1.56276
  30
0
  11
4.97551
  21
1.5712
  31
0
  0
LINE
  8
0
  10
4.97551
  20
1.5712
  30
0
  11
4.93658
  21
1.58199
  31
0
  0
LINE
  8
0
  10
4.93658
  20
1.58199
  30
0
  11
4.9177
  21
1.58846
  31
0
  0
LINE
  8
0
  10
4.9177
  20
1.58846
  30
0
  11
4.89936
  21
1.59592
  31
0
  0
LINE
  8
0
  10
4.89936
  20
1.59592
  30
0
  11
4.87494
  21
1.59252
  31
0
  0
LINE
  8
0
  10
4.87494
  20
1.59252
  30
0
  11
4.86292
  21
1.5912
  31
0
  0
LINE
  8
0
  10
4.86292
  20
1.5912
  30
0
  11
4.84945
  21
1.58742
  31
0
  0
LINE
  8
0
  10
4.84945
  20
1.58742
  30
0
  11
4.8279
  21
1.56981
  31
0
  0
LINE
  8
0
  10
4.8279
  20
1.56981
  30
0
  11
4.78519
  21
1.49977
  31
0
  0
LINE
  8
0
  10
4.78519
  20
1.49977
  30
0
  11
4.77941
  21
1.47254
  31
0
  0
LINE
  8
0
  10
4.77941
  20
1.47254
  30
0
  11
4.78221
  21
1.45884
  31
0
  0
LINE
  8
0
  10
4.78221
  20
1.45884
  30
0
  11
4.78655
  21
1.44755
  31
0
  0
LINE
  8
0
  10
4.78655
  20
1.44755
  30
0
  11
4.79471
  21
1.42428
  31
0
  0
LINE
  8
0
  10
4.79471
  20
1.42428
  30
0
  11
4.80974
  21
1.4114
  31
0
  0
LINE
  8
0
  10
4.80974
  20
1.4114
  30
0
  11
4.82414
  21
1.39758
  31
0
  0
LINE
  8
0
  10
4.82414
  20
1.39758
  30
0
  11
4.85156
  21
1.36791
  31
0
  0
LINE
  8
0
  10
4.85156
  20
1.36791
  30
0
  11
4.87746
  21
1.33607
  31
0
  0
LINE
  8
0
  10
4.87746
  20
1.33607
  30
0
  11
4.90202
  21
1.30241
  31
0
  0
LINE
  8
0
  10
4.90202
  20
1.30241
  30
0
  11
4.92536
  21
1.2671
  31
0
  0
LINE
  8
0
  10
4.92536
  20
1.2671
  30
0
  11
4.94752
  21
1.2303
  31
0
  0
LINE
  8
0
  10
4.94752
  20
1.2303
  30
0
  11
4.96853
  21
1.19211
  31
0
  0
LINE
  8
0
  10
4.96853
  20
1.19211
  30
0
  11
4.98843
  21
1.1526
  31
0
  0
LINE
  8
0
  10
4.98843
  20
1.1526
  30
0
  11
5.00263
  21
1.12216
  31
0
  0
LINE
  8
0
  10
5.00263
  20
1.12216
  30
0
  11
4.92826
  21
1.02628
  31
0
  0
LINE
  8
0
  10
4.92826
  20
1.02628
  30
0
  11
4.89524
  21
1.03246
  31
0
  0
LINE
  8
0
  10
4.89524
  20
1.03246
  30
0
  11
4.85202
  21
1.04191
  31
0
  0
LINE
  8
0
  10
4.85202
  20
1.04191
  30
0
  11
4.8098
  21
1.05277
  31
0
  0
LINE
  8
0
  10
4.8098
  20
1.05277
  30
0
  11
4.76865
  21
1.06508
  31
0
  0
LINE
  8
0
  10
4.76865
  20
1.06508
  30
0
  11
4.72865
  21
1.0789
  31
0
  0
LINE
  8
0
  10
4.72865
  20
1.0789
  30
0
  11
4.68993
  21
1.09432
  31
0
  0
LINE
  8
0
  10
4.68993
  20
1.09432
  30
0
  11
4.65266
  21
1.11148
  31
0
  0
LINE
  8
0
  10
4.65266
  20
1.11148
  30
0
  11
4.6171
  21
1.13066
  31
0
  0
LINE
  8
0
  10
4.6171
  20
1.13066
  30
0
  11
4.60014
  21
1.14117
  31
0
  0
LINE
  8
0
  10
4.60014
  20
1.14117
  30
0
  11
4.58391
  21
1.15253
  31
0
  0
LINE
  8
0
  10
4.58391
  20
1.15253
  30
0
  11
4.55935
  21
1.15465
  31
0
  0
LINE
  8
0
  10
4.55935
  20
1.15465
  30
0
  11
4.54734
  21
1.15604
  31
0
  0
LINE
  8
0
  10
4.54734
  20
1.15604
  30
0
  11
4.53337
  21
1.15535
  31
0
  0
LINE
  8
0
  10
4.53337
  20
1.15535
  30
0
  11
4.50843
  21
1.14297
  31
0
  0
LINE
  8
0
  10
4.50843
  20
1.14297
  30
0
  11
4.45122
  21
1.0842
  31
0
  0
LINE
  8
0
  10
4.45122
  20
1.0842
  30
0
  11
4.43952
  21
1.05893
  31
0
  0
LINE
  8
0
  10
4.43952
  20
1.05893
  30
0
  11
4.4392
  21
1.04496
  31
0
  0
LINE
  8
0
  10
4.4392
  20
1.04496
  30
0
  11
4.44092
  21
1.03298
  31
0
  0
LINE
  8
0
  10
4.44092
  20
1.03298
  30
0
  11
4.4437
  21
1.00849
  31
0
  0
LINE
  8
0
  10
4.4437
  20
1.00849
  30
0
  11
4.45549
  21
0.99258
  31
0
  0
LINE
  8
0
  10
4.45549
  20
0.99258
  30
0
  11
4.46645
  21
0.9759
  31
0
  0
LINE
  8
0
  10
4.46645
  20
0.9759
  30
0
  11
4.48658
  21
0.94087
  31
0
  0
LINE
  8
0
  10
4.48658
  20
0.94087
  30
0
  11
4.50474
  21
0.90407
  31
0
  0
LINE
  8
0
  10
4.50474
  20
0.90407
  30
0
  11
4.5212
  21
0.86578
  31
0
  0
LINE
  8
0
  10
4.5212
  20
0.86578
  30
0
  11
4.53609
  21
0.82617
  31
0
  0
LINE
  8
0
  10
4.53609
  20
0.82617
  30
0
  11
4.54951
  21
0.78536
  31
0
  0
LINE
  8
0
  10
4.54951
  20
0.78536
  30
0
  11
4.5615
  21
0.74345
  31
0
  0
LINE
  8
0
  10
4.5615
  20
0.74345
  30
0
  11
4.57211
  21
0.70051
  31
0
  0
LINE
  8
0
  10
4.57211
  20
0.70051
  30
0
  11
4.57917
  21
0.66767
  31
0
  0
LINE
  8
0
  10
4.57917
  20
0.66767
  30
0
  11
4.48533
  21
0.59074
  31
0
  0
LINE
  8
0
  10
4.48533
  20
0.59074
  30
0
  11
4.45451
  21
0.60411
  31
0
  0
LINE
  8
0
  10
4.45451
  20
0.60411
  30
0
  11
4.41449
  21
0.62294
  31
0
  0
LINE
  8
0
  10
4.41449
  20
0.62294
  30
0
  11
4.37574
  21
0.64292
  31
0
  0
LINE
  8
0
  10
4.37574
  20
0.64292
  30
0
  11
4.33836
  21
0.66408
  31
0
  0
LINE
  8
0
  10
4.33836
  20
0.66408
  30
0
  11
4.30244
  21
0.68646
  31
0
  0
LINE
  8
0
  10
4.30244
  20
0.68646
  30
0
  11
4.26812
  21
0.71011
  31
0
  0
LINE
  8
0
  10
4.26812
  20
0.71011
  30
0
  11
4.2356
  21
0.73514
  31
0
  0
LINE
  8
0
  10
4.2356
  20
0.73514
  30
0
  11
4.20521
  21
0.76175
  31
0
  0
LINE
  8
0
  10
4.20521
  20
0.76175
  30
0
  11
4.191
  21
0.77577
  31
0
  0
LINE
  8
0
  10
4.191
  20
0.77577
  30
0
  11
4.17772
  21
0.79045
  31
0
  0
LINE
  8
0
  10
4.17772
  20
0.79045
  30
0
  11
4.15424
  21
0.79798
  31
0
  0
LINE
  8
0
  10
4.15424
  20
0.79798
  30
0
  11
4.14284
  21
0.80201
  31
0
  0
LINE
  8
0
  10
4.14284
  20
0.80201
  30
0
  11
4.12907
  21
0.80445
  31
0
  0
LINE
  8
0
  10
4.12907
  20
0.80445
  30
0
  11
4.102
  21
0.79793
  31
0
  0
LINE
  8
0
  10
4.102
  20
0.79793
  30
0
  11
4.03314
  21
0.75336
  31
0
  0
LINE
  8
0
  10
4.03314
  20
0.75336
  30
0
  11
4.01611
  21
0.73133
  31
0
  0
LINE
  8
0
  10
4.01611
  20
0.73133
  30
0
  11
4.01269
  21
0.71777
  31
0
  0
LINE
  8
0
  10
4.01269
  20
0.71777
  30
0
  11
4.01171
  21
0.70572
  31
0
  0
LINE
  8
0
  10
4.01171
  20
0.70572
  30
0
  11
4.00896
  21
0.68122
  31
0
  0
LINE
  8
0
  10
4.00896
  20
0.68122
  30
0
  11
4.01692
  21
0.66309
  31
0
  0
LINE
  8
0
  10
4.01692
  20
0.66309
  30
0
  11
4.02389
  21
0.64438
  31
0
  0
LINE
  8
0
  10
4.02389
  20
0.64438
  30
0
  11
4.03572
  21
0.60576
  31
0
  0
LINE
  8
0
  10
4.03572
  20
0.60576
  30
0
  11
4.04524
  21
0.56584
  31
0
  0
LINE
  8
0
  10
4.04524
  20
0.56584
  30
0
  11
4.05277
  21
0.52485
  31
0
  0
LINE
  8
0
  10
4.05277
  20
0.52485
  30
0
  11
4.05847
  21
0.48292
  31
0
  0
LINE
  8
0
  10
4.05847
  20
0.48292
  30
0
  11
4.06247
  21
0.44015
  31
0
  0
LINE
  8
0
  10
4.06247
  20
0.44015
  30
0
  11
4.06484
  21
0.39662
  31
0
  0
LINE
  8
0
  10
4.06484
  20
0.39662
  30
0
  11
4.06562
  21
0.35239
  31
0
  0
LINE
  8
0
  10
4.06562
  20
0.35239
  30
0
  11
4.0652
  21
0.3188
  31
0
  0
LINE
  8
0
  10
4.0652
  20
0.3188
  30
0
  11
3.9566
  21
0.26468
  31
0
  0
LINE
  8
0
  10
3.9566
  20
0.26468
  30
0
  11
3.92953
  21
0.28458
  31
0
  0
LINE
  8
0
  10
3.92953
  20
0.28458
  30
0
  11
3.89469
  21
0.31184
  31
0
  0
LINE
  8
0
  10
3.89469
  20
0.31184
  30
0
  11
3.86137
  21
0.33994
  31
0
  0
LINE
  8
0
  10
3.86137
  20
0.33994
  30
0
  11
3.82963
  21
0.36889
  31
0
  0
LINE
  8
0
  10
3.82963
  20
0.36889
  30
0
  11
3.79959
  21
0.39869
  31
0
  0
LINE
  8
0
  10
3.79959
  20
0.39869
  30
0
  11
3.7714
  21
0.42939
  31
0
  0
LINE
  8
0
  10
3.7714
  20
0.42939
  30
0
  11
3.74526
  21
0.46103
  31
0
  0
LINE
  8
0
  10
3.74526
  20
0.46103
  30
0
  11
3.72155
  21
0.49373
  31
0
  0
LINE
  8
0
  10
3.72155
  20
0.49373
  30
0
  11
3.71082
  21
0.51057
  31
0
  0
LINE
  8
0
  10
3.71082
  20
0.51057
  30
0
  11
3.70113
  21
0.52784
  31
0
  0
LINE
  8
0
  10
3.70113
  20
0.52784
  30
0
  11
3.67992
  21
0.5404
  31
0
  0
LINE
  8
0
  10
3.67992
  20
0.5404
  30
0
  11
3.6697
  21
0.54687
  31
0
  0
LINE
  8
0
  10
3.6697
  20
0.54687
  30
0
  11
3.65682
  21
0.55231
  31
0
  0
LINE
  8
0
  10
3.65682
  20
0.55231
  30
0
  11
3.62898
  21
0.55198
  31
0
  0
LINE
  8
0
  10
3.62898
  20
0.55198
  30
0
  11
3.55193
  21
0.52384
  31
0
  0
LINE
  8
0
  10
3.55193
  20
0.52384
  30
0
  11
3.53042
  21
0.50616
  31
0
  0
LINE
  8
0
  10
3.53042
  20
0.50616
  30
0
  11
3.52408
  21
0.4937
  31
0
  0
LINE
  8
0
  10
3.52408
  20
0.4937
  30
0
  11
3.52043
  21
0.48217
  31
0
  0
LINE
  8
0
  10
3.52043
  20
0.48217
  30
0
  11
3.5123
  21
0.45889
  31
0
  0
LINE
  8
0
  10
3.5123
  20
0.45889
  30
0
  11
3.51602
  21
0.43945
  31
0
  0
LINE
  8
0
  10
3.51602
  20
0.43945
  30
0
  11
3.51866
  21
0.41966
  31
0
  0
LINE
  8
0
  10
3.51866
  20
0.41966
  30
0
  11
3.5216
  21
0.37937
  31
0
  0
LINE
  8
0
  10
3.5216
  20
0.37937
  30
0
  11
3.522
  21
0.33833
  31
0
  0
LINE
  8
0
  10
3.522
  20
0.33833
  30
0
  11
3.52021
  21
0.2967
  31
0
  0
LINE
  8
0
  10
3.52021
  20
0.2967
  30
0
  11
3.51645
  21
0.25455
  31
0
  0
LINE
  8
0
  10
3.51645
  20
0.25455
  30
0
  11
3.51083
  21
0.21196
  31
0
  0
LINE
  8
0
  10
3.51083
  20
0.21196
  30
0
  11
3.50345
  21
0.169
  31
0
  0
LINE
  8
0
  10
3.50345
  20
0.169
  30
0
  11
3.49437
  21
0.1257
  31
0
  0
LINE
  8
0
  10
3.49437
  20
0.1257
  30
0
  11
3.48649
  21
0.09305
  31
0
  0
LINE
  8
0
  10
3.48649
  20
0.09305
  30
0
  11
3.36856
  21
0.06446
  31
0
  0
LINE
  8
0
  10
3.36856
  20
0.06446
  30
0
  11
3.3466
  21
0.08987
  31
0
  0
LINE
  8
0
  10
3.3466
  20
0.08987
  30
0
  11
3.31871
  21
0.1242
  31
0
  0
LINE
  8
0
  10
3.31871
  20
0.1242
  30
0
  11
3.29247
  21
0.15902
  31
0
  0
LINE
  8
0
  10
3.29247
  20
0.15902
  30
0
  11
3.26797
  21
0.1943
  31
0
  0
LINE
  8
0
  10
3.26797
  20
0.1943
  30
0
  11
3.24531
  21
0.23004
  31
0
  0
LINE
  8
0
  10
3.24531
  20
0.23004
  30
0
  11
3.22465
  21
0.26624
  31
0
  0
LINE
  8
0
  10
3.22465
  20
0.26624
  30
0
  11
3.20622
  21
0.3029
  31
0
  0
LINE
  8
0
  10
3.20622
  20
0.3029
  30
0
  11
3.19038
  21
0.34007
  31
0
  0
LINE
  8
0
  10
3.19038
  20
0.34007
  30
0
  11
3.18366
  21
0.35887
  31
0
  0
LINE
  8
0
  10
3.18366
  20
0.35887
  30
0
  11
3.17806
  21
0.37786
  31
0
  0
LINE
  8
0
  10
3.17806
  20
0.37786
  30
0
  11
3.16018
  21
0.39482
  31
0
  0
LINE
  8
0
  10
3.16018
  20
0.39482
  30
0
  11
3.15165
  21
0.40341
  31
0
  0
LINE
  8
0
  10
3.15165
  20
0.40341
  30
0
  11
3.1403
  21
0.41158
  31
0
  0
LINE
  8
0
  10
3.1403
  20
0.41158
  30
0
  11
3.11309
  21
0.41745
  31
0
  0
LINE
  8
0
  10
3.11309
  20
0.41745
  30
0
  11
3.03171
  21
0.40717
  31
0
  0
LINE
  8
0
  10
3.03171
  20
0.40717
  30
0
  11
3.00681
  21
0.39471
  31
0
  0
LINE
  8
0
  10
3.00681
  20
0.39471
  30
0
  11
2.99785
  21
0.38398
  31
0
  0
LINE
  8
0
  10
2.99785
  20
0.38398
  30
0
  11
2.99173
  21
0.37354
  31
0
  0
LINE
  8
0
  10
2.99173
  20
0.37354
  30
0
  11
2.97862
  21
0.35266
  31
0
  0
LINE
  8
0
  10
2.97862
  20
0.35266
  30
0
  11
2.97792
  21
0.33287
  31
0
  0
LINE
  8
0
  10
2.97792
  20
0.33287
  30
0
  11
2.97609
  21
0.313
  31
0
  0
LINE
  8
0
  10
2.97609
  20
0.313
  30
0
  11
2.97
  21
0.27306
  31
0
  0
LINE
  8
0
  10
2.97
  20
0.27306
  30
0
  11
2.96125
  21
0.23297
  31
0
  0
LINE
  8
0
  10
2.96125
  20
0.23297
  30
0
  11
2.95025
  21
0.19277
  31
0
  0
LINE
  8
0
  10
2.95025
  20
0.19277
  30
0
  11
2.93719
  21
0.15252
  31
0
  0
LINE
  8
0
  10
2.93719
  20
0.15252
  30
0
  11
2.92224
  21
0.11225
  31
0
  0
LINE
  8
0
  10
2.92224
  20
0.11225
  30
0
  11
2.90548
  21
0.072
  31
0
  0
LINE
  8
0
  10
2.90548
  20
0.072
  30
0
  11
2.887
  21
0.03181
  31
0
  0
LINE
  8
0
  10
2.887
  20
0.03181
  30
0
  11
2.87205
  21
0.00173
  31
0
  0
LINE
  8
0
  10
2.87205
  20
0.00173
  30
0
  11
2.75072
  21
0.0001
  31
0
  0
LINE
  8
0
  10
2.75072
  20
0.0001
  30
0
  11
2.73496
  21
0.02977
  31
0
  0
LINE
  8
0
  10
2.73496
  20
0.02977
  30
0
  11
2.7154
  21
0.06944
  31
0
  0
LINE
  8
0
  10
2.7154
  20
0.06944
  30
0
  11
2.69757
  21
0.10922
  31
0
  0
LINE
  8
0
  10
2.69757
  20
0.10922
  30
0
  11
2.68154
  21
0.14907
  31
0
  0
LINE
  8
0
  10
2.68154
  20
0.14907
  30
0
  11
2.6674
  21
0.18896
  31
0
  0
LINE
  8
0
  10
2.6674
  20
0.18896
  30
0
  11
2.65532
  21
0.22885
  31
0
  0
LINE
  8
0
  10
2.65532
  20
0.22885
  30
0
  11
2.6455
  21
0.26869
  31
0
  0
LINE
  8
0
  10
2.6455
  20
0.26869
  30
0
  11
2.63833
  21
0.30845
  31
0
  0
LINE
  8
0
  10
2.63833
  20
0.30845
  30
0
  11
2.63596
  21
0.32827
  31
0
  0
LINE
  8
0
  10
2.63596
  20
0.32827
  30
0
  11
2.63473
  21
0.34803
  31
0
  0
LINE
  8
0
  10
2.63473
  20
0.34803
  30
0
  11
2.62107
  21
0.36855
  31
0
  0
LINE
  8
0
  10
2.62107
  20
0.36855
  30
0
  11
2.61467
  21
0.37882
  31
0
  0
LINE
  8
0
  10
2.61467
  20
0.37882
  30
0
  11
2.60542
  21
0.38931
  31
0
  0
LINE
  8
0
  10
2.60542
  20
0.38931
  30
0
  11
2.5802
  21
0.40109
  31
0
  0
LINE
  8
0
  10
2.5802
  20
0.40109
  30
0
  11
2.49857
  21
0.40917
  31
0
  0
LINE
  8
0
  10
2.49857
  20
0.40917
  30
0
  11
2.47152
  21
0.40257
  31
0
  0
LINE
  8
0
  10
2.47152
  20
0.40257
  30
0
  11
2.4604
  21
0.3941
  31
0
  0
LINE
  8
0
  10
2.4604
  20
0.3941
  30
0
  11
2.45211
  21
0.38529
  31
0
  0
LINE
  8
0
  10
2.45211
  20
0.38529
  30
0
  11
2.43469
  21
0.36785
  31
0
  0
LINE
  8
0
  10
2.43469
  20
0.36785
  30
0
  11
2.4296
  21
0.34871
  31
0
  0
LINE
  8
0
  10
2.4296
  20
0.34871
  30
0
  11
2.42339
  21
0.32974
  31
0
  0
LINE
  8
0
  10
2.42339
  20
0.32974
  30
0
  11
2.40856
  21
0.29216
  31
0
  0
LINE
  8
0
  10
2.40856
  20
0.29216
  30
0
  11
2.39112
  21
0.25502
  31
0
  0
LINE
  8
0
  10
2.39112
  20
0.25502
  30
0
  11
2.37144
  21
0.21828
  31
0
  0
LINE
  8
0
  10
2.37144
  20
0.21828
  30
0
  11
2.34976
  21
0.18194
  31
0
  0
LINE
  8
0
  10
2.34976
  20
0.18194
  30
0
  11
2.32622
  21
0.14601
  31
0
  0
LINE
  8
0
  10
2.32622
  20
0.14601
  30
0
  11
2.30092
  21
0.1105
  31
0
  0
LINE
  8
0
  10
2.30092
  20
0.1105
  30
0
  11
2.27396
  21
0.07543
  31
0
  0
LINE
  8
0
  10
2.27396
  20
0.07543
  30
0
  11
2.25269
  21
0.04943
  31
0
  0
LINE
  8
0
  10
2.25269
  20
0.04943
  30
0
  11
2.13404
  21
0.07484
  31
0
  0
LINE
  8
0
  10
2.13404
  20
0.07484
  30
0
  11
2.12528
  21
0.10727
  31
0
  0
LINE
  8
0
  10
2.12528
  20
0.10727
  30
0
  11
2.11504
  21
0.1503
  31
0
  0
LINE
  8
0
  10
2.11504
  20
0.1503
  30
0
  11
2.10651
  21
0.19305
  31
0
  0
LINE
  8
0
  10
2.10651
  20
0.19305
  30
0
  11
2.09975
  21
0.23547
  31
0
  0
LINE
  8
0
  10
2.09975
  20
0.23547
  30
0
  11
2.09484
  21
0.2775
  31
0
  0
LINE
  8
0
  10
2.09484
  20
0.2775
  30
0
  11
2.09194
  21
0.31908
  31
0
  0
LINE
  8
0
  10
2.09194
  20
0.31908
  30
0
  11
2.09123
  21
0.36011
  31
0
  0
LINE
  8
0
  10
2.09123
  20
0.36011
  30
0
  11
2.09308
  21
0.40047
  31
0
  0
LINE
  8
0
  10
2.09308
  20
0.40047
  30
0
  11
2.09519
  21
0.42032
  31
0
  0
LINE
  8
0
  10
2.09519
  20
0.42032
  30
0
  11
2.09838
  21
0.43986
  31
0
  0
LINE
  8
0
  10
2.09838
  20
0.43986
  30
0
  11
2.08963
  21
0.4629
  31
0
  0
LINE
  8
0
  10
2.08963
  20
0.4629
  30
0
  11
2.08568
  21
0.47434
  31
0
  0
LINE
  8
0
  10
2.08568
  20
0.47434
  30
0
  11
2.079
  21
0.48662
  31
0
  0
LINE
  8
0
  10
2.079
  20
0.48662
  30
0
  11
2.05702
  21
0.50372
  31
0
  0
LINE
  8
0
  10
2.05702
  20
0.50372
  30
0
  11
1.97924
  21
0.52976
  31
0
  0
LINE
  8
0
  10
1.97924
  20
0.52976
  30
0
  11
1.95141
  21
0.52935
  31
0
  0
LINE
  8
0
  10
1.95141
  20
0.52935
  30
0
  11
1.93867
  21
0.52356
  31
0
  0
LINE
  8
0
  10
1.93867
  20
0.52356
  30
0
  11
1.92863
  21
0.51682
  31
0
  0
LINE
  8
0
  10
1.92863
  20
0.51682
  30
0
  11
1.90777
  21
0.50369
  31
0
  0
LINE
  8
0
  10
1.90777
  20
0.50369
  30
0
  11
1.89855
  21
0.48617
  31
0
  0
LINE
  8
0
  10
1.89855
  20
0.48617
  30
0
  11
1.88828
  21
0.46905
  31
0
  0
LINE
  8
0
  10
1.88828
  20
0.46905
  30
0
  11
1.86546
  21
0.43572
  31
0
  0
LINE
  8
0
  10
1.86546
  20
0.43572
  30
0
  11
1.84018
  21
0.40338
  31
0
  0
LINE
  8
0
  10
1.84018
  20
0.40338
  30
0
  11
1.81282
  21
0.37194
  31
0
  0
LINE
  8
0
  10
1.81282
  20
0.37194
  30
0
  11
1.7836
  21
0.34134
  31
0
  0
LINE
  8
0
  10
1.7836
  20
0.34134
  30
0
  11
1.75265
  21
0.31155
  31
0
  0
LINE
  8
0
  10
1.75265
  20
0.31155
  30
0
  11
1.72009
  21
0.28256
  31
0
  0
LINE
  8
0
  10
1.72009
  20
0.28256
  30
0
  11
1.68601
  21
0.25437
  31
0
  0
LINE
  8
0
  10
1.68601
  20
0.25437
  30
0
  11
1.65948
  21
0.23375
  31
0
  0
LINE
  8
0
  10
1.65948
  20
0.23375
  30
0
  11
1.54946
  21
0.28493
  31
0
  0
LINE
  8
0
  10
1.54946
  20
0.28493
  30
0
  11
1.54813
  21
0.31849
  31
0
  0
LINE
  8
0
  10
1.54813
  20
0.31849
  30
0
  11
1.54773
  21
0.36272
  31
0
  0
LINE
  8
0
  10
1.54773
  20
0.36272
  30
0
  11
1.54892
  21
0.4063
  31
0
  0
LINE
  8
0
  10
1.54892
  20
0.4063
  30
0
  11
1.55177
  21
0.44916
  31
0
  0
LINE
  8
0
  10
1.55177
  20
0.44916
  30
0
  11
1.55634
  21
0.49123
  31
0
  0
LINE
  8
0
  10
1.55634
  20
0.49123
  30
0
  11
1.56276
  21
0.53241
  31
0
  0
LINE
  8
0
  10
1.56276
  20
0.53241
  30
0
  11
1.5712
  21
0.57257
  31
0
  0
LINE
  8
0
  10
1.5712
  20
0.57257
  30
0
  11
1.58199
  21
0.6115
  31
0
  0
LINE
  8
0
  10
1.58199
  20
0.6115
  30
0
  11
1.58846
  21
0.63039
  31
0
  0
LINE
  8
0
  10
1.58846
  20
0.63039
  30
0
  11
1.59592
  21
0.64873
  31
0
  0
LINE
  8
0
  10
1.59592
  20
0.64873
  30
0
  11
1.59252
  21
0.67314
  31
0
  0
LINE
  8
0
  10
1.59252
  20
0.67314
  30
0
  11
1.5912
  21
0.68517
  31
0
  0
LINE
  8
0
  10
1.5912
  20
0.68517
  30
0
  11
1.58742
  21
0.69863
  31
0
  0
LINE
  8
0
  10
1.58742
  20
0.69863
  30
0
  11
1.56981
  21
0.72019
  31
0
  0
LINE
  8
0
  10
1.56981
  20
0.72019
  30
0
  11
1.49977
  21
0.76289
  31
0
  0
LINE
  8
0
  10
1.49977
  20
0.76289
  30
0
  11
1.47254
  21
0.76868
  31
0
  0
LINE
  8
0
  10
1.47254
  20
0.76868
  30
0
  11
1.45884
  21
0.76587
  31
0
  0
LINE
  8
0
  10
1.45884
  20
0.76587
  30
0
  11
1.44755
  21
0.76153
  31
0
  0
LINE
  8
0
  10
1.44755
  20
0.76153
  30
0
  11
1.42428
  21
0.75338
  31
0
  0
LINE
  8
0
  10
1.42428
  20
0.75338
  30
0
  11
1.4114
  21
0.73834
  31
0
  0
LINE
  8
0
  10
1.4114
  20
0.73834
  30
0
  11
1.39758
  21
0.72394
  31
0
  0
LINE
  8
0
  10
1.39758
  20
0.72394
  30
0
  11
1.36791
  21
0.69652
  31
0
  0
LINE
  8
0
  10
1.36791
  20
0.69652
  30
0
  11
1.33607
  21
0.67063
  31
0
  0
LINE
  8
0
  10
1.33607
  20
0.67063
  30
0
  11
1.30241
  21
0.64606
  31
0
  0
LINE
  8
0
  10
1.30241
  20
0.64606
  30
0
  11
1.2671
  21
0.62273
  31
0
  0
LINE
  8
0
  10
1.2671
  20
0.62273
  30
0
  11
1.2303
  21
0.60057
  31
0
  0
LINE
  8
0
  10
1.2303
  20
0.60057
  30
0
  11
1.19211
  21
0.57955
  31
0
  0
LINE
  8
0
  10
1.19211
  20
0.57955
  30
0
  11
1.1526
  21
0.55965
  31
0
  0
LINE
  8
0
  10
1.1526
  20
0.55965
  30
0
  11
1.12216
  21
0.54546
  31
0
  0
LINE
  8
0
  10
1.12216
  20
0.54546
  30
0
  11
1.02628
  21
0.61983
  31
0
  0
LINE
  8
0
  10
1.02628
  20
0.61983
  30
0
  11
1.03246
  21
0.65285
  31
0
  0
LINE
  8
0
  10
1.03246
  20
0.65285
  30
0
  11
1.04191
  21
0.69606
  31
0
  0
LINE
  8
0
  10
1.04191
  20
0.69606
  30
0
  11
1.05277
  21
0.73828
  31
0
  0
LINE
  8
0
  10
1.05277
  20
0.73828
  30
0
  11
1.06508
  21
0.77944
  31
0
  0
LINE
  8
0
  10
1.06508
  20
0.77944
  30
0
  11
1.0789
  21
0.81943
  31
0
  0
LINE
  8
0
  10
1.0789
  20
0.81943
  30
0
  11
1.09432
  21
0.85815
  31
0
  0
LINE
  8
0
  10
1.09432
  20
0.85815
  30
0
  11
1.11148
  21
0.89543
  31
0
  0
LINE
  8
0
  10
1.11148
  20
0.89543
  30
0
  11
1.13066
  21
0.93098
  31
0
  0
LINE
  8
0
  10
1.13066
  20
0.93098
  30
0
  11
1.14117
  21
0.94795
  31
0
  0
LINE
  8
0
  10
1.14117
  20
0.94795
  30
0
  11
1.15253
  21
0.96417
  31
0
  0
LINE
  8
0
  10
1.15253
  20
0.96417
  30
0
  11
1.15465
  21
0.98873
  31
0
  0
LINE
  8
0
  10
1.15465
  20
0.98873
  30
0
  11
1.15604
  21
1.00075
  31
0
  0
LINE
  8
0
  10
1.15604
  20
1.00075
  30
0
  11
1.15535
  21
1.01471
  31
0
  0
LINE
  8
0
  10
1.15535
  20
1.01471
  30
0
  11
1.14297
  21
1.03965
  31
0
  0
LINE
  8
0
  10
1.14297
  20
1.03965
  30
0
  11
1.0842
  21
1.09687
  31
0
  0
LINE
  8
0
  10
1.0842
  20
1.09687
  30
0
  11
1.05893
  21
1.10857
  31
0
  0
LINE
  8
0
  10
1.05893
  20
1.10857
  30
0
  11
1.04496
  21
1.10888
  31
0
  0
LINE
  8
0
  10
1.04496
  20
1.10888
  30
0
  11
1.03298
  21
1.10716
  31
0
  0
LINE
  8
0
  10
1.03298
  20
1.10716
  30
0
  11
1.00849
  21
1.10439
  31
0
  0
LINE
  8
0
  10
1.00849
  20
1.10439
  30
0
  11
0.99258
  21
1.0926
  31
0
  0
LINE
  8
0
  10
0.99258
  20
1.0926
  30
0
  11
0.9759
  21
1.08163
  31
0
  0
LINE
  8
0
  10
0.9759
  20
1.08163
  30
0
  11
0.94087
  21
1.06151
  31
0
  0
LINE
  8
0
  10
0.94087
  20
1.06151
  30
0
  11
0.90407
  21
1.04334
  31
0
  0
LINE
  8
0
  10
0.90407
  20
1.04334
  30
0
  11
0.86578
  21
1.02688
  31
0
  0
LINE
  8
0
  10
0.86578
  20
1.02688
  30
0
  11
0.82617
  21
1.01199
  31
0
  0
LINE
  8
0
  10
0.82617
  20
1.01199
  30
0
  11
0.78536
  21
0.99858
  31
0
  0
LINE
  8
0
  10
0.78536
  20
0.99858
  30
0
  11
0.74345
  21
0.98659
  31
0
  0
LINE
  8
0
  10
0.74345
  20
0.98659
  30
0
  11
0.70051
  21
0.97598
  31
0
  0
LINE
  8
0
  10
0.70051
  20
0.97598
  30
0
  11
0.66767
  21
0.96891
  31
0
  0
LINE
  8
0
  10
0.66767
  20
0.96891
  30
0
  11
0.59074
  21
1.06275
  31
0
  0
LINE
  8
0
  10
0.59074
  20
1.06275
  30
0
  11
0.60411
  21
1.09357
  31
0
  0
LINE
  8
0
  10
0.60411
  20
1.09357
  30
0
  11
0.62294
  21
1.1336
  31
0
  0
LINE
  8
0
  10
0.62294
  20
1.1336
  30
0
  11
0.64292
  21
1.17234
  31
0
  0
LINE
  8
0
  10
0.64292
  20
1.17234
  30
0
  11
0.66408
  21
1.20972
  31
0
  0
LINE
  8
0
  10
0.66408
  20
1.20972
  30
0
  11
0.68646
  21
1.24564
  31
0
  0
LINE
  8
0
  10
0.68646
  20
1.24564
  30
0
  11
0.71011
  21
1.27996
  31
0
  0
LINE
  8
0
  10
0.71011
  20
1.27996
  30
0
  11
0.73514
  21
1.31248
  31
0
  0
LINE
  8
0
  10
0.73514
  20
1.31248
  30
0
  11
0.76175
  21
1.34288
  31
0
  0
LINE
  8
0
  10
0.76175
  20
1.34288
  30
0
  11
0.77577
  21
1.35708
  31
0
  0
LINE
  8
0
  10
0.77577
  20
1.35708
  30
0
  11
0.79045
  21
1.37037
  31
0
  0
LINE
  8
0
  10
0.79045
  20
1.37037
  30
0
  11
0.79798
  21
1.39384
  31
0
  0
LINE
  8
0
  10
0.79798
  20
1.39384
  30
0
  11
0.80201
  21
1.40525
  31
0
  0
LINE
  8
0
  10
0.80201
  20
1.40525
  30
0
  11
0.80445
  21
1.41902
  31
0
  0
LINE
  8
0
  10
0.80445
  20
1.41902
  30
0
  11
0.79793
  21
1.44608
  31
0
  0
LINE
  8
0
  10
0.79793
  20
1.44608
  30
0
  11
0.75336
  21
1.51494
  31
0
  0
LINE
  8
0
  10
0.75336
  20
1.51494
  30
0
  11
0.73133
  21
1.53197
  31
0
  0
LINE
  8
0
  10
0.73133
  20
1.53197
  30
0
  11
0.71777
  21
1.53539
  31
0
  0
LINE
  8
0
  10
0.71777
  20
1.53539
  30
0
  11
0.70572
  21
1.53638
  31
0
  0
LINE
  8
0
  10
0.70572
  20
1.53638
  30
0
  11
0.68122
  21
1.53912
  31
0
  0
LINE
  8
0
  10
0.68122
  20
1.53912
  30
0
  11
0.66309
  21
1.53117
  31
0
  0
LINE
  8
0
  10
0.66309
  20
1.53117
  30
0
  11
0.64438
  21
1.52419
  31
0
  0
LINE
  8
0
  10
0.64438
  20
1.52419
  30
0
  11
0.60576
  21
1.51236
  31
0
  0
LINE
  8
0
  10
0.60576
  20
1.51236
  30
0
  11
0.56584
  21
1.50284
  31
0
  0
LINE
  8
0
  10
0.56584
  20
1.50284
  30
0
  11
0.52485
  21
1.49532
  31
0
  0
LINE
  8
0
  10
0.52485
  20
1.49532
  30
0
  11
0.48292
  21
1.48961
  31
0
  0
LINE
  8
0
  10
0.48292
  20
1.48961
  30
0
  11
0.44015
  21
1.48562
  31
0
  0
LINE
  8
0
  10
0.44015
  20
1.48562
  30
0
  11
0.39662
  21
1.48325
  31
0
  0
LINE
  8
0
  10
0.39662
  20
1.48325
  30
0
  11
0.35239
  21
1.48246
  31
0
  0
LINE
  8
0
  10
0.35239
  20
1.48246
  30
0
  11
0.3188
  21
1.48288
  31
0
  0
LINE
  8
0
  10
0.3188
  20
1.48288
  30
0
  11
0.26468
  21
1.59149
  31
0
  0
LINE
  8
0
  10
0.26468
  20
1.59149
  30
0
  11
0.28458
  21
1.61856
  31
0
  0
LINE
  8
0
  10
0.28458
  20
1.61856
  30
0
  11
0.31184
  21
1.65339
  31
0
  0
LINE
  8
0
  10
0.31184
  20
1.65339
  30
0
  11
0.33994
  21
1.68672
  31
0
  0
LINE
  8
0
  10
0.33994
  20
1.68672
  30
0
  11
0.36889
  21
1.71846
  31
0
  0
LINE
  8
0
  10
0.36889
  20
1.71846
  30
0
  11
0.39869
  21
1.7485
  31
0
  0
LINE
  8
0
  10
0.39869
  20
1.7485
  30
0
  11
0.42939
  21
1.77669
  31
0
  0
LINE
  8
0
  10
0.42939
  20
1.77669
  30
0
  11
0.46103
  21
1.80283
  31
0
  0
LINE
  8
0
  10
0.46103
  20
1.80283
  30
0
  11
0.49373
  21
1.82654
  31
0
  0
LINE
  8
0
  10
0.49373
  20
1.82654
  30
0
  11
0.51057
  21
1.83727
  31
0
  0
LINE
  8
0
  10
0.51057
  20
1.83727
  30
0
  11
0.52784
  21
1.84695
  31
0
  0
LINE
  8
0
  10
0.52784
  20
1.84695
  30
0
  11
0.5404
  21
1.86816
  31
0
  0
LINE
  8
0
  10
0.5404
  20
1.86816
  30
0
  11
0.54687
  21
1.87838
  31
0
  0
LINE
  8
0
  10
0.54687
  20
1.87838
  30
0
  11
0.55231
  21
1.89127
  31
0
  0
LINE
  8
0
  10
0.55231
  20
1.89127
  30
0
  11
0.55198
  21
1.91911
  31
0
  0
LINE
  8
0
  10
0.55198
  20
1.91911
  30
0
  11
0.52384
  21
1.99616
  31
0
  0
LINE
  8
0
  10
0.52384
  20
1.99616
  30
0
  11
0.50616
  21
2.01766
  31
0
  0
LINE
  8
0
  10
0.50616
  20
2.01766
  30
0
  11
0.4937
  21
2.02401
  31
0
  0
LINE
  8
0
  10
0.4937
  20
2.02401
  30
0
  11
0.48217
  21
2.02766
  31
0
  0
LINE
  8
0
  10
0.48217
  20
2.02766
  30
0
  11
0.45889
  21
2.03578
  31
0
  0
LINE
  8
0
  10
0.45889
  20
2.03578
  30
0
  11
0.43945
  21
2.03206
  31
0
  0
LINE
  8
0
  10
0.43945
  20
2.03206
  30
0
  11
0.41966
  21
2.02942
  31
0
  0
LINE
  8
0
  10
0.41966
  20
2.02942
  30
0
  11
0.37937
  21
2.02648
  31
0
  0
LINE
  8
0
  10
0.37937
  20
2.02648
  30
0
  11
0.33833
  21
2.02608
  31
0
  0
LINE
  8
0
  10
0.33833
  20
2.02608
  30
0
  11
0.2967
  21
2.02787
  31
0
  0
LINE
  8
0
  10
0.2967
  20
2.02787
  30
0
  11
0.25455
  21
2.03164
  31
0
  0
LINE
  8
0
  10
0.25455
  20
2.03164
  30
0
  11
0.21196
  21
2.03726
  31
0
  0
LINE
  8
0
  10
0.21196
  20
2.03726
  30
0
  11
0.169
  21
2.04464
  31
0
  0
LINE
  8
0
  10
0.169
  20
2.04464
  30
0
  11
0.1257
  21
2.05371
  31
0
  0
LINE
  8
0
  10
0.1257
  20
2.05371
  30
0
  11
0.09305
  21
2.0616
  31
0
  0
LINE
  8
0
  10
0.09305
  20
2.0616
  30
0
  11
0.06446
  21
2.17952
  31
0
  0
LINE
  8
0
  10
0.06446
  20
2.17952
  30
0
  11
0.08987
  21
2.20149
  31
0
  0
LINE
  8
0
  10
0.08987
  20
2.20149
  30
0
  11
0.1242
  21
2.22938
  31
0
  0
LINE
  8
0
  10
0.1242
  20
2.22938
  30
0
  11
0.15902
  21
2.25562
  31
0
  0
LINE
  8
0
  10
0.15902
  20
2.25562
  30
0
  11
0.1943
  21
2.28012
  31
0
  0
LINE
  8
0
  10
0.1943
  20
2.28012
  30
0
  11
0.23004
  21
2.30277
  31
0
  0
LINE
  8
0
  10
0.23004
  20
2.30277
  30
0
  11
0.26624
  21
2.32343
  31
0
  0
LINE
  8
0
  10
0.26624
  20
2.32343
  30
0
  11
0.3029
  21
2.34187
  31
0
  0
LINE
  8
0
  10
0.3029
  20
2.34187
  30
0
  11
0.34007
  21
2.35771
  31
0
  0
LINE
  8
0
  10
0.34007
  20
2.35771
  30
0
  11
0.35887
  21
2.36442
  31
0
  0
LINE
  8
0
  10
0.35887
  20
2.36442
  30
0
  11
0.37786
  21
2.37002
  31
0
  0
LINE
  8
0
  10
0.37786
  20
2.37002
  30
0
  11
0.39482
  21
2.38791
  31
0
  0
LINE
  8
0
  10
0.39482
  20
2.38791
  30
0
  11
0.40341
  21
2.39643
  31
0
  0
LINE
  8
0
  10
0.40341
  20
2.39643
  30
0
  11
0.41158
  21
2.40778
  31
0
  0
LINE
  8
0
  10
0.41158
  20
2.40778
  30
0
  11
0.41745
  21
2.435
  31
0
  0
LINE
  8
0
  10
0.41745
  20
2.435
  30
0
  11
0.40717
  21
2.51638
  31
0
  0
LINE
  8
0
  10
0.40717
  20
2.51638
  30
0
  11
0.39471
  21
2.54128
  31
0
  0
LINE
  8
0
  10
0.39471
  20
2.54128
  30
0
  11
0.38398
  21
2.55024
  31
0
  0
LINE
  8
0
  10
0.38398
  20
2.55024
  30
0
  11
0.37354
  21
2.55636
  31
0
  0
LINE
  8
0
  10
0.37354
  20
2.55636
  30
0
  11
0.35266
  21
2.56946
  31
0
  0
LINE
  8
0
  10
0.35266
  20
2.56946
  30
0
  11
0.33287
  21
2.57016
  31
0
  0
LINE
  8
0
  10
0.33287
  20
2.57016
  30
0
  11
0.313
  21
2.57199
  31
0
  0
LINE
  8
0
  10
0.313
  20
2.57199
  30
0
  11
0.27306
  21
2.57809
  31
0
  0
LINE
  8
0
  10
0.27306
  20
2.57809
  30
0
  11
0.23297
  21
2.58683
  31
0
  0
LINE
  8
0
  10
0.23297
  20
2.58683
  30
0
  11
0.19277
  21
2.59784
  31
0
  0
LINE
  8
0
  10
0.19277
  20
2.59784
  30
0
  11
0.15252
  21
2.61089
  31
0
  0
LINE
  8
0
  10
0.15252
  20
2.61089
  30
0
  11
0.11225
  21
2.62585
  31
0
  0
LINE
  8
0
  10
0.11225
  20
2.62585
  30
0
  11
0.072
  21
2.64261
  31
0
  0
LINE
  8
0
  10
0.072
  20
2.64261
  30
0
  11
0.03181
  21
2.66109
  31
0
  0
LINE
  8
0
  10
0.03181
  20
2.66109
  30
0
  11
0.00173
  21
2.67604
  31
0
  0
LINE
  8
0
  10
0.00173
  20
2.67604
  30
0
  11
0.0001
  21
2.79737
  31
0
  0
LINE
  8
0
  10
0.0001
  20
2.79737
  30
0
  11
0.02977
  21
2.81313
  31
0
  0
LINE
  8
0
  10
0.02977
  20
2.81313
  30
0
  11
0.06944
  21
2.83268
  31
0
  0
LINE
  8
0
  10
0.06944
  20
2.83268
  30
0
  11
0.10922
  21
2.85051
  31
0
  0
LINE
  8
0
  10
0.10922
  20
2.85051
  30
0
  11
0.14907
  21
2.86655
  31
0
  0
LINE
  8
0
  10
0.14907
  20
2.86655
  30
0
  11
0.18896
  21
2.88068
  31
0
  0
LINE
  8
0
  10
0.18896
  20
2.88068
  30
0
  11
0.22885
  21
2.89277
  31
0
  0
LINE
  8
0
  10
0.22885
  20
2.89277
  30
0
  11
0.26869
  21
2.90259
  31
0
  0
LINE
  8
0
  10
0.26869
  20
2.90259
  30
0
  11
0.30845
  21
2.90976
  31
0
  0
LINE
  8
0
  10
0.30845
  20
2.90976
  30
0
  11
0.32827
  21
2.91212
  31
0
  0
LINE
  8
0
  10
0.32827
  20
2.91212
  30
0
  11
0.34803
  21
2.91336
  31
0
  0
LINE
  8
0
  10
0.34803
  20
2.91336
  30
0
  11
0.36855
  21
2.92701
  31
0
  0
LINE
  8
0
  10
0.36855
  20
2.92701
  30
0
  11
0.37882
  21
2.93342
  31
0
  0
LINE
  8
0
  10
0.37882
  20
2.93342
  30
0
  11
0.38931
  21
2.94266
  31
0
  0
LINE
  8
0
  10
0.38931
  20
2.94266
  30
0
  11
0.40109
  21
2.96789
  31
0
  0
LINE
  8
0
  10
0.40109
  20
2.96789
  30
0
  11
0.40917
  21
3.04952
  31
0
  0
LINE
  8
0
  10
0.40917
  20
3.04952
  30
0
  11
0.40257
  21
3.07656
  31
0
  0
LINE
  8
0
  10
0.40257
  20
3.07656
  30
0
  11
0.3941
  21
3.08769
  31
0
  0
LINE
  8
0
  10
0.3941
  20
3.08769
  30
0
  11
0.38529
  21
3.09598
  31
0
  0
LINE
  8
0
  10
0.38529
  20
3.09598
  30
0
  11
0.36785
  21
3.1134
  31
0
  0
LINE
  8
0
  10
0.36785
  20
3.1134
  30
0
  11
0.34871
  21
3.11849
  31
0
  0
LINE
  8
0
  10
0.34871
  20
3.11849
  30
0
  11
0.32974
  21
3.12469
  31
0
  0
LINE
  8
0
  10
0.32974
  20
3.12469
  30
0
  11
0.29216
  21
3.13952
  31
0
  0
LINE
  8
0
  10
0.29216
  20
3.13952
  30
0
  11
0.25502
  21
3.15697
  31
0
  0
LINE
  8
0
  10
0.25502
  20
3.15697
  30
0
  11
0.21828
  21
3.17665
  31
0
  0
LINE
  8
0
  10
0.21828
  20
3.17665
  30
0
  11
0.18194
  21
3.19833
  31
0
  0
LINE
  8
0
  10
0.18194
  20
3.19833
  30
0
  11
0.14601
  21
3.22187
  31
0
  0
LINE
  8
0
  10
0.14601
  20
3.22187
  30
0
  11
0.1105
  21
3.24716
  31
0
  0
LINE
  8
0
  10
0.1105
  20
3.24716
  30
0
  11
0.07543
  21
3.27412
  31
0
  0
LINE
  8
0
  10
0.07543
  20
3.27412
  30
0
  11
0.04943
  21
3.29539
  31
0
  0
LINE
  8
0
  10
0.04943
  20
3.29539
  30
0
  11
0.07484
  21
3.41404
  31
0
  0
LINE
  8
0
  10
0.07484
  20
3.41404
  30
0
  11
0.10727
  21
3.4228
  31
0
  0
LINE
  8
0
  10
0.10727
  20
3.4228
  30
0
  11
0.1503
  21
3.43304
  31
0
  0
LINE
  8
0
  10
0.1503
  20
3.43304
  30
0
  11
0.19305
  21
3.44158
  31
0
  0
LINE
  8
0
  10
0.19305
  20
3.44158
  30
0
  11
0.23547
  21
3.44834
  31
0
  0
LINE
  8
0
  10
0.23547
  20
3.44834
  30
0
  11
0.2775
  21
3.45324
  31
0
  0
LINE
  8
0
  10
0.2775
  20
3.45324
  30
0
  11
0.31908
  21
3.45615
  31
0
  0
LINE
  8
0
  10
0.31908
  20
3.45615
  30
0
  11
0.36011
  21
3.45686
  31
0
  0
LINE
  8
0
  10
0.36011
  20
3.45686
  30
0
  11
0.40047
  21
3.455
  31
0
  0
LINE
  8
0
  10
0.40047
  20
3.455
  30
0
  11
0.42032
  21
3.45289
  31
0
  0
LINE
  8
0
  10
0.42032
  20
3.45289
  30
0
  11
0.43986
  21
3.4497
  31
0
  0
LINE
  8
0
  10
0.43986
  20
3.4497
  30
0
  11
0.4629
  21
3.45845
  31
0
  0
LINE
  8
0
  10
0.4629
  20
3.45845
  30
0
  11
0.47434
  21
3.46241
  31
0
  0
LINE
  8
0
  10
0.47434
  20
3.46241
  30
0
  11
0.48662
  21
3.46909
  31
0
  0
LINE
  8
0
  10
0.48662
  20
3.46909
  30
0
  11
0.50372
  21
3.49106
  31
0
  0
LINE
  8
0
  10
0.50372
  20
3.49106
  30
0
  11
0.52976
  21
3.56884
  31
0
  0
LINE
  8
0
  10
0.52976
  20
3.56884
  30
0
  11
0.52935
  21
3.59668
  31
0
  0
LINE
  8
0
  10
0.52935
  20
3.59668
  30
0
  11
0.52356
  21
3.60941
  31
0
  0
LINE
  8
0
  10
0.52356
  20
3.60941
  30
0
  11
0.51682
  21
3.61946
  31
0
  0
LINE
  8
0
  10
0.51682
  20
3.61946
  30
0
  11
0.50369
  21
3.64032
  31
0
  0
LINE
  8
0
  10
0.50369
  20
3.64032
  30
0
  11
0.48617
  21
3.64954
  31
0
  0
LINE
  8
0
  10
0.48617
  20
3.64954
  30
0
  11
0.46905
  21
3.65981
  31
0
  0
LINE
  8
0
  10
0.46905
  20
3.65981
  30
0
  11
0.43572
  21
3.68263
  31
0
  0
LINE
  8
0
  10
0.43572
  20
3.68263
  30
0
  11
0.40338
  21
3.7079
  31
0
  0
LINE
  8
0
  10
0.40338
  20
3.7079
  30
0
  11
0.37194
  21
3.73526
  31
0
  0
LINE
  8
0
  10
0.37194
  20
3.73526
  30
0
  11
0.34134
  21
3.76449
  31
0
  0
LINE
  8
0
  10
0.34134
  20
3.76449
  30
0
  11
0.31155
  21
3.79544
  31
0
  0
LINE
  8
0
  10
0.31155
  20
3.79544
  30
0
  11
0.28256
  21
3.82799
  31
0
  0
LINE
  8
0
  10
0.28256
  20
3.82799
  30
0
  11
0.25437
  21
3.86208
  31
0
  0
LINE
  8
0
  10
0.25437
  20
3.86208
  30
0
  11
0.23375
  21
3.88861
  31
0
  0
LINE
  8
0
  10
0.23375
  20
3.88861
  30
0
  11
0.28493
  21
3.99863
  31
0
  0
LINE
  8
0
  10
0.28493
  20
3.99863
  30
0
  11
0.31849
  21
3.99995
  31
0
  0
LINE
  8
0
  10
0.31849
  20
3.99995
  30
0
  11
0.36272
  21
4.00036
  31
0
  0
LINE
  8
0
  10
0.36272
  20
4.00036
  30
0
  11
0.4063
  21
3.99916
  31
0
  0
LINE
  8
0
  10
0.4063
  20
3.99916
  30
0
  11
0.44916
  21
3.99632
  31
0
  0
LINE
  8
0
  10
0.44916
  20
3.99632
  30
0
  11
0.49123
  21
3.99175
  31
0
  0
LINE
  8
0
  10
0.49123
  20
3.99175
  30
0
  11
0.53241
  21
3.98533
  31
0
  0
LINE
  8
0
  10
0.53241
  20
3.98533
  30
0
  11
0.57257
  21
3.97689
  31
0
  0
LINE
  8
0
  10
0.57257
  20
3.97689
  30
0
  11
0.6115
  21
3.9661
  31
0
  0
LINE
  8
0
  10
0.6115
  20
3.9661
  30
0
  11
0.63039
  21
3.95963
  31
0
  0
LINE
  8
0
  10
0.63039
  20
3.95963
  30
0
  11
0.64873
  21
3.95217
  31
0
  0
LINE
  8
0
  10
0.64873
  20
3.95217
  30
0
  11
0.67314
  21
3.95557
  31
0
  0
LINE
  8
0
  10
0.67314
  20
3.95557
  30
0
  11
0.68517
  21
3.95688
  31
0
  0
LINE
  8
0
  10
0.68517
  20
3.95688
  30
0
  11
0.69863
  21
3.96066
  31
0
  0
LINE
  8
0
  10
0.69863
  20
3.96066
  30
0
  11
0.72019
  21
3.97828
  31
0
  0
LINE
  8
0
  10
0.72019
  20
3.97828
  30
0
  11
0.76289
  21
4.04831
  31
0
  0
LINE
  8
0
  10
0.76289
  20
4.04831
  30
0
  11
0.76868
  21
4.07555
  31
0
  0
LINE
  8
0
  10
0.76868
  20
4.07555
  30
0
  11
0.76587
  21
4.08925
  31
0
  0
LINE
  8
0
  10
0.76587
  20
4.08925
  30
0
  11
0.76153
  21
4.10054
  31
0
  0
LINE
  8
0
  10
0.76153
  20
4.10054
  30
0
  11
0.75338
  21
4.1238
  31
0
  0
LINE
  8
0
  10
0.75338
  20
4.1238
  30
0
  11
0.73834
  21
4.13669
  31
0
  0
LINE
  8
0
  10
0.73834
  20
4.13669
  30
0
  11
0.72394
  21
4.15051
  31
0
  0
LINE
  8
0
  10
0.72394
  20
4.15051
  30
0
  11
0.69652
  21
4.18018
  31
0
  0
LINE
  8
0
  10
0.69652
  20
4.18018
  30
0
  11
0.67063
  21
4.21201
  31
0
  0
LINE
  8
0
  10
0.67063
  20
4.21201
  30
0
  11
0.64606
  21
4.24568
  31
0
  0
LINE
  8
0
  10
0.64606
  20
4.24568
  30
0
  11
0.62273
  21
4.28098
  31
0
  0
LINE
  8
0
  10
0.62273
  20
4.28098
  30
0
  11
0.60057
  21
4.31778
  31
0
  0
LINE
  8
0
  10
0.60057
  20
4.31778
  30
0
  11
0.57955
  21
4.35598
  31
0
  0
LINE
  8
0
  10
0.57955
  20
4.35598
  30
0
  11
0.55965
  21
4.39548
  31
0
  0
LINE
  8
0
  10
0.55965
  20
4.39548
  30
0
  11
0.54546
  21
4.42593
  31
0
  0
LINE
  8
0
  10
0.54546
  20
4.42593
  30
0
  11
0.61983
  21
4.5218
  31
0
  0
LINE
  8
0
  10
0.61983
  20
4.5218
  30
0
  11
0.65285
  21
4.51563
  31
0
  0
LINE
  8
0
  10
0.65285
  20
4.51563
  30
0
  11
0.69606
  21
4.50618
  31
0
  0
LINE
  8
0
  10
0.69606
  20
4.50618
  30
0
  11
0.73828
  21
4.49532
  31
0
  0
LINE
  8
0
  10
0.73828
  20
4.49532
  30
0
  11
0.77944
  21
4.48301
  31
0
  0
LINE
  8
0
  10
0.77944
  20
4.48301
  30
0
  11
0.81943
  21
4.46919
  31
0
  0
LINE
  8
0
  10
0.81943
  20
4.46919
  30
0
  11
0.85815
  21
4.45377
  31
0
  0
LINE
  8
0
  10
0.85815
  20
4.45377
  30
0
  11
0.89543
  21
4.4366
  31
0
  0
LINE
  8
0
  10
0.89543
  20
4.4366
  30
0
  11
0.93098
  21
4.41742
  31
0
  0
LINE
  8
0
  10
0.93098
  20
4.41742
  30
0
  11
0.94795
  21
4.40691
  31
0
  0
LINE
  8
0
  10
0.94795
  20
4.40691
  30
0
  11
0.96417
  21
4.39556
  31
0
  0
LINE
  8
0
  10
0.96417
  20
4.39556
  30
0
  11
0.98873
  21
4.39344
  31
0
  0
LINE
  8
0
  10
0.98873
  20
4.39344
  30
0
  11
1.00075
  21
4.39204
  31
0
  0
LINE
  8
0
  10
1.00075
  20
4.39204
  30
0
  11
1.01471
  21
4.39273
  31
0
  0
LINE
  8
0
  10
1.01471
  20
4.39273
  30
0
  11
1.03965
  21
4.40511
  31
0
  0
LINE
  8
0
  10
1.03965
  20
4.40511
  30
0
  11
1.09687
  21
4.46389
  31
0
  0
LINE
  8
0
  10
1.09687
  20
4.46389
  30
0
  11
1.10857
  21
4.48915
  31
0
  0
LINE
  8
0
  10
1.10857
  20
4.48915
  30
0
  11
1.10888
  21
4.50313
  31
0
  0
LINE
  8
0
  10
1.10888
  20
4.50313
  30
0
  11
1.10716
  21
4.51511
  31
0
  0
LINE
  8
0
  10
1.10716
  20
4.51511
  30
0
  11
1.10439
  21
4.5396
  31
0
  0
LINE
  8
0
  10
1.10439
  20
4.5396
  30
0
  11
1.0926
  21
4.55551
  31
0
  0
LINE
  8
0
  10
1.0926
  20
4.55551
  30
0
  11
1.08163
  21
4.57219
  31
0
  0
LINE
  8
0
  10
1.08163
  20
4.57219
  30
0
  11
1.06151
  21
4.60721
  31
0
  0
LINE
  8
0
  10
1.06151
  20
4.60721
  30
0
  11
1.04334
  21
4.64401
  31
0
  0
LINE
  8
0
  10
1.04334
  20
4.64401
  30
0
  11
1.02688
  21
4.6823
  31
0
  0
LINE
  8
0
  10
1.02688
  20
4.6823
  30
0
  11
1.01199
  21
4.72191
  31
0
  0
LINE
  8
0
  10
1.01199
  20
4.72191
  30
0
  11
0.99858
  21
4.76272
  31
0
  0
LINE
  8
0
  10
0.99858
  20
4.76272
  30
0
  11
0.98659
  21
4.80463
  31
0
  0
LINE
  8
0
  10
0.98659
  20
4.80463
  30
0
  11
0.97598
  21
4.84758
  31
0
  0
LINE
  8
0
  10
0.97598
  20
4.84758
  30
0
  11
0.96891
  21
4.88042
  31
0
  0
LINE
  8
0
  10
0.96891
  20
4.88042
  30
0
  11
1.06275
  21
4.95734
  31
0
  0
LINE
  8
0
  10
1.06275
  20
4.95734
  30
0
  11
1.09357
  21
4.94397
  31
0
  0
LINE
  8
0
  10
1.09357
  20
4.94397
  30
0
  11
1.1336
  21
4.92514
  31
0
  0
LINE
  8
0
  10
1.1336
  20
4.92514
  30
0
  11
1.17234
  21
4.90516
  31
0
  0
LINE
  8
0
  10
1.17234
  20
4.90516
  30
0
  11
1.20972
  21
4.884
  31
0
  0
LINE
  8
0
  10
1.20972
  20
4.884
  30
0
  11
1.24564
  21
4.86163
  31
0
  0
LINE
  8
0
  10
1.24564
  20
4.86163
  30
0
  11
1.27996
  21
4.83798
  31
0
  0
LINE
  8
0
  10
1.27996
  20
4.83798
  30
0
  11
1.31248
  21
4.81295
  31
0
  0
LINE
  8
0
  10
1.31248
  20
4.81295
  30
0
  11
1.34288
  21
4.78634
  31
0
  0
LINE
  8
0
  10
1.34288
  20
4.78634
  30
0
  11
1.35708
  21
4.77232
  31
0
  0
LINE
  8
0
  10
1.35708
  20
4.77232
  30
0
  11
1.37037
  21
4.75764
  31
0
  0
LINE
  8
0
  10
1.37037
  20
4.75764
  30
0
  11
1.39384
  21
4.75011
  31
0
  0
LINE
  8
0
  10
1.39384
  20
4.75011
  30
0
  11
1.40525
  21
4.74607
  31
0
  0
LINE
  8
0
  10
1.40525
  20
4.74607
  30
0
  11
1.41902
  21
4.74364
  31
0
  0
LINE
  8
0
  10
1.41902
  20
4.74364
  30
0
  11
1.44608
  21
4.75016
  31
0
  0
LINE
  8
0
  10
1.44608
  20
4.75016
  30
0
  11
1.51494
  21
4.79473
  31
0
  0
LINE
  8
0
  10
1.51494
  20
4.79473
  30
0
  11
1.53197
  21
4.81675
  31
0
  0
LINE
  8
0
  10
1.53197
  20
4.81675
  30
0
  11
1.53539
  21
4.83031
  31
0
  0
LINE
  8
0
  10
1.53539
  20
4.83031
  30
0
  11
1.53638
  21
4.84237
  31
0
  0
LINE
  8
0
  10
1.53638
  20
4.84237
  30
0
  11
1.53912
  21
4.86687
  31
0
  0
LINE
  8
0
  10
1.53912
  20
4.86687
  30
0
  11
1.53117
  21
4.885
  31
0
  0
LINE
  8
0
  10
1.53117
  20
4.885
  30
0
  11
1.52419
  21
4.9037
  31
0
  0
LINE
  8
0
  10
1.52419
  20
4.9037
  30
0
  11
1.51236
  21
4.94233
  31
0
  0
LINE
  8
0
  10
1.51236
  20
4.94233
  30
0
  11
1.50284
  21
4.98225
  31
0
  0
LINE
  8
0
  10
1.50284
  20
4.98225
  30
0
  11
1.49532
  21
5.02324
  31
0
  0
LINE
  8
0
  10
1.49532
  20
5.02324
  30
0
  11
1.48961
  21
5.06517
  31
0
  0
LINE
  8
0
  10
1.48961
  20
5.06517
  30
0
  11
1.48562
  21
5.10794
  31
0
  0
LINE
  8
0
  10
1.48562
  20
5.10794
  30
0
  11
1.48325
  21
5.15147
  31
0
  0
LINE
  8
0
  10
1.48325
  20
5.15147
  30
0
  11
1.48246
  21
5.19569
  31
0
  0
LINE
  8
0
  10
1.48246
  20
5.19569
  30
0
  11
1.48288
  21
5.22929
  31
0
  0
LINE
  8
0
  10
1.48288
  20
5.22929
  30
0
  11
1.59149
  21
5.2834
  31
0
  0
LINE
  8
0
  10
1.59149
  20
5.2834
  30
0
  11
1.61856
  21
5.26351
  31
0
  0
LINE
  8
0
  10
1.61856
  20
5.26351
  30
0
  11
1.65339
  21
5.23625
  31
0
  0
LINE
  8
0
  10
1.65339
  20
5.23625
  30
0
  11
1.68672
  21
5.20814
  31
0
  0
LINE
  8
0
  10
1.68672
  20
5.20814
  30
0
  11
1.71846
  21
5.1792
  31
0
  0
LINE
  8
0
  10
1.71846
  20
5.1792
  30
0
  11
1.7485
  21
5.14939
  31
0
  0
LINE
  8
0
  10
1.7485
  20
5.14939
  30
0
  11
1.77669
  21
5.1187
  31
0
  0
LINE
  8
0
  10
1.77669
  20
5.1187
  30
0
  11
1.80283
  21
5.08706
  31
0
  0
LINE
  8
0
  10
1.80283
  20
5.08706
  30
0
  11
1.82654
  21
5.05435
  31
0
  0
LINE
  8
0
  10
1.82654
  20
5.05435
  30
0
  11
1.83727
  21
5.03752
  31
0
  0
LINE
  8
0
  10
1.83727
  20
5.03752
  30
0
  11
1.84695
  21
5.02025
  31
0
  0
LINE
  8
0
  10
1.84695
  20
5.02025
  30
0
  11
1.86816
  21
5.00769
  31
0
  0
LINE
  8
0
  10
1.86816
  20
5.00769
  30
0
  11
1.87838
  21
5.00121
  31
0
  0
LINE
  8
0
  10
1.87838
  20
5.00121
  30
0
  11
1.89127
  21
4.99578
  31
0
  0
LINE
  8
0
  10
1.89127
  20
4.99578
  30
0
  11
1.91911
  21
4.99611
  31
0
  0
LINE
  8
0
  10
1.91911
  20
4.99611
  30
0
  11
1.99616
  21
5.02424
  31
0
  0
LINE
  8
0
  10
1.99616
  20
5.02424
  30
0
  11
2.01766
  21
5.04192
  31
0
  0
LINE
  8
0
  10
2.01766
  20
5.04192
  30
0
  11
2.02401
  21
5.05438
  31
0
  0
LINE
  8
0
  10
2.02401
  20
5.05438
  30
0
  11
2.02766
  21
5.06592
  31
0
  0
LINE
  8
0
  10
2.02766
  20
5.06592
  30
0
  11
2.03578
  21
5.08919
  31
0
  0
LINE
  8
0
  10
2.03578
  20
5.08919
  30
0
  11
2.03206
  21
5.10864
  31
0
  0
LINE
  8
0
  10
2.03206
  20
5.10864
  30
0
  11
2.02942
  21
5.12842
  31
0
  0
LINE
  8
0
  10
2.02942
  20
5.12842
  30
0
  11
2.02648
  21
5.16871
  31
0
  0
LINE
  8
0
  10
2.02648
  20
5.16871
  30
0
  11
2.02608
  21
5.20975
  31
0
  0
LINE
  8
0
  10
2.02608
  20
5.20975
  30
0
  11
2.02787
  21
5.25139
  31
0
  0
LINE
  8
0
  10
2.02787
  20
5.25139
  30
0
  11
2.03164
  21
5.29354
  31
0
  0
LINE
  8
0
  10
2.03164
  20
5.29354
  30
0
  11
2.03726
  21
5.33613
  31
0
  0
LINE
  8
0
  10
2.03726
  20
5.33613
  30
0
  11
2.04464
  21
5.37909
  31
0
  0
LINE
  8
0
  10
2.04464
  20
5.37909
  30
0
  11
2.05371
  21
5.42238
  31
0
  0
LINE
  8
0
  10
2.05371
  20
5.42238
  30
0
  11
2.0616
  21
5.45504
  31
0
  0
LINE
  8
0
  10
2.0616
  20
5.45504
  30
0
  11
2.17952
  21
5.48363
  31
0
  0
LINE
  8
0
  10
2.17952
  20
5.48363
  30
0
  11
2.20149
  21
5.45821
  31
0
  0
LINE
  8
0
  10
2.20149
  20
5.45821
  30
0
  11
2.22938
  21
5.42388
  31
0
  0
LINE
  8
0
  10
2.22938
  20
5.42388
  30
0
  11
2.25562
  21
5.38907
  31
0
  0
LINE
  8
0
  10
2.25562
  20
5.38907
  30
0
  11
2.28012
  21
5.35378
  31
0
  0
LINE
  8
0
  10
2.28012
  20
5.35378
  30
0
  11
2.30277
  21
5.31804
  31
0
  0
LINE
  8
0
  10
2.30277
  20
5.31804
  30
0
  11
2.32343
  21
5.28184
  31
0
  0
LINE
  8
0
  10
2.32343
  20
5.28184
  30
0
  11
2.34187
  21
5.24518
  31
0
  0
LINE
  8
0
  10
2.34187
  20
5.24518
  30
0
  11
2.35771
  21
5.20802
  31
0
  0
LINE
  8
0
  10
2.35771
  20
5.20802
  30
0
  11
2.36442
  21
5.18922
  31
0
  0
LINE
  8
0
  10
2.36442
  20
5.18922
  30
0
  11
2.37002
  21
5.17023
  31
0
  0
LINE
  8
0
  10
2.37002
  20
5.17023
  30
0
  11
2.38791
  21
5.15326
  31
0
  0
LINE
  8
0
  10
2.38791
  20
5.15326
  30
0
  11
2.39643
  21
5.14468
  31
0
  0
LINE
  8
0
  10
2.39643
  20
5.14468
  30
0
  11
2.40778
  21
5.13651
  31
0
  0
LINE
  8
0
  10
2.40778
  20
5.13651
  30
0
  11
2.435
  21
5.13064
  31
0
  0
LINE
  8
0
  10
2.435
  20
5.13064
  30
0
  11
2.51638
  21
5.14092
  31
0
  0
LINE
  8
0
  10
2.51638
  20
5.14092
  30
0
  11
2.54128
  21
5.15337
  31
0
  0
LINE
  8
0
  10
2.54128
  20
5.15337
  30
0
  11
2.55024
  21
5.16411
  31
0
  0
LINE
  8
0
  10
2.55024
  20
5.16411
  30
0
  11
2.55636
  21
5.17454
  31
0
  0
LINE
  8
0
  10
2.55636
  20
5.17454
  30
0
  11
2.56946
  21
5.19542
  31
0
  0
LINE
  8
0
  10
2.56946
  20
5.19542
  30
0
  11
2.57016
  21
5.21521
  31
0
  0
LINE
  8
0
  10
2.57016
  20
5.21521
  30
0
  11
2.57199
  21
5.23509
  31
0
  0
LINE
  8
0
  10
2.57199
  20
5.23509
  30
0
  11
2.57809
  21
5.27502
  31
0
  0
LINE
  8
0
  10
2.57809
  20
5.27502
  30
0
  11
2.58683
  21
5.31512
  31
0
  0
LINE
  8
0
  10
2.58683
  20
5.31512
  30
0
  11
2.59784
  21
5.35532
  31
0
  0
LINE
  8
0
  10
2.59784
  20
5.35532
  30
0
  11
2.61089
  21
5.39557
  31
0
  0
LINE
  8
0
  10
2.61089
  20
5.39557
  30
0
  11
2.62585
  21
5.43584
  31
0
  0
LINE
  8
0
  10
2.62585
  20
5.43584
  30
0
  11
2.64261
  21
5.47608
  31
0
  0
LINE
  8
0
  10
2.64261
  20
5.47608
  30
0
  11
2.66109
  21
5.51627
  31
0
  0
LINE
  8
0
  10
2.66109
  20
5.51627
  30
0
  11
2.67604
  21
5.54635
  31
0
  0
LINE
  8
0
  10
2.67604
  20
5.54635
  30
0
  11
2.79737
  21
5.54799
  31
0
  0
LINE
  8
0
  10
2.79737
  20
5.54799
  30
0
  11
2.81313
  21
5.51832
  31
0
  0
LINE
  8
0
  10
2.81313
  20
5.51832
  30
0
  11
2.83268
  21
5.47864
  31
0
  0
LINE
  8
0
  10
2.83268
  20
5.47864
  30
0
  11
2.85051
  21
5.43886
  31
0
  0
LINE
  8
0
  10
2.85051
  20
5.43886
  30
0
  11
2.86655
  21
5.39901
  31
0
  0
LINE
  8
0
  10
2.86655
  20
5.39901
  30
0
  11
2.88068
  21
5.35913
  31
0
  0
LINE
  8
0
  10
2.88068
  20
5.35913
  30
0
  11
2.89277
  21
5.31924
  31
0
  0
LINE
  8
0
  10
2.89277
  20
5.31924
  30
0
  11
2.90259
  21
5.27939
  31
0
  0
LINE
  8
0
  10
2.90259
  20
5.27939
  30
0
  11
2.90976
  21
5.23964
  31
0
  0
LINE
  8
0
  10
2.90976
  20
5.23964
  30
0
  11
2.91212
  21
5.21982
  31
0
  0
LINE
  8
0
  10
2.91212
  20
5.21982
  30
0
  11
2.91336
  21
5.20005
  31
0
  0
LINE
  8
0
  10
2.91336
  20
5.20005
  30
0
  11
2.92701
  21
5.17953
  31
0
  0
LINE
  8
0
  10
2.92701
  20
5.17953
  30
0
  11
2.93342
  21
5.16927
  31
0
  0
LINE
  8
0
  10
2.93342
  20
5.16927
  30
0
  11
2.94266
  21
5.15878
  31
0
  0
LINE
  8
0
  10
2.94266
  20
5.15878
  30
0
  11
2.96789
  21
5.147
  31
0
  0
LINE
  8
0
  10
2.96789
  20
5.147
  30
0
  11
3.04952
  21
5.13891
  31
0
  0
LINE
  8
0
  10
3.04952
  20
5.13891
  30
0
  11
3.07656
  21
5.14552
  31
0
  0
LINE
  8
0
  10
3.07656
  20
5.14552
  30
0
  11
3.08769
  21
5.15398
  31
0
  0
LINE
  8
0
  10
3.08769
  20
5.15398
  30
0
  11
3.09598
  21
5.1628
  31
0
  0
LINE
  8
0
  10
3.09598
  20
5.1628
  30
0
  11
3.1134
  21
5.18024
  31
0
  0
LINE
  8
0
  10
3.1134
  20
5.18024
  30
0
  11
3.11849
  21
5.19937
  31
0
  0
LINE
  8
0
  10
3.11849
  20
5.19937
  30
0
  11
3.12469
  21
5.21835
  31
0
  0
LINE
  8
0
  10
3.12469
  20
5.21835
  30
0
  11
3.13952
  21
5.25592
  31
0
  0
LINE
  8
0
  10
3.13952
  20
5.25592
  30
0
  11
3.15697
  21
5.29307
  31
0
  0
LINE
  8
0
  10
3.15697
  20
5.29307
  30
0
  11
3.17665
  21
5.32981
  31
0
  0
LINE
  8
0
  10
3.17665
  20
5.32981
  30
0
  11
3.19833
  21
5.36615
  31
0
  0
LINE
  8
0
  10
3.19833
  20
5.36615
  30
0
  11
3.22187
  21
5.40208
  31
0
  0
LINE
  8
0
  10
3.22187
  20
5.40208
  30
0
  11
3.24716
  21
5.43759
  31
0
  0
LINE
  8
0
  10
3.24716
  20
5.43759
  30
0
  11
3.27412
  21
5.47265
  31
0
  0
LINE
  8
0
  10
3.27412
  20
5.47265
  30
0
  11
3.29539
  21
5.49865
  31
0
  0
LINE
  8
0
  10
3.29539
  20
5.49865
  30
0
  11
3.41404
  21
5.47325
  31
0
  0
LINE
  8
0
  10
3.41404
  20
5.47325
  30
0
  11
3.4228
  21
5.44082
  31
0
  0
LINE
  8
0
  10
3.4228
  20
5.44082
  30
0
  11
3.43304
  21
5.39778
  31
0
  0
LINE
  8
0
  10
3.43304
  20
5.39778
  30
0
  11
3.44158
  21
5.35503
  31
0
  0
LINE
  8
0
  10
3.44158
  20
5.35503
  30
0
  11
3.44834
  21
5.31261
  31
0
  0
LINE
  8
0
  10
3.44834
  20
5.31261
  30
0
  11
3.45324
  21
5.27058
  31
0
  0
LINE
  8
0
  10
3.45324
  20
5.27058
  30
0
  11
3.45615
  21
5.22901
  31
0
  0
LINE
  8
0
  10
3.45615
  20
5.22901
  30
0
  11
3.45686
  21
5.18797
  31
0
  0
LINE
  8
0
  10
3.45686
  20
5.18797
  30
0
  11
3.455
  21
5.14762
  31
0
  0
LINE
  8
0
  10
3.455
  20
5.14762
  30
0
  11
3.45289
  21
5.12777
  31
0
  0
LINE
  8
0
  10
3.45289
  20
5.12777
  30
0
  11
3.4497
  21
5.10823
  31
0
  0
LINE
  8
0
  10
3.4497
  20
5.10823
  30
0
  11
3.45845
  21
5.08518
  31
0
  0
LINE
  8
0
  10
3.45845
  20
5.08518
  30
0
  11
3.46241
  21
5.07375
  31
0
  0
LINE
  8
0
  10
3.46241
  20
5.07375
  30
0
  11
3.46909
  21
5.06147
  31
0
  0
LINE
  8
0
  10
3.46909
  20
5.06147
  30
0
  11
3.49106
  21
5.04437
  31
0
  0
LINE
  8
0
  10
3.49106
  20
5.04437
  30
0
  11
3.56884
  21
5.01832
  31
0
  0
LINE
  8
0
  10
3.56884
  20
5.01832
  30
0
  11
3.59668
  21
5.01874
  31
0
  0
LINE
  8
0
  10
3.59668
  20
5.01874
  30
0
  11
3.60941
  21
5.02452
  31
0
  0
LINE
  8
0
  10
3.60941
  20
5.02452
  30
0
  11
3.61946
  21
5.03127
  31
0
  0
LINE
  8
0
  10
3.61946
  20
5.03127
  30
0
  11
3.64032
  21
5.0444
  31
0
  0
LINE
  8
0
  10
3.64032
  20
5.0444
  30
0
  11
3.64954
  21
5.06192
  31
0
  0
LINE
  8
0
  10
3.64954
  20
5.06192
  30
0
  11
3.65981
  21
5.07904
  31
0
  0
LINE
  8
0
  10
3.65981
  20
5.07904
  30
0
  11
3.68263
  21
5.11237
  31
0
  0
LINE
  8
0
  10
3.68263
  20
5.11237
  30
0
  11
3.7079
  21
5.1447
  31
0
  0
LINE
  8
0
  10
3.7079
  20
5.1447
  30
0
  11
3.73526
  21
5.17614
  31
0
  0
LINE
  8
0
  10
3.73526
  20
5.17614
  30
0
  11
3.76449
  21
5.20675
  31
0
  0
LINE
  8
0
  10
3.76449
  20
5.20675
  30
0
  11
3.79544
  21
5.23654
  31
0
  0
LINE
  8
0
  10
3.79544
  20
5.23654
  30
0
  11
3.82799
  21
5.26553
  31
0
  0
LINE
  8
0
  10
3.82799
  20
5.26553
  30
0
  11
3.86208
  21
5.29372
  31
0
  0
LINE
  8
0
  10
3.86208
  20
5.29372
  30
0
  11
3.88861
  21
5.31433
  31
0
  0
LINE
  8
0
  10
3.88861
  20
5.31433
  30
0
  11
3.99863
  21
5.26316
  31
0
  0
LINE
  8
0
  10
3.99863
  20
5.26316
  30
0
  11
3.99995
  21
5.22959
  31
0
  0
LINE
  8
0
  10
3.99995
  20
5.22959
  30
0
  11
4.00036
  21
5.18536
  31
0
  0
LINE
  8
0
  10
4.00036
  20
5.18536
  30
0
  11
3.99916
  21
5.14178
  31
0
  0
LINE
  8
0
  10
3.99916
  20
5.14178
  30
0
  11
3.99632
  21
5.09892
  31
0
  0
LINE
  8
0
  10
3.99632
  20
5.09892
  30
0
  11
3.99175
  21
5.05685
  31
0
  0
LINE
  8
0
  10
3.99175
  20
5.05685
  30
0
  11
3.98533
  21
5.01567
  31
0
  0
LINE
  8
0
  10
3.98533
  20
5.01567
  30
0
  11
3.97689
  21
4.97551
  31
0
  0
LINE
  8
0
  10
3.97689
  20
4.97551
  30
0
  11
3.9661
  21
4.93658
  31
0
  0
LINE
  8
0
  10
3.9661
  20
4.93658
  30
0
  11
3.95963
  21
4.9177
  31
0
  0
LINE
  8
0
  10
3.95963
  20
4.9177
  30
0
  11
3.95217
  21
4.89936
  31
0
  0
LINE
  8
0
  10
3.95217
  20
4.89936
  30
0
  11
3.95557
  21
4.87494
  31
0
  0
LINE
  8
0
  10
3.95557
  20
4.87494
  30
0
  11
3.95688
  21
4.86292
  31
0
  0
LINE
  8
0
  10
3.95688
  20
4.86292
  30
0
  11
3.96066
  21
4.84945
  31
0
  0
LINE
  8
0
  10
3.96066
  20
4.84945
  30
0
  11
3.97828
  21
4.8279
  31
0
  0
LINE
  8
0
  10
3.97828
  20
4.8279
  30
0
  11
4.04831
  21
4.78519
  31
0
  0
LINE
  8
0
  10
4.04831
  20
4.78519
  30
0
  11
4.07555
  21
4.77941
  31
0
  0
LINE
  8
0
  10
4.07555
  20
4.77941
  30
0
  11
4.08925
  21
4.78221
  31
0
  0
LINE
  8
0
  10
4.08925
  20
4.78221
  30
0
  11
4.10054
  21
4.78655
  31
0
  0
LINE
  8
0
  10
4.10054
  20
4.78655
  30
0
  11
4.1238
  21
4.79471
  31
0
  0
LINE
  8
0
  10
4.1238
  20
4.79471
  30
0
  11
4.13669
  21
4.80974
  31
0
  0
LINE
  8
0
  10
4.13669
  20
4.80974
  30
0
  11
4.15051
  21
4.82414
  31
0
  0
LINE
  8
0
  10
4.15051
  20
4.82414
  30
0
  11
4.18018
  21
4.85156
  31
0
  0
LINE
  8
0
  10
4.18018
  20
4.85156
  30
0
  11
4.21201
  21
4.87746
  31
0
  0
LINE
  8
0
  10
4.21201
  20
4.87746
  30
0
  11
4.24568
  21
4.90202
  31
0
  0
LINE
  8
0
  10
4.24568
  20
4.90202
  30
0
  11
4.28098
  21
4.92536
  31
0
  0
LINE
  8
0
  10
4.28098
  20
4.92536
  30
0
  11
4.31778
  21
4.94752
  31
0
  0
LINE
  8
0
  10
4.31778
  20
4.94752
  30
0
  11
4.35598
  21
4.96853
  31
0
  0
LINE
  8
0
  10
4.35598
  20
4.96853
  30
0
  11
4.39548
  21
4.98843
  31
0
  0
LINE
  8
0
  10
4.39548
  20
4.98843
  30
0
  11
4.42593
  21
5.00263
  31
0
  0
LINE
  8
0
  10
4.42593
  20
5.00263
  30
0
  11
4.5218
  21
4.92826
  31
0
  0
LINE
  8
0
  10
4.5218
  20
4.92826
  30
0
  11
4.51563
  21
4.89524
  31
0
  0
LINE
  8
0
  10
4.51563
  20
4.89524
  30
0
  11
4.50618
  21
4.85202
  31
0
  0
LINE
  8
0
  10
4.50618
  20
4.85202
  30
0
  11
4.49532
  21
4.8098
  31
0
  0
LINE
  8
0
  10
4.49532
  20
4.8098
  30
0
  11
4.48301
  21
4.76865
  31
0
  0
LINE
  8
0
  10
4.48301
  20
4.76865
  30
0
  11
4.46919
  21
4.72865
  31
0
  0
LINE
  8
0
  10
4.46919
  20
4.72865
  30
0
  11
4.45377
  21
4.68993
  31
0
  0
LINE
  8
0
  10
4.45377
  20
4.68993
  30
0
  11
4.4366
  21
4.65266
  31
0
  0
LINE
  8
0
  10
4.4366
  20
4.65266
  30
0
  11
4.41742
  21
4.6171
  31
0
  0
LINE
  8
0
  10
4.41742
  20
4.6171
  30
0
  11
4.40691
  21
4.60014
  31
0
  0
LINE
  8
0
  10
4.40691
  20
4.60014
  30
0
  11
4.39556
  21
4.58391
  31
0
  0
LINE
  8
0
  10
4.39556
  20
4.58391
  30
0
  11
4.39344
  21
4.55935
  31
0
  0
LINE
  8
0
  10
4.39344
  20
4.55935
  30
0
  11
4.39204
  21
4.54734
  31
0
  0
LINE
  8
0
  10
4.39204
  20
4.54734
  30
0
  11
4.39273
  21
4.53337
  31
0
  0
LINE
  8
0
  10
4.39273
  20
4.53337
  30
0
  11
4.40511
  21
4.50843
  31
0
  0
LINE
  8
0
  10
4.40511
  20
4.50843
  30
0
  11
4.46389
  21
4.45122
  31
0
  0
LINE
  8
0
  10
4.46389
  20
4.45122
  30
0
  11
4.48915
  21
4.43952
  31
0
  0
LINE
  8
0
  10
4.48915
  20
4.43952
  30
0
  11
4.50313
  21
4.4392
  31
0
  0
LINE
  8
0
  10
4.50313
  20
4.4392
  30
0
  11
4.51511
  21
4.44092
  31
0
  0
LINE
  8
0
  10
4.51511
  20
4.44092
  30
0
  11
4.5396
  21
4.4437
  31
0
  0
LINE
  8
0
  10
4.5396
  20
4.4437
  30
0
  11
4.55551
  21
4.45549
  31
0
  0
LINE
  8
0
  10
4.55551
  20
4.45549
  30
0
  11
4.57219
  21
4.46645
  31
0
  0
LINE
  8
0
  10
4.57219
  20
4.46645
  30
0
  11
4.60721
  21
4.48658
  31
0
  0
LINE
  8
0
  10
4.60721
  20
4.48658
  30
0
  11
4.64401
  21
4.50474
  31
0
  0
LINE
  8
0
  10
4.64401
  20
4.50474
  30
0
  11
4.6823
  21
4.5212
  31
0
  0
LINE
  8
0
  10
4.6823
  20
4.5212
  30
0
  11
4.72191
  21
4.53609
  31
0
  0
LINE
  8
0
  10
4.72191
  20
4.53609
  30
0
  11
4.76272
  21
4.54951
  31
0
  0
LINE
  8
0
  10
4.76272
  20
4.54951
  30
0
  11
4.80463
  21
4.5615
  31
0
  0
LINE
  8
0
  10
4.80463
  20
4.5615
  30
0
  11
4.84758
  21
4.57211
  31
0
  0
LINE
  8
0
  10
4.84758
  20
4.57211
  30
0
  11
4.88042
  21
4.57917
  31
0
  0
LINE
  8
0
  10
4.88042
  20
4.57917
  30
0
  11
4.95734
  21
4.48533
  31
0
  0
LINE
  8
0
  10
4.95734
  20
4.48533
  30
0
  11
4.94397
  21
4.45451
  31
0
  0
LINE
  8
0
  10
4.94397
  20
4.45451
  30
0
  11
4.92514
  21
4.41449
  31
0
  0
LINE
  8
0
  10
4.92514
  20
4.41449
  30
0
  11
4.90516
  21
4.37574
  31
0
  0
LINE
  8
0
  10
4.90516
  20
4.37574
  30
0
  11
4.884
  21
4.33836
  31
0
  0
LINE
  8
0
  10
4.884
  20
4.33836
  30
0
  11
4.86163
  21
4.30244
  31
0
  0
LINE
  8
0
  10
4.86163
  20
4.30244
  30
0
  11
4.83798
  21
4.26812
  31
0
  0
LINE
  8
0
  10
4.83798
  20
4.26812
  30
0
  11
4.81295
  21
4.2356
  31
0
  0
LINE
  8
0
  10
4.81295
  20
4.2356
  30
0
  11
4.78634
  21
4.20521
  31
0
  0
LINE
  8
0
  10
4.78634
  20
4.20521
  30
0
  11
4.77232
  21
4.191
  31
0
  0
LINE
  8
0
  10
4.77232
  20
4.191
  30
0
  11
4.75764
  21
4.17772
  31
0
  0
LINE
  8
0
  10
4.75764
  20
4.17772
  30
0
  11
4.75011
  21
4.15424
  31
0
  0
LINE
  8
0
  10
4.75011
  20
4.15424
  30
0
  11
4.74607
  21
4.14284
  31
0
  0
LINE
  8
0
  10
4.74607
  20
4.14284
  30
0
  11
4.74364
  21
4.12907
  31
0
  0
LINE
  8
0
  10
4.74364
  20
4.12907
  30
0
  11
4.75016
  21
4.102
  31
0
  0
LINE
  8
0
  10
4.75016
  20
4.102
  30
0
  11
4.79473
  21
4.03314
  31
0
  0
LINE
  8
0
  10
4.79473
  20
4.03314
  30
0
  11
4.81675
  21
4.01611
  31
0
  0
LINE
  8
0
  10
4.81675
  20
4.01611
  30
0
  11
4.83031
  21
4.01269
  31
0
  0
LINE
  8
0
  10
4.83031
  20
4.01269
  30
0
  11
4.84237
  21
4.01171
  31
0
  0
LINE
  8
0
  10
4.84237
  20
4.01171
  30
0
  11
4.86687
  21
4.00896
  31
0
  0
LINE
  8
0
  10
4.86687
  20
4.00896
  30
0
  11
4.885
  21
4.01692
  31
0
  0
LINE
  8
0
  10
4.885
  20
4.01692
  30
0
  11
4.9037
  21
4.02389
  31
0
  0
LINE
  8
0
  10
4.9037
  20
4.02389
  30
0
  11
4.94233
  21
4.03572
  31
0
  0
LINE
  8
0
  10
4.94233
  20
4.03572
  30
0
  11
4.98225
  21
4.04524
  31
0
  0
LINE
  8
0
  10
4.98225
  20
4.04524
  30
0
  11
5.02324
  21
4.05277
  31
0
  0
LINE
  8
0
  10
5.02324
  20
4.05277
  30
0
  11
5.06517
  21
4.05847
  31
0
  0
LINE
  8
0
  10
5.06517
  20
4.05847
  30
0
  11
5.10794
  21
4.06247
  31
0
  0
LINE
  8
0
  10
5.10794
  20
4.06247
  30
0
  11
5.15147
  21
4.06484
  31
0
  0
LINE
  8
0
  10
5.15147
  20
4.06484
  30
0
  11
5.19569
  21
4.06562
  31
0
  0
LINE
  8
0
  10
5.19569
  20
4.06562
  30
0
  11
5.22929
  21
4.0652
  31
0
  0
LINE
  8
0
  10
5.22929
  20
4.0652
  30
0
  11
5.2834
  21
3.9566
  31
0
  0
LINE
  8
0
  10
5.2834
  20
3.9566
  30
0
  11
5.26351
  21
3.92953
  31
0
  0
LINE
  8
0
  10
5.26351
  20
3.92953
  30
0
  11
5.23625
  21
3.89469
  31
0
  0
LINE
  8
0
  10
5.23625
  20
3.89469
  30
0
  11
5.20814
  21
3.86137
  31
0
  0
LINE
  8
0
  10
5.20814
  20
3.86137
  30
0
  11
5.1792
  21
3.82963
  31
0
  0
LINE
  8
0
  10
5.1792
  20
3.82963
  30
0
  11
5.14939
  21
3.79959
  31
0
  0
LINE
  8
0
  10
5.14939
  20
3.79959
  30
0
  11
5.1187
  21
3.7714
  31
0
  0
LINE
  8
0
  10
5.1187
  20
3.7714
  30
0
  11
5.08706
  21
3.74526
  31
0
  0
LINE
  8
0
  10
5.08706
  20
3.74526
  30
0
  11
5.05435
  21
3.72155
  31
0
  0
LINE
  8
0
  10
5.05435
  20
3.72155
  30
0
  11
5.03752
  21
3.71082
  31
0
  0
LINE
  8
0
  10
5.03752
  20
3.71082
  30
0
  11
5.02025
  21
3.70113
  31
0
  0
LINE
  8
0
  10
5.02025
  20
3.70113
  30
0
  11
5.00769
  21
3.67992
  31
0
  0
LINE
  8
0
  10
5.00769
  20
3.67992
  30
0
  11
5.00121
  21
3.6697
  31
0
  0
LINE
  8
0
  10
5.00121
  20
3.6697
  30
0
  11
4.99578
  21
3.65682
  31
0
  0
LINE
  8
0
  10
4.99578
  20
3.65682
  30
0
  11
4.99611
  21
3.62898
  31
0
  0
LINE
  8
0
  10
4.99611
  20
3.62898
  30
0
  11
5.02424
  21
3.55193
  31
0
  0
LINE
  8
0
  10
5.02424
  20
3.55193
  30
0
  11
5.04192
  21
3.53042
  31
0
  0
LINE
  8
0
  10
5.04192
  20
3.53042
  30
0
  11
5.05438
  21
3.52408
  31
0
  0
LINE
  8
0
  10
5.05438
  20
3.52408
  30
0
  11
5.06592
  21
3.52043
  31
0
  0
LINE
  8
0
  10
5.06592
  20
3.52043
  30
0
  11
5.08919
  21
3.5123
  31
0
  0
LINE
  8
0
  10
5.08919
  20
3.5123
  30
0
  11
5.10864
  21
3.51602
  31
0
  0
LINE
  8
0
  10
5.10864
  20
3.51602
  30
0
  11
5.12842
  21
3.51866
  31
0
  0
LINE
  8
0
  10
5.12842
  20
3.51866
  30
0
  11
5.16871
  21
3.5216
  31
0
  0
LINE
  8
0
  10
5.16871
  20
3.5216
  30
0
  11
5.20975
  21
3.522
  31
0
  0
LINE
  8
0
  10
5.20975
  20
3.522
  30
0
  11
5.25139
  21
3.52021
  31
0
  0
LINE
  8
0
  10
5.25139
  20
3.52021
  30
0
  11
5.29354
  21
3.51645
  31
0
  0
LINE
  8
0
  10
5.29354
  20
3.51645
  30
0
  11
5.33613
  21
3.51083
  31
0
  0
LINE
  8
0
  10
5.33613
  20
3.51083
  30
0
  11
5.37909
  21
3.50345
  31
0
  0
LINE
  8
0
  10
5.37909
  20
3.50345
  30
0
  11
5.42238
  21
3.49437
  31
0
  0
LINE
  8
0
  10
5.42238
  20
3.49437
  30
0
  11
5.45504
  21
3.48649
  31
0
  0
LINE
  8
0
  10
5.45504
  20
3.48649
  30
0
  11
5.48363
  21
3.36856
  31
0
  0
LINE
  8
0
  10
5.48363
  20
3.36856
  30
0
  11
5.45821
  21
3.3466
  31
0
  0
LINE
  8
0
  10
5.45821
  20
3.3466
  30
0
  11
5.42388
  21
3.31871
  31
0
  0
LINE
  8
0
  10
5.42388
  20
3.31871
  30
0
  11
5.38907
  21
3.29247
  31
0
  0
LINE
  8
0
  10
5.38907
  20
3.29247
  30
0
  11
5.35378
  21
3.26797
  31
0
  0
LINE
  8
0
  10
5.35378
  20
3.26797
  30
0
  11
5.31804
  21
3.24531
  31
0
  0
LINE
  8
0
  10
5.31804
  20
3.24531
  30
0
  11
5.28184
  21
3.22465
  31
0
  0
LINE
  8
0
  10
5.28184
  20
3.22465
  30
0
  11
5.24518
  21
3.20622
  31
0
  0
LINE
  8
0
  10
5.24518
  20
3.20622
  30
0
  11
5.20802
  21
3.19038
  31
0
  0
LINE
  8
0
  10
5.20802
  20
3.19038
  30
0
  11
5.18922
  21
3.18366
  31
0
  0
LINE
  8
0
  10
5.18922
  20
3.18366
  30
0
  11
5.17023
  21
3.17806
  31
0
  0
LINE
  8
0
  10
5.17023
  20
3.17806
  30
0
  11
5.15326
  21
3.16018
  31
0
  0
LINE
  8
0
  10
5.15326
  20
3.16018
  30
0
  11
5.14468
  21
3.15165
  31
0
  0
LINE
  8
0
  10
5.14468
  20
3.15165
  30
0
  11
5.13651
  21
3.1403
  31
0
  0
LINE
  8
0
  10
5.13651
  20
3.1403
  30
0
  11
5.13064
  21
3.11309
  31
0
  0
LINE
  8
0
  10
5.13064
  20
3.11309
  30
0
  11
5.14092
  21
3.03171
  31
0
  0
LINE
  8
0
  10
5.14092
  20
3.03171
  30
0
  11
5.15337
  21
3.00681
  31
0
  0
LINE
  8
0
  10
5.15337
  20
3.00681
  30
0
  11
5.16411
  21
2.99785
  31
0
  0
LINE
  8
0
  10
5.16411
  20
2.99785
  30
0
  11
5.17454
  21
2.99173
  31
0
  0
LINE
  8
0
  10
5.17454
  20
2.99173
  30
0
  11
5.19542
  21
2.97862
  31
0
  0
LINE
  8
0
  10
5.19542
  20
2.97862
  30
0
  11
5.21521
  21
2.97792
  31
0
  0
LINE
  8
0
  10
5.21521
  20
2.97792
  30
0
  11
5.23509
  21
2.97609
  31
0
  0
LINE
  8
0
  10
5.23509
  20
2.97609
  30
0
  11
5.27502
  21
2.97
  31
0
  0
LINE
  8
0
  10
5.27502
  20
2.97
  30
0
  11
5.31512
  21
2.96125
  31
0
  0
LINE
  8
0
  10
5.31512
  20
2.96125
  30
0
  11
5.35532
  21
2.95025
  31
0
  0
LINE
  8
0
  10
5.35532
  20
2.95025
  30
0
  11
5.39557
  21
2.93719
  31
0
  0
LINE
  8
0
  10
5.39557
  20
2.93719
  30
0
  11
5.43584
  21
2.92224
  31
0
  0
LINE
  8
0
  10
5.43584
  20
2.92224
  30
0
  11
5.47608
  21
2.90548
  31
0
  0
LINE
  8
0
  10
5.47608
  20
2.90548
  30
0
  11
5.51627
  21
2.887
  31
0
  0
LINE
  8
0
  10
5.51627
  20
2.887
  30
0
  11
5.54635
  21
2.87205
  31
0
  0
LINE
  8
0
  10
5.54635
  20
2.87205
  30
0
  11
5.54799
  21
2.75072
  31
0
  0
LINE
  8
0
  10
5.54799
  20
2.75072
  30
0
  11
5.51832
  21
2.73496
  31
0
  0
LINE
  8
0
  10
5.51832
  20
2.73496
  30
0
  11
5.47864
  21
2.7154
  31
0
  0
LINE
  8
0
  10
5.47864
  20
2.7154
  30
0
  11
5.43886
  21
2.69757
  31
0
  0
LINE
  8
0
  10
5.43886
  20
2.69757
  30
0
  11
5.39901
  21
2.68154
  31
0
  0
LINE
  8
0
  10
5.39901
  20
2.68154
  30
0
  11
5.35913
  21
2.6674
  31
0
  0
LINE
  8
0
  10
5.35913
  20
2.6674
  30
0
  11
5.31924
  21
2.65532
  31
0
  0
LINE
  8
0
  10
5.31924
  20
2.65532
  30
0
  11
5.27939
  21
2.6455
  31
0
  0
LINE
  8
0
  10
5.27939
  20
2.6455
  30
0
  11
5.23964
  21
2.63833
  31
0
  0
LINE
  8
0
  10
5.23964
  20
2.63833
  30
0
  11
5.21982
  21
2.63596
  31
0
  0
LINE
  8
0
  10
5.21982
  20
2.63596
  30
0
  11
5.20005
  21
2.63473
  31
0
  0
LINE
  8
0
  10
5.20005
  20
2.63473
  30
0
  11
5.17953
  21
2.62107
  31
0
  0
LINE
  8
0
  10
5.17953
  20
2.62107
  30
0
  11
5.16927
  21
2.61467
  31
0
  0
LINE
  8
0
  10
5.16927
  20
2.61467
  30
0
  11
5.15878
  21
2.60542
  31
0
  0
LINE
  8
0
  10
5.15878
  20
2.60542
  30
0
  11
5.147
  21
2.5802
  31
0
  0
LINE
  8
0
  10
5.147
  20
2.5802
  30
0
  11
5.13891
  21
2.49857
  31
0
  0
LINE
  8
0
  10
3.87404
  20
2.77404
  30
0
  11
3.87404
  21
2.77404
  31
0
  0
LINE
  8
0
  10
3.87404
  20
2.77404
  30
0
  11
3.83656
  21
3.05874
  31
0
  0
LINE
  8
0
  10
3.83656
  20
3.05874
  30
0
  11
3.72667
  21
3.32404
  31
0
  0
LINE
  8
0
  10
3.72667
  20
3.32404
  30
0
  11
3.55186
  21
3.55186
  31
0
  0
LINE
  8
0
  10
3.55186
  20
3.55186
  30
0
  11
3.32404
  21
3.72667
  31
0
  0
LINE
  8
0
  10
3.32404
  20
3.72667
  30
0
  11
3.05874
  21
3.83656
  31
0
  0
LINE
  8
0
  10
3.05874
  20
3.83656
  30
0
  11
2.77404
  21
3.87404
  31
0
  0
LINE
  8
0
  10
2.77404
  20
3.87404
  30
0
  11
2.48934
  21
3.83656
  31
0
  0
LINE
  8
0
  10
2.48934
  20
3.83656
  30
0
  11
2.22404
  21
3.72667
  31
0
  0
LINE
  8
0
  10
2.22404
  20
3.72667
  30
0
  11
1.99623
  21
3.55186
  31
0
  0
LINE
  8
0
  10
1.99623
  20
3.55186
  30
0
  11
1.82141
  21
3.32404
  31
0
  0
LINE
  8
0
  10
1.82141
  20
3.32404
  30
0
  11
1.71152
  21
3.05874
  31
0
  0
LINE
  8
0
  10
1.71152
  20
3.05874
  30
0
  11
1.67404
  21
2.77404
  31
0
  0
LINE
  8
0
  10
1.67404
  20
2.77404
  30
0
  11
1.71152
  21
2.48934
  31
0
  0
LINE
  8
0
  10
1.71152
  20
2.48934
  30
0
  11
1.82141
  21
2.22404
  31
0
  0
LINE
  8
0
  10
1.82141
  20
2.22404
  30
0
  11
1.99623
  21
1.99623
  31
0
  0
LINE
  8
0
  10
1.99623
  20
1.99623
  30
0
  11
2.22404
  21
1.82141
  31
0
  0
LINE
  8
0
  10
2.22404
  20
1.82141
  30
0
  11
2.48934
  21
1.71152
  31
0
  0
LINE
  8
0
  10
2.48934
  20
1.71152
  30
0
  11
2.77404
  21
1.67404
  31
0
  0
LINE
  8
0
  10
2.77404
  20
1.67404
  30
0
  11
3.05874
  21
1.71152
  31
0
  0
LINE
  8
0
  10
3.05874
  20
1.71152
  30
0
  11
3.32404
  21
1.82141
  31
0
  0
LINE
  8
0
  10
3.32404
  20
1.82141
  30
0
  11
3.55186
  21
1.99623
  31
0
  0
LINE
  8
0
  10
3.55186
  20
1.99623
  30
0
  11
3.72667
  21
2.22404
  31
0
  0
LINE
  8
0
  10
3.72667
  20
2.22404
  30
0
  11
3.83656
  21
2.48934
  31
0
  0
LINE
  8
0
  10
3.83656
  20
2.48934
  30
0
  11
3.87404
  21
2.77404
  31
0
  0
LINE
  8
0
  10
3.87404
  20
2.77404
  30
0
  11
3.87404
  21
2.77404
  31
0
  0
LINE
  8
0
  10
1.84936
  20
2.77404
  30
0
  11
3.69872
  21
2.77404
  31
0
  0
LINE
  8
0
  10
2.77404
  20
1.84936
  30
0
  11
2.77404
  21
3.69872
  31
0
  0
LINE
  8
0
  10
6.13409
  20
2.37085
  30
0
  11
6.13409
  21
2.37085
  31
0
  0
LINE
  8
0
  10
6.13409
  20
2.37085
  30
0
  11
6.12036
  21
2.38823
  31
0
  0
LINE
  8
0
  10
6.12036
  20
2.38823
  30
0
  11
6.11137
  21
2.39361
  31
0
  0
LINE
  8
0
  10
6.11137
  20
2.39361
  30
0
  11
6.10321
  21
2.3969
  31
0
  0
LINE
  8
0
  10
6.10321
  20
2.3969
  30
0
  11
6.09548
  21
2.39904
  31
0
  0
LINE
  8
0
  10
6.09548
  20
2.39904
  30
0
  11
6.08804
  21
2.40041
  31
0
  0
LINE
  8
0
  10
6.08804
  20
2.40041
  30
0
  11
6.07375
  21
2.40157
  31
0
  0
LINE
  8
0
  10
6.07375
  20
2.40157
  30
0
  11
6.06002
  21
2.4012
  31
0
  0
LINE
  8
0
  10
6.06002
  20
2.4012
  30
0
  11
6.04668
  21
2.39971
  31
0
  0
LINE
  8
0
  10
6.04668
  20
2.39971
  30
0
  11
6.03366
  21
2.39731
  31
0
  0
LINE
  8
0
  10
6.03366
  20
2.39731
  30
0
  11
6.00836
  21
2.3903
  31
0
  0
LINE
  8
0
  10
6.00836
  20
2.3903
  30
0
  11
5.98283
  21
2.38397
  31
0
  0
LINE
  8
0
  10
5.98283
  20
2.38397
  30
0
  11
5.95607
  21
2.38141
  31
0
  0
LINE
  8
0
  10
5.95607
  20
2.38141
  30
0
  11
5.9286
  21
2.38109
  31
0
  0
LINE
  8
0
  10
5.9286
  20
2.38109
  30
0
  11
5.90061
  21
2.38262
  31
0
  0
LINE
  8
0
  10
5.90061
  20
2.38262
  30
0
  11
5.87219
  21
2.38582
  31
0
  0
LINE
  8
0
  10
5.87219
  20
2.38582
  30
0
  11
5.84342
  21
2.39057
  31
0
  0
LINE
  8
0
  10
5.84342
  20
2.39057
  30
0
  11
5.81434
  21
2.39681
  31
0
  0
LINE
  8
0
  10
5.81434
  20
2.39681
  30
0
  11
5.78502
  21
2.40447
  31
0
  0
LINE
  8
0
  10
5.78502
  20
2.40447
  30
0
  11
5.75551
  21
2.41353
  31
0
  0
LINE
  8
0
  10
5.75551
  20
2.41353
  30
0
  11
5.72585
  21
2.42395
  31
0
  0
LINE
  8
0
  10
5.72585
  20
2.42395
  30
0
  11
5.70353
  21
2.43264
  31
0
  0
LINE
  8
0
  10
5.70353
  20
2.43264
  30
0
  11
5.68345
  21
2.53298
  31
0
  0
LINE
  8
0
  10
5.68345
  20
2.53298
  30
0
  11
5.70071
  21
2.54959
  31
0
  0
LINE
  8
0
  10
5.70071
  20
2.54959
  30
0
  11
5.72408
  21
2.57062
  31
0
  0
LINE
  8
0
  10
5.72408
  20
2.57062
  30
0
  11
5.74784
  21
2.59033
  31
0
  0
LINE
  8
0
  10
5.74784
  20
2.59033
  30
0
  11
5.77195
  21
2.60869
  31
0
  0
LINE
  8
0
  10
5.77195
  20
2.60869
  30
0
  11
5.79639
  21
2.62563
  31
0
  0
LINE
  8
0
  10
5.79639
  20
2.62563
  30
0
  11
5.82112
  21
2.64109
  31
0
  0
LINE
  8
0
  10
5.82112
  20
2.64109
  30
0
  11
5.84612
  21
2.65498
  31
0
  0
LINE
  8
0
  10
5.84612
  20
2.65498
  30
0
  11
5.87137
  21
2.66716
  31
0
  0
LINE
  8
0
  10
5.87137
  20
2.66716
  30
0
  11
5.89684
  21
2.67743
  31
0
  0
LINE
  8
0
  10
5.89684
  20
2.67743
  30
0
  11
5.92253
  21
2.68537
  31
0
  0
LINE
  8
0
  10
5.92253
  20
2.68537
  30
0
  11
5.94853
  21
2.68934
  31
0
  0
LINE
  8
0
  10
5.94853
  20
2.68934
  30
0
  11
5.97457
  21
2.69261
  31
0
  0
LINE
  8
0
  10
5.97457
  20
2.69261
  30
0
  11
5.98752
  21
2.69541
  31
0
  0
LINE
  8
0
  10
5.98752
  20
2.69541
  30
0
  11
6.0004
  21
2.69916
  31
0
  0
LINE
  8
0
  10
6.0004
  20
2.69916
  30
0
  11
6.01322
  21
2.7041
  31
0
  0
LINE
  8
0
  10
6.01322
  20
2.7041
  30
0
  11
6.02596
  21
2.71067
  31
0
  0
LINE
  8
0
  10
6.02596
  20
2.71067
  30
0
  11
6.0323
  21
2.7148
  31
0
  0
LINE
  8
0
  10
6.0323
  20
2.7148
  30
0
  11
6.03861
  21
2.71975
  31
0
  0
LINE
  8
0
  10
6.03861
  20
2.71975
  30
0
  11
6.04489
  21
2.72592
  31
0
  0
LINE
  8
0
  10
6.04489
  20
2.72592
  30
0
  11
6.05111
  21
2.73435
  31
0
  0
LINE
  8
0
  10
6.05111
  20
2.73435
  30
0
  11
6.0571
  21
2.75568
  31
0
  0
LINE
  8
0
  10
6.0571
  20
2.75568
  30
0
  11
6.05734
  21
2.80345
  31
0
  0
LINE
  8
0
  10
6.05734
  20
2.80345
  30
0
  11
6.05967
  21
2.85116
  31
0
  0
LINE
  8
0
  10
6.05967
  20
2.85116
  30
0
  11
6.05484
  21
2.87278
  31
0
  0
LINE
  8
0
  10
6.05484
  20
2.87278
  30
0
  11
6.04908
  21
2.88153
  31
0
  0
LINE
  8
0
  10
6.04908
  20
2.88153
  30
0
  11
6.04314
  21
2.88804
  31
0
  0
LINE
  8
0
  10
6.04314
  20
2.88804
  30
0
  11
6.03711
  21
2.89332
  31
0
  0
LINE
  8
0
  10
6.03711
  20
2.89332
  30
0
  11
6.031
  21
2.89778
  31
0
  0
LINE
  8
0
  10
6.031
  20
2.89778
  30
0
  11
6.01863
  21
2.90502
  31
0
  0
LINE
  8
0
  10
6.01863
  20
2.90502
  30
0
  11
6.0061
  21
2.91065
  31
0
  0
LINE
  8
0
  10
6.0061
  20
2.91065
  30
0
  11
5.99344
  21
2.91509
  31
0
  0
LINE
  8
0
  10
5.99344
  20
2.91509
  30
0
  11
5.98066
  21
2.91858
  31
0
  0
LINE
  8
0
  10
5.98066
  20
2.91858
  30
0
  11
5.95483
  21
2.92325
  31
0
  0
LINE
  8
0
  10
5.95483
  20
2.92325
  30
0
  11
5.92908
  21
2.92861
  31
0
  0
LINE
  8
0
  10
5.92908
  20
2.92861
  30
0
  11
5.90386
  21
2.93792
  31
0
  0
LINE
  8
0
  10
5.90386
  20
2.93792
  30
0
  11
5.87897
  21
2.94955
  31
0
  0
LINE
  8
0
  10
5.87897
  20
2.94955
  30
0
  11
5.85442
  21
2.96307
  31
0
  0
LINE
  8
0
  10
5.85442
  20
2.96307
  30
0
  11
5.8302
  21
2.97829
  31
0
  0
LINE
  8
0
  10
5.8302
  20
2.97829
  30
0
  11
5.80634
  21
2.99506
  31
0
  0
LINE
  8
0
  10
5.80634
  20
2.99506
  30
0
  11
5.78285
  21
3.01329
  31
0
  0
LINE
  8
0
  10
5.78285
  20
3.01329
  30
0
  11
5.75976
  21
3.03291
  31
0
  0
LINE
  8
0
  10
5.75976
  20
3.03291
  30
0
  11
5.73709
  21
3.05388
  31
0
  0
LINE
  8
0
  10
5.73709
  20
3.05388
  30
0
  11
5.71489
  21
3.07613
  31
0
  0
LINE
  8
0
  10
5.71489
  20
3.07613
  30
0
  11
5.69855
  21
3.09365
  31
0
  0
LINE
  8
0
  10
5.69855
  20
3.09365
  30
0
  11
5.724
  21
3.19276
  31
0
  0
LINE
  8
0
  10
5.724
  20
3.19276
  30
0
  11
5.74676
  21
3.20024
  31
0
  0
LINE
  8
0
  10
5.74676
  20
3.20024
  30
0
  11
5.77694
  21
3.20905
  31
0
  0
LINE
  8
0
  10
5.77694
  20
3.20905
  30
0
  11
5.80689
  21
3.2165
  31
0
  0
LINE
  8
0
  10
5.80689
  20
3.2165
  30
0
  11
5.83658
  21
3.22258
  31
0
  0
LINE
  8
0
  10
5.83658
  20
3.22258
  30
0
  11
5.86595
  21
3.22724
  31
0
  0
LINE
  8
0
  10
5.86595
  20
3.22724
  30
0
  11
5.89494
  21
3.23044
  31
0
  0
LINE
  8
0
  10
5.89494
  20
3.23044
  30
0
  11
5.92349
  21
3.2321
  31
0
  0
LINE
  8
0
  10
5.92349
  20
3.2321
  30
0
  11
5.95153
  21
3.23212
  31
0
  0
LINE
  8
0
  10
5.95153
  20
3.23212
  30
0
  11
5.97893
  21
3.23032
  31
0
  0
LINE
  8
0
  10
5.97893
  20
3.23032
  30
0
  11
6.00552
  21
3.22633
  31
0
  0
LINE
  8
0
  10
6.00552
  20
3.22633
  30
0
  11
6.03067
  21
3.21863
  31
0
  0
LINE
  8
0
  10
6.03067
  20
3.21863
  30
0
  11
6.05555
  21
3.21028
  31
0
  0
LINE
  8
0
  10
6.05555
  20
3.21028
  30
0
  11
6.06843
  21
3.20718
  31
0
  0
LINE
  8
0
  10
6.06843
  20
3.20718
  30
0
  11
6.08167
  21
3.20496
  31
0
  0
LINE
  8
0
  10
6.08167
  20
3.20496
  30
0
  11
6.09536
  21
3.20386
  31
0
  0
LINE
  8
0
  10
6.09536
  20
3.20386
  30
0
  11
6.10969
  21
3.20424
  31
0
  0
LINE
  8
0
  10
6.10969
  20
3.20424
  30
0
  11
6.11719
  21
3.20522
  31
0
  0
LINE
  8
0
  10
6.11719
  20
3.20522
  30
0
  11
6.12502
  21
3.20694
  31
0
  0
LINE
  8
0
  10
6.12502
  20
3.20694
  30
0
  11
6.13336
  21
3.20978
  31
0
  0
LINE
  8
0
  10
6.13336
  20
3.20978
  30
0
  11
6.14262
  21
3.21468
  31
0
  0
LINE
  8
0
  10
6.14262
  20
3.21468
  30
0
  11
6.15727
  21
3.23129
  31
0
  0
LINE
  8
0
  10
6.15727
  20
3.23129
  30
0
  11
6.17821
  21
3.27422
  31
0
  0
LINE
  8
0
  10
6.17821
  20
3.27422
  30
0
  11
6.20102
  21
3.3162
  31
0
  0
LINE
  8
0
  10
6.20102
  20
3.3162
  30
0
  11
6.20604
  21
3.33777
  31
0
  0
LINE
  8
0
  10
6.20604
  20
3.33777
  30
0
  11
6.20465
  21
3.34816
  31
0
  0
LINE
  8
0
  10
6.20465
  20
3.34816
  30
0
  11
6.20212
  21
3.35659
  31
0
  0
LINE
  8
0
  10
6.20212
  20
3.35659
  30
0
  11
6.19898
  21
3.36397
  31
0
  0
LINE
  8
0
  10
6.19898
  20
3.36397
  30
0
  11
6.19542
  21
3.37064
  31
0
  0
LINE
  8
0
  10
6.19542
  20
3.37064
  30
0
  11
6.18741
  21
3.38253
  31
0
  0
LINE
  8
0
  10
6.18741
  20
3.38253
  30
0
  11
6.17856
  21
3.39304
  31
0
  0
LINE
  8
0
  10
6.17856
  20
3.39304
  30
0
  11
6.16908
  21
3.40254
  31
0
  0
LINE
  8
0
  10
6.16908
  20
3.40254
  30
0
  11
6.15908
  21
3.41122
  31
0
  0
LINE
  8
0
  10
6.15908
  20
3.41122
  30
0
  11
6.13783
  21
3.42664
  31
0
  0
LINE
  8
0
  10
6.13783
  20
3.42664
  30
0
  11
6.11697
  21
3.44264
  31
0
  0
LINE
  8
0
  10
6.11697
  20
3.44264
  30
0
  11
6.09828
  21
3.46198
  31
0
  0
LINE
  8
0
  10
6.09828
  20
3.46198
  30
0
  11
6.0809
  21
3.48325
  31
0
  0
LINE
  8
0
  10
6.0809
  20
3.48325
  30
0
  11
6.06465
  21
3.50608
  31
0
  0
LINE
  8
0
  10
6.06465
  20
3.50608
  30
0
  11
6.04943
  21
3.5303
  31
0
  0
LINE
  8
0
  10
6.04943
  20
3.5303
  30
0
  11
6.0352
  21
3.55576
  31
0
  0
LINE
  8
0
  10
6.0352
  20
3.55576
  30
0
  11
6.02195
  21
3.58238
  31
0
  0
LINE
  8
0
  10
6.02195
  20
3.58238
  30
0
  11
6.00966
  21
3.61008
  31
0
  0
LINE
  8
0
  10
6.00966
  20
3.61008
  30
0
  11
5.99834
  21
3.6388
  31
0
  0
LINE
  8
0
  10
5.99834
  20
3.6388
  30
0
  11
5.98799
  21
3.66849
  31
0
  0
LINE
  8
0
  10
5.98799
  20
3.66849
  30
0
  11
5.98087
  21
3.69136
  31
0
  0
LINE
  8
0
  10
5.98087
  20
3.69136
  30
0
  11
6.04681
  21
3.76961
  31
0
  0
LINE
  8
0
  10
6.04681
  20
3.76961
  30
0
  11
6.07055
  21
3.76648
  31
0
  0
LINE
  8
0
  10
6.07055
  20
3.76648
  30
0
  11
6.10156
  21
3.76132
  31
0
  0
LINE
  8
0
  10
6.10156
  20
3.76132
  30
0
  11
6.13179
  21
3.75504
  31
0
  0
LINE
  8
0
  10
6.13179
  20
3.75504
  30
0
  11
6.16117
  21
3.74763
  31
0
  0
LINE
  8
0
  10
6.16117
  20
3.74763
  30
0
  11
6.18965
  21
3.73909
  31
0
  0
LINE
  8
0
  10
6.18965
  20
3.73909
  30
0
  11
6.21716
  21
3.72939
  31
0
  0
LINE
  8
0
  10
6.21716
  20
3.72939
  30
0
  11
6.24361
  21
3.7185
  31
0
  0
LINE
  8
0
  10
6.24361
  20
3.7185
  30
0
  11
6.26887
  21
3.70636
  31
0
  0
LINE
  8
0
  10
6.26887
  20
3.70636
  30
0
  11
6.29278
  21
3.69284
  31
0
  0
LINE
  8
0
  10
6.29278
  20
3.69284
  30
0
  11
6.31501
  21
3.67771
  31
0
  0
LINE
  8
0
  10
6.31501
  20
3.67771
  30
0
  11
6.33432
  21
3.65986
  31
0
  0
LINE
  8
0
  10
6.33432
  20
3.65986
  30
0
  11
6.35312
  21
3.64154
  31
0
  0
LINE
  8
0
  10
6.35312
  20
3.64154
  30
0
  11
6.36338
  21
3.63316
  31
0
  0
LINE
  8
0
  10
6.36338
  20
3.63316
  30
0
  11
6.37434
  21
3.62542
  31
0
  0
LINE
  8
0
  10
6.37434
  20
3.62542
  30
0
  11
6.3862
  21
3.61848
  31
0
  0
LINE
  8
0
  10
6.3862
  20
3.61848
  30
0
  11
6.39928
  21
3.61261
  31
0
  0
LINE
  8
0
  10
6.39928
  20
3.61261
  30
0
  11
6.40646
  21
3.61024
  31
0
  0
LINE
  8
0
  10
6.40646
  20
3.61024
  30
0
  11
6.41426
  21
3.60839
  31
0
  0
LINE
  8
0
  10
6.41426
  20
3.60839
  30
0
  11
6.423
  21
3.60733
  31
0
  0
LINE
  8
0
  10
6.423
  20
3.60733
  30
0
  11
6.43347
  21
3.60773
  31
0
  0
LINE
  8
0
  10
6.43347
  20
3.60773
  30
0
  11
6.45388
  21
3.61634
  31
0
  0
LINE
  8
0
  10
6.45388
  20
3.61634
  30
0
  11
6.49138
  21
3.64593
  31
0
  0
LINE
  8
0
  10
6.49138
  20
3.64593
  30
0
  11
6.53014
  21
3.67386
  31
0
  0
LINE
  8
0
  10
6.53014
  20
3.67386
  30
0
  11
6.54402
  21
3.69112
  31
0
  0
LINE
  8
0
  10
6.54402
  20
3.69112
  30
0
  11
6.54728
  21
3.70108
  31
0
  0
LINE
  8
0
  10
6.54728
  20
3.70108
  30
0
  11
6.54866
  21
3.70977
  31
0
  0
LINE
  8
0
  10
6.54866
  20
3.70977
  30
0
  11
6.54903
  21
3.71778
  31
0
  0
LINE
  8
0
  10
6.54903
  20
3.71778
  30
0
  11
6.54871
  21
3.72534
  31
0
  0
LINE
  8
0
  10
6.54871
  20
3.72534
  30
0
  11
6.54666
  21
3.73952
  31
0
  0
LINE
  8
0
  10
6.54666
  20
3.73952
  30
0
  11
6.54325
  21
3.75283
  31
0
  0
LINE
  8
0
  10
6.54325
  20
3.75283
  30
0
  11
6.53882
  21
3.7655
  31
0
  0
LINE
  8
0
  10
6.53882
  20
3.7655
  30
0
  11
6.53358
  21
3.77767
  31
0
  0
LINE
  8
0
  10
6.53358
  20
3.77767
  30
0
  11
6.52113
  21
3.80077
  31
0
  0
LINE
  8
0
  10
6.52113
  20
3.80077
  30
0
  11
6.50927
  21
3.82425
  31
0
  0
LINE
  8
0
  10
6.50927
  20
3.82425
  30
0
  11
6.50082
  21
3.84978
  31
0
  0
LINE
  8
0
  10
6.50082
  20
3.84978
  30
0
  11
6.4944
  21
3.87648
  31
0
  0
LINE
  8
0
  10
6.4944
  20
3.87648
  30
0
  11
6.48966
  21
3.90411
  31
0
  0
LINE
  8
0
  10
6.48966
  20
3.90411
  30
0
  11
6.48646
  21
3.93253
  31
0
  0
LINE
  8
0
  10
6.48646
  20
3.93253
  30
0
  11
6.48469
  21
3.96164
  31
0
  0
LINE
  8
0
  10
6.48469
  20
3.96164
  30
0
  11
6.4843
  21
3.99137
  31
0
  0
LINE
  8
0
  10
6.4843
  20
3.99137
  30
0
  11
6.48524
  21
4.02166
  31
0
  0
LINE
  8
0
  10
6.48524
  20
4.02166
  30
0
  11
6.4875
  21
4.05245
  31
0
  0
LINE
  8
0
  10
6.4875
  20
4.05245
  30
0
  11
6.49106
  21
4.08369
  31
0
  0
LINE
  8
0
  10
6.49106
  20
4.08369
  30
0
  11
6.49457
  21
4.10738
  31
0
  0
LINE
  8
0
  10
6.49457
  20
4.10738
  30
0
  11
6.58793
  21
4.14928
  31
0
  0
LINE
  8
0
  10
6.58793
  20
4.14928
  30
0
  11
6.60796
  21
4.13615
  31
0
  0
LINE
  8
0
  10
6.60796
  20
4.13615
  30
0
  11
6.63366
  21
4.11805
  31
0
  0
LINE
  8
0
  10
6.63366
  20
4.11805
  30
0
  11
6.65817
  21
4.09927
  31
0
  0
LINE
  8
0
  10
6.65817
  20
4.09927
  30
0
  11
6.68143
  21
4.07985
  31
0
  0
LINE
  8
0
  10
6.68143
  20
4.07985
  30
0
  11
6.70338
  21
4.05979
  31
0
  0
LINE
  8
0
  10
6.70338
  20
4.05979
  30
0
  11
6.72396
  21
4.03912
  31
0
  0
LINE
  8
0
  10
6.72396
  20
4.03912
  30
0
  11
6.74306
  21
4.01784
  31
0
  0
LINE
  8
0
  10
6.74306
  20
4.01784
  30
0
  11
6.76056
  21
3.99593
  31
0
  0
LINE
  8
0
  10
6.76056
  20
3.99593
  30
0
  11
6.77624
  21
3.97339
  31
0
  0
LINE
  8
0
  10
6.77624
  20
3.97339
  30
0
  11
6.78969
  21
3.95011
  31
0
  0
LINE
  8
0
  10
6.78969
  20
3.95011
  30
0
  11
6.79935
  21
3.92565
  31
0
  0
LINE
  8
0
  10
6.79935
  20
3.92565
  30
0
  11
6.80834
  21
3.90098
  31
0
  0
LINE
  8
0
  10
6.80834
  20
3.90098
  30
0
  11
6.81394
  21
3.88898
  31
0
  0
LINE
  8
0
  10
6.81394
  20
3.88898
  30
0
  11
6.82047
  21
3.87725
  31
0
  0
LINE
  8
0
  10
6.82047
  20
3.87725
  30
0
  11
6.82814
  21
3.86586
  31
0
  0
LINE
  8
0
  10
6.82814
  20
3.86586
  30
0
  11
6.83738
  21
3.8549
  31
0
  0
LINE
  8
0
  10
6.83738
  20
3.8549
  30
0
  11
6.84281
  21
3.84964
  31
0
  0
LINE
  8
0
  10
6.84281
  20
3.84964
  30
0
  11
6.84904
  21
3.84459
  31
0
  0
LINE
  8
0
  10
6.84904
  20
3.84459
  30
0
  11
6.85646
  21
3.83984
  31
0
  0
LINE
  8
0
  10
6.85646
  20
3.83984
  30
0
  11
6.86606
  21
3.83565
  31
0
  0
LINE
  8
0
  10
6.86606
  20
3.83565
  30
0
  11
6.88819
  21
3.83456
  31
0
  0
LINE
  8
0
  10
6.88819
  20
3.83456
  30
0
  11
6.93481
  21
3.84495
  31
0
  0
LINE
  8
0
  10
6.93481
  20
3.84495
  30
0
  11
6.98185
  21
3.8533
  31
0
  0
LINE
  8
0
  10
6.98185
  20
3.8533
  30
0
  11
7.00185
  21
3.86282
  31
0
  0
LINE
  8
0
  10
7.00185
  20
3.86282
  30
0
  11
7.0091
  21
3.87038
  31
0
  0
LINE
  8
0
  10
7.0091
  20
3.87038
  30
0
  11
7.01412
  21
3.87762
  31
0
  0
LINE
  8
0
  10
7.01412
  20
3.87762
  30
0
  11
7.01793
  21
3.88467
  31
0
  0
LINE
  8
0
  10
7.01793
  20
3.88467
  30
0
  11
7.02092
  21
3.89162
  31
0
  0
LINE
  8
0
  10
7.02092
  20
3.89162
  30
0
  11
7.02523
  21
3.90529
  31
0
  0
LINE
  8
0
  10
7.02523
  20
3.90529
  30
0
  11
7.02793
  21
3.91876
  31
0
  0
LINE
  8
0
  10
7.02793
  20
3.91876
  30
0
  11
7.02944
  21
3.9321
  31
0
  0
LINE
  8
0
  10
7.02944
  20
3.9321
  30
0
  11
7.02999
  21
3.94533
  31
0
  0
LINE
  8
0
  10
7.02999
  20
3.94533
  30
0
  11
7.02879
  21
3.97155
  31
0
  0
LINE
  8
0
  10
7.02879
  20
3.97155
  30
0
  11
7.0283
  21
3.99785
  31
0
  0
LINE
  8
0
  10
7.0283
  20
3.99785
  30
0
  11
7.03176
  21
4.02451
  31
0
  0
LINE
  8
0
  10
7.03176
  20
4.02451
  30
0
  11
7.03756
  21
4.05136
  31
0
  0
LINE
  8
0
  10
7.03756
  20
4.05136
  30
0
  11
7.04528
  21
4.0783
  31
0
  0
LINE
  8
0
  10
7.04528
  20
4.0783
  30
0
  11
7.05472
  21
4.1053
  31
0
  0
LINE
  8
0
  10
7.05472
  20
4.1053
  30
0
  11
7.06576
  21
4.1323
  31
0
  0
LINE
  8
0
  10
7.06576
  20
4.1323
  30
0
  11
7.07831
  21
4.15926
  31
0
  0
LINE
  8
0
  10
7.07831
  20
4.15926
  30
0
  11
7.0923
  21
4.18614
  31
0
  0
LINE
  8
0
  10
7.0923
  20
4.18614
  30
0
  11
7.1077
  21
4.21289
  31
0
  0
LINE
  8
0
  10
7.1077
  20
4.21289
  30
0
  11
7.12446
  21
4.23949
  31
0
  0
LINE
  8
0
  10
7.12446
  20
4.23949
  30
0
  11
7.1379
  21
4.25932
  31
0
  0
LINE
  8
0
  10
7.1379
  20
4.25932
  30
0
  11
7.24019
  21
4.25656
  31
0
  0
LINE
  8
0
  10
7.24019
  20
4.25656
  30
0
  11
7.25255
  21
4.23604
  31
0
  0
LINE
  8
0
  10
7.25255
  20
4.23604
  30
0
  11
7.26785
  21
4.20858
  31
0
  0
LINE
  8
0
  10
7.26785
  20
4.20858
  30
0
  11
7.28178
  21
4.18103
  31
0
  0
LINE
  8
0
  10
7.28178
  20
4.18103
  30
0
  11
7.29431
  21
4.15344
  31
0
  0
LINE
  8
0
  10
7.29431
  20
4.15344
  30
0
  11
7.30539
  21
4.12584
  31
0
  0
LINE
  8
0
  10
7.30539
  20
4.12584
  30
0
  11
7.31496
  21
4.09829
  31
0
  0
LINE
  8
0
  10
7.31496
  20
4.09829
  30
0
  11
7.32293
  21
4.07083
  31
0
  0
LINE
  8
0
  10
7.32293
  20
4.07083
  30
0
  11
7.32919
  21
4.0435
  31
0
  0
LINE
  8
0
  10
7.32919
  20
4.0435
  30
0
  11
7.33354
  21
4.01638
  31
0
  0
LINE
  8
0
  10
7.33354
  20
4.01638
  30
0
  11
7.33556
  21
3.98957
  31
0
  0
LINE
  8
0
  10
7.33556
  20
3.98957
  30
0
  11
7.33365
  21
3.96334
  31
0
  0
LINE
  8
0
  10
7.33365
  20
3.96334
  30
0
  11
7.33104
  21
3.93722
  31
0
  0
LINE
  8
0
  10
7.33104
  20
3.93722
  30
0
  11
7.33088
  21
3.92398
  31
0
  0
LINE
  8
0
  10
7.33088
  20
3.92398
  30
0
  11
7.33167
  21
3.91058
  31
0
  0
LINE
  8
0
  10
7.33167
  20
3.91058
  30
0
  11
7.33364
  21
3.89698
  31
0
  0
LINE
  8
0
  10
7.33364
  20
3.89698
  30
0
  11
7.33721
  21
3.8831
  31
0
  0
LINE
  8
0
  10
7.33721
  20
3.8831
  30
0
  11
7.33983
  21
3.876
  31
0
  0
LINE
  8
0
  10
7.33983
  20
3.876
  30
0
  11
7.34325
  21
3.86875
  31
0
  0
LINE
  8
0
  10
7.34325
  20
3.86875
  30
0
  11
7.34787
  21
3.86126
  31
0
  0
LINE
  8
0
  10
7.34787
  20
3.86126
  30
0
  11
7.35471
  21
3.85332
  31
0
  0
LINE
  8
0
  10
7.35471
  20
3.85332
  30
0
  11
7.37416
  21
3.84273
  31
0
  0
LINE
  8
0
  10
7.37416
  20
3.84273
  30
0
  11
7.42068
  21
3.83187
  31
0
  0
LINE
  8
0
  10
7.42068
  20
3.83187
  30
0
  11
7.46668
  21
3.81898
  31
0
  0
LINE
  8
0
  10
7.46668
  20
3.81898
  30
0
  11
7.48883
  21
3.81888
  31
0
  0
LINE
  8
0
  10
7.48883
  20
3.81888
  30
0
  11
7.49865
  21
3.82255
  31
0
  0
LINE
  8
0
  10
7.49865
  20
3.82255
  30
0
  11
7.50631
  21
3.82688
  31
0
  0
LINE
  8
0
  10
7.50631
  20
3.82688
  30
0
  11
7.5128
  21
3.83159
  31
0
  0
LINE
  8
0
  10
7.5128
  20
3.83159
  30
0
  11
7.51851
  21
3.83655
  31
0
  0
LINE
  8
0
  10
7.51851
  20
3.83655
  30
0
  11
7.52832
  21
3.847
  31
0
  0
LINE
  8
0
  10
7.52832
  20
3.847
  30
0
  11
7.5366
  21
3.85796
  31
0
  0
LINE
  8
0
  10
7.5366
  20
3.85796
  30
0
  11
7.54374
  21
3.86932
  31
0
  0
LINE
  8
0
  10
7.54374
  20
3.86932
  30
0
  11
7.54999
  21
3.881
  31
0
  0
LINE
  8
0
  10
7.54999
  20
3.881
  30
0
  11
7.56029
  21
3.90515
  31
0
  0
LINE
  8
0
  10
7.56029
  20
3.90515
  30
0
  11
7.57125
  21
3.92906
  31
0
  0
LINE
  8
0
  10
7.57125
  20
3.92906
  30
0
  11
7.58594
  21
3.95158
  31
0
  0
LINE
  8
0
  10
7.58594
  20
3.95158
  30
0
  11
7.60281
  21
3.97325
  31
0
  0
LINE
  8
0
  10
7.60281
  20
3.97325
  30
0
  11
7.62146
  21
3.99418
  31
0
  0
LINE
  8
0
  10
7.62146
  20
3.99418
  30
0
  11
7.64168
  21
4.0144
  31
0
  0
LINE
  8
0
  10
7.64168
  20
4.0144
  30
0
  11
7.66334
  21
4.03394
  31
0
  0
LINE
  8
0
  10
7.66334
  20
4.03394
  30
0
  11
7.68634
  21
4.05278
  31
0
  0
LINE
  8
0
  10
7.68634
  20
4.05278
  30
0
  11
7.71061
  21
4.07093
  31
0
  0
LINE
  8
0
  10
7.71061
  20
4.07093
  30
0
  11
7.73609
  21
4.08836
  31
0
  0
LINE
  8
0
  10
7.73609
  20
4.08836
  30
0
  11
7.76273
  21
4.10505
  31
0
  0
LINE
  8
0
  10
7.76273
  20
4.10505
  30
0
  11
7.78344
  21
4.11708
  31
0
  0
LINE
  8
0
  10
7.78344
  20
4.11708
  30
0
  11
7.87441
  21
4.07021
  31
0
  0
LINE
  8
0
  10
7.87441
  20
4.07021
  30
0
  11
7.87664
  21
4.04637
  31
0
  0
LINE
  8
0
  10
7.87664
  20
4.04637
  30
0
  11
7.87851
  21
4.01498
  31
0
  0
LINE
  8
0
  10
7.87851
  20
4.01498
  30
0
  11
7.87911
  21
3.98412
  31
0
  0
LINE
  8
0
  10
7.87911
  20
3.98412
  30
0
  11
7.87843
  21
3.95382
  31
0
  0
LINE
  8
0
  10
7.87843
  20
3.95382
  30
0
  11
7.87643
  21
3.92415
  31
0
  0
LINE
  8
0
  10
7.87643
  20
3.92415
  30
0
  11
7.8731
  21
3.89518
  31
0
  0
LINE
  8
0
  10
7.8731
  20
3.89518
  30
0
  11
7.86837
  21
3.86697
  31
0
  0
LINE
  8
0
  10
7.86837
  20
3.86697
  30
0
  11
7.86215
  21
3.83964
  31
0
  0
LINE
  8
0
  10
7.86215
  20
3.83964
  30
0
  11
7.8543
  21
3.81332
  31
0
  0
LINE
  8
0
  10
7.8543
  20
3.81332
  30
0
  11
7.84449
  21
3.78828
  31
0
  0
LINE
  8
0
  10
7.84449
  20
3.78828
  30
0
  11
7.83139
  21
3.76548
  31
0
  0
LINE
  8
0
  10
7.83139
  20
3.76548
  30
0
  11
7.81771
  21
3.74308
  31
0
  0
LINE
  8
0
  10
7.81771
  20
3.74308
  30
0
  11
7.81182
  21
3.73122
  31
0
  0
LINE
  8
0
  10
7.81182
  20
3.73122
  30
0
  11
7.80672
  21
3.7188
  31
0
  0
LINE
  8
0
  10
7.80672
  20
3.7188
  30
0
  11
7.80259
  21
3.7057
  31
0
  0
LINE
  8
0
  10
7.80259
  20
3.7057
  30
0
  11
7.79978
  21
3.69164
  31
0
  0
LINE
  8
0
  10
7.79978
  20
3.69164
  30
0
  11
7.79906
  21
3.68411
  31
0
  0
LINE
  8
0
  10
7.79906
  20
3.68411
  30
0
  11
7.79899
  21
3.67609
  31
0
  0
LINE
  8
0
  10
7.79899
  20
3.67609
  30
0
  11
7.79991
  21
3.66734
  31
0
  0
LINE
  8
0
  10
7.79991
  20
3.66734
  30
0
  11
7.80262
  21
3.65722
  31
0
  0
LINE
  8
0
  10
7.80262
  20
3.65722
  30
0
  11
7.81556
  21
3.63924
  31
0
  0
LINE
  8
0
  10
7.81556
  20
3.63924
  30
0
  11
7.85276
  21
3.60926
  31
0
  0
LINE
  8
0
  10
7.85276
  20
3.60926
  30
0
  11
7.88861
  21
3.57769
  31
0
  0
LINE
  8
0
  10
7.88861
  20
3.57769
  30
0
  11
7.90852
  21
3.568
  31
0
  0
LINE
  8
0
  10
7.90852
  20
3.568
  30
0
  11
7.91896
  21
3.56704
  31
0
  0
LINE
  8
0
  10
7.91896
  20
3.56704
  30
0
  11
7.92774
  21
3.56762
  31
0
  0
LINE
  8
0
  10
7.92774
  20
3.56762
  30
0
  11
7.93563
  21
3.56905
  31
0
  0
LINE
  8
0
  10
7.93563
  20
3.56905
  30
0
  11
7.94293
  21
3.57104
  31
0
  0
LINE
  8
0
  10
7.94293
  20
3.57104
  30
0
  11
7.9563
  21
3.57619
  31
0
  0
LINE
  8
0
  10
7.9563
  20
3.57619
  30
0
  11
7.96852
  21
3.58248
  31
0
  0
LINE
  8
0
  10
7.96852
  20
3.58248
  30
0
  11
7.97989
  21
3.58962
  31
0
  0
LINE
  8
0
  10
7.97989
  20
3.58962
  30
0
  11
7.99058
  21
3.59743
  31
0
  0
LINE
  8
0
  10
7.99058
  20
3.59743
  30
0
  11
8.01033
  21
3.61472
  31
0
  0
LINE
  8
0
  10
8.01033
  20
3.61472
  30
0
  11
8.03058
  21
3.6315
  31
0
  0
LINE
  8
0
  10
8.03058
  20
3.6315
  30
0
  11
8.05359
  21
3.64542
  31
0
  0
LINE
  8
0
  10
8.05359
  20
3.64542
  30
0
  11
8.07819
  21
3.65762
  31
0
  0
LINE
  8
0
  10
8.07819
  20
3.65762
  30
0
  11
8.10407
  21
3.66839
  31
0
  0
LINE
  8
0
  10
8.10407
  20
3.66839
  30
0
  11
8.13107
  21
3.67784
  31
0
  0
LINE
  8
0
  10
8.13107
  20
3.67784
  30
0
  11
8.15906
  21
3.68604
  31
0
  0
LINE
  8
0
  10
8.15906
  20
3.68604
  30
0
  11
8.18796
  21
3.69304
  31
0
  0
LINE
  8
0
  10
8.18796
  20
3.69304
  30
0
  11
8.2177
  21
3.69886
  31
0
  0
LINE
  8
0
  10
8.2177
  20
3.69886
  30
0
  11
8.24822
  21
3.7035
  31
0
  0
LINE
  8
0
  10
8.24822
  20
3.7035
  30
0
  11
8.27946
  21
3.70699
  31
0
  0
LINE
  8
0
  10
8.27946
  20
3.70699
  30
0
  11
8.30334
  21
3.70884
  31
0
  0
LINE
  8
0
  10
8.30334
  20
3.70884
  30
0
  11
8.36497
  21
3.62714
  31
0
  0
LINE
  8
0
  10
8.36497
  20
3.62714
  30
0
  11
8.35663
  21
3.60469
  31
0
  0
LINE
  8
0
  10
8.35663
  20
3.60469
  30
0
  11
8.3447
  21
3.5756
  31
0
  0
LINE
  8
0
  10
8.3447
  20
3.5756
  30
0
  11
8.33185
  21
3.54753
  31
0
  0
LINE
  8
0
  10
8.33185
  20
3.54753
  30
0
  11
8.31808
  21
3.52054
  31
0
  0
LINE
  8
0
  10
8.31808
  20
3.52054
  30
0
  11
8.30342
  21
3.49467
  31
0
  0
LINE
  8
0
  10
8.30342
  20
3.49467
  30
0
  11
8.28784
  21
3.47001
  31
0
  0
LINE
  8
0
  10
8.28784
  20
3.47001
  30
0
  11
8.27134
  21
3.44665
  31
0
  0
LINE
  8
0
  10
8.27134
  20
3.44665
  30
0
  11
8.25388
  21
3.42472
  31
0
  0
LINE
  8
0
  10
8.25388
  20
3.42472
  30
0
  11
8.23539
  21
3.40442
  31
0
  0
LINE
  8
0
  10
8.23539
  20
3.40442
  30
0
  11
8.21568
  21
3.38611
  31
0
  0
LINE
  8
0
  10
8.21568
  20
3.38611
  30
0
  11
8.19399
  21
3.37126
  31
0
  0
LINE
  8
0
  10
8.19399
  20
3.37126
  30
0
  11
8.17194
  21
3.35701
  31
0
  0
LINE
  8
0
  10
8.17194
  20
3.35701
  30
0
  11
8.16149
  21
3.34887
  31
0
  0
LINE
  8
0
  10
8.16149
  20
3.34887
  30
0
  11
8.15151
  21
3.3399
  31
0
  0
LINE
  8
0
  10
8.15151
  20
3.3399
  30
0
  11
8.1421
  21
3.32988
  31
0
  0
LINE
  8
0
  10
8.1421
  20
3.32988
  30
0
  11
8.13347
  21
3.31844
  31
0
  0
LINE
  8
0
  10
8.13347
  20
3.31844
  30
0
  11
8.12955
  21
3.31197
  31
0
  0
LINE
  8
0
  10
8.12955
  20
3.31197
  30
0
  11
8.12602
  21
3.30477
  31
0
  0
LINE
  8
0
  10
8.12602
  20
3.30477
  30
0
  11
8.12304
  21
3.29649
  31
0
  0
LINE
  8
0
  10
8.12304
  20
3.29649
  30
0
  11
8.1211
  21
3.28619
  31
0
  0
LINE
  8
0
  10
8.1211
  20
3.28619
  30
0
  11
8.12495
  21
3.26438
  31
0
  0
LINE
  8
0
  10
8.12495
  20
3.26438
  30
0
  11
8.14546
  21
3.22124
  31
0
  0
LINE
  8
0
  10
8.14546
  20
3.22124
  30
0
  11
8.16406
  21
3.17724
  31
0
  0
LINE
  8
0
  10
8.16406
  20
3.17724
  30
0
  11
8.1778
  21
3.15986
  31
0
  0
LINE
  8
0
  10
8.1778
  20
3.15986
  30
0
  11
8.18678
  21
3.15447
  31
0
  0
LINE
  8
0
  10
8.18678
  20
3.15447
  30
0
  11
8.19495
  21
3.15119
  31
0
  0
LINE
  8
0
  10
8.19495
  20
3.15119
  30
0
  11
8.20268
  21
3.14905
  31
0
  0
LINE
  8
0
  10
8.20268
  20
3.14905
  30
0
  11
8.21012
  21
3.14767
  31
0
  0
LINE
  8
0
  10
8.21012
  20
3.14767
  30
0
  11
8.2244
  21
3.14651
  31
0
  0
LINE
  8
0
  10
8.2244
  20
3.14651
  30
0
  11
8.23814
  21
3.14688
  31
0
  0
LINE
  8
0
  10
8.23814
  20
3.14688
  30
0
  11
8.25147
  21
3.14838
  31
0
  0
LINE
  8
0
  10
8.25147
  20
3.14838
  30
0
  11
8.2645
  21
3.15078
  31
0
  0
LINE
  8
0
  10
8.2645
  20
3.15078
  30
0
  11
8.2898
  21
3.15778
  31
0
  0
LINE
  8
0
  10
8.2898
  20
3.15778
  30
0
  11
8.31532
  21
3.16412
  31
0
  0
LINE
  8
0
  10
8.31532
  20
3.16412
  30
0
  11
8.34209
  21
3.16667
  31
0
  0
LINE
  8
0
  10
8.34209
  20
3.16667
  30
0
  11
8.36955
  21
3.16699
  31
0
  0
LINE
  8
0
  10
8.36955
  20
3.16699
  30
0
  11
8.39754
  21
3.16546
  31
0
  0
LINE
  8
0
  10
8.39754
  20
3.16546
  30
0
  11
8.42596
  21
3.16226
  31
0
  0
LINE
  8
0
  10
8.42596
  20
3.16226
  30
0
  11
8.45474
  21
3.15751
  31
0
  0
LINE
  8
0
  10
8.45474
  20
3.15751
  30
0
  11
8.48382
  21
3.15128
  31
0
  0
LINE
  8
0
  10
8.48382
  20
3.15128
  30
0
  11
8.51313
  21
3.14361
  31
0
  0
LINE
  8
0
  10
8.51313
  20
3.14361
  30
0
  11
8.54265
  21
3.13456
  31
0
  0
LINE
  8
0
  10
8.54265
  20
3.13456
  30
0
  11
8.57231
  21
3.12414
  31
0
  0
LINE
  8
0
  10
8.57231
  20
3.12414
  30
0
  11
8.59463
  21
3.11545
  31
0
  0
LINE
  8
0
  10
8.59463
  20
3.11545
  30
0
  11
8.6147
  21
3.0151
  31
0
  0
LINE
  8
0
  10
8.6147
  20
3.0151
  30
0
  11
8.59745
  21
2.99849
  31
0
  0
LINE
  8
0
  10
8.59745
  20
2.99849
  30
0
  11
8.57408
  21
2.97746
  31
0
  0
LINE
  8
0
  10
8.57408
  20
2.97746
  30
0
  11
8.55032
  21
2.95775
  31
0
  0
LINE
  8
0
  10
8.55032
  20
2.95775
  30
0
  11
8.52621
  21
2.9394
  31
0
  0
LINE
  8
0
  10
8.52621
  20
2.9394
  30
0
  11
8.50177
  21
2.92246
  31
0
  0
LINE
  8
0
  10
8.50177
  20
2.92246
  30
0
  11
8.47704
  21
2.907
  31
0
  0
LINE
  8
0
  10
8.47704
  20
2.907
  30
0
  11
8.45203
  21
2.89311
  31
0
  0
LINE
  8
0
  10
8.45203
  20
2.89311
  30
0
  11
8.42679
  21
2.88093
  31
0
  0
LINE
  8
0
  10
8.42679
  20
2.88093
  30
0
  11
8.40132
  21
2.87066
  31
0
  0
LINE
  8
0
  10
8.40132
  20
2.87066
  30
0
  11
8.37563
  21
2.86272
  31
0
  0
LINE
  8
0
  10
8.37563
  20
2.86272
  30
0
  11
8.34963
  21
2.85874
  31
0
  0
LINE
  8
0
  10
8.34963
  20
2.85874
  30
0
  11
8.32358
  21
2.85547
  31
0
  0
LINE
  8
0
  10
8.32358
  20
2.85547
  30
0
  11
8.31064
  21
2.85268
  31
0
  0
LINE
  8
0
  10
8.31064
  20
2.85268
  30
0
  11
8.29775
  21
2.84893
  31
0
  0
LINE
  8
0
  10
8.29775
  20
2.84893
  30
0
  11
8.28493
  21
2.84398
  31
0
  0
LINE
  8
0
  10
8.28493
  20
2.84398
  30
0
  11
8.27219
  21
2.83742
  31
0
  0
LINE
  8
0
  10
8.27219
  20
2.83742
  30
0
  11
8.26585
  21
2.83329
  31
0
  0
LINE
  8
0
  10
8.26585
  20
2.83329
  30
0
  11
8.25955
  21
2.82834
  31
0
  0
LINE
  8
0
  10
8.25955
  20
2.82834
  30
0
  11
8.25327
  21
2.82216
  31
0
  0
LINE
  8
0
  10
8.25327
  20
2.82216
  30
0
  11
8.24705
  21
2.81373
  31
0
  0
LINE
  8
0
  10
8.24705
  20
2.81373
  30
0
  11
8.24106
  21
2.79241
  31
0
  0
LINE
  8
0
  10
8.24106
  20
2.79241
  30
0
  11
8.24082
  21
2.74464
  31
0
  0
LINE
  8
0
  10
8.24082
  20
2.74464
  30
0
  11
8.23849
  21
2.69692
  31
0
  0
LINE
  8
0
  10
8.23849
  20
2.69692
  30
0
  11
8.24332
  21
2.67531
  31
0
  0
LINE
  8
0
  10
8.24332
  20
2.67531
  30
0
  11
8.24908
  21
2.66655
  31
0
  0
LINE
  8
0
  10
8.24908
  20
2.66655
  30
0
  11
8.25501
  21
2.66005
  31
0
  0
LINE
  8
0
  10
8.25501
  20
2.66005
  30
0
  11
8.26105
  21
2.65477
  31
0
  0
LINE
  8
0
  10
8.26105
  20
2.65477
  30
0
  11
8.26715
  21
2.6503
  31
0
  0
LINE
  8
0
  10
8.26715
  20
2.6503
  30
0
  11
8.27952
  21
2.64306
  31
0
  0
LINE
  8
0
  10
8.27952
  20
2.64306
  30
0
  11
8.29206
  21
2.63743
  31
0
  0
LINE
  8
0
  10
8.29206
  20
2.63743
  30
0
  11
8.30472
  21
2.63299
  31
0
  0
LINE
  8
0
  10
8.30472
  20
2.63299
  30
0
  11
8.3175
  21
2.62951
  31
0
  0
LINE
  8
0
  10
8.3175
  20
2.62951
  30
0
  11
8.34333
  21
2.62484
  31
0
  0
LINE
  8
0
  10
8.34333
  20
2.62484
  30
0
  11
8.36907
  21
2.61947
  31
0
  0
LINE
  8
0
  10
8.36907
  20
2.61947
  30
0
  11
8.3943
  21
2.61016
  31
0
  0
LINE
  8
0
  10
8.3943
  20
2.61016
  30
0
  11
8.41918
  21
2.59854
  31
0
  0
LINE
  8
0
  10
8.41918
  20
2.59854
  30
0
  11
8.44374
  21
2.58501
  31
0
  0
LINE
  8
0
  10
8.44374
  20
2.58501
  30
0
  11
8.46795
  21
2.5698
  31
0
  0
LINE
  8
0
  10
8.46795
  20
2.5698
  30
0
  11
8.49182
  21
2.55303
  31
0
  0
LINE
  8
0
  10
8.49182
  20
2.55303
  30
0
  11
8.51531
  21
2.5348
  31
0
  0
LINE
  8
0
  10
8.51531
  20
2.5348
  30
0
  11
8.5384
  21
2.51517
  31
0
  0
LINE
  8
0
  10
8.5384
  20
2.51517
  30
0
  11
8.56106
  21
2.49421
  31
0
  0
LINE
  8
0
  10
8.56106
  20
2.49421
  30
0
  11
8.58327
  21
2.47195
  31
0
  0
LINE
  8
0
  10
8.58327
  20
2.47195
  30
0
  11
8.5996
  21
2.45444
  31
0
  0
LINE
  8
0
  10
8.5996
  20
2.45444
  30
0
  11
8.57415
  21
2.35532
  31
0
  0
LINE
  8
0
  10
8.57415
  20
2.35532
  30
0
  11
8.5514
  21
2.34784
  31
0
  0
LINE
  8
0
  10
8.5514
  20
2.34784
  30
0
  11
8.52122
  21
2.33903
  31
0
  0
LINE
  8
0
  10
8.52122
  20
2.33903
  30
0
  11
8.49126
  21
2.33158
  31
0
  0
LINE
  8
0
  10
8.49126
  20
2.33158
  30
0
  11
8.46157
  21
2.32551
  31
0
  0
LINE
  8
0
  10
8.46157
  20
2.32551
  30
0
  11
8.43221
  21
2.32085
  31
0
  0
LINE
  8
0
  10
8.43221
  20
2.32085
  30
0
  11
8.40321
  21
2.31765
  31
0
  0
LINE
  8
0
  10
8.40321
  20
2.31765
  30
0
  11
8.37466
  21
2.31599
  31
0
  0
LINE
  8
0
  10
8.37466
  20
2.31599
  30
0
  11
8.34663
  21
2.31596
  31
0
  0
LINE
  8
0
  10
8.34663
  20
2.31596
  30
0
  11
8.31923
  21
2.31776
  31
0
  0
LINE
  8
0
  10
8.31923
  20
2.31776
  30
0
  11
8.29263
  21
2.32176
  31
0
  0
LINE
  8
0
  10
8.29263
  20
2.32176
  30
0
  11
8.26749
  21
2.32946
  31
0
  0
LINE
  8
0
  10
8.26749
  20
2.32946
  30
0
  11
8.2426
  21
2.33781
  31
0
  0
LINE
  8
0
  10
8.2426
  20
2.33781
  30
0
  11
8.22973
  21
2.34091
  31
0
  0
LINE
  8
0
  10
8.22973
  20
2.34091
  30
0
  11
8.21649
  21
2.34312
  31
0
  0
LINE
  8
0
  10
8.21649
  20
2.34312
  30
0
  11
8.20279
  21
2.34423
  31
0
  0
LINE
  8
0
  10
8.20279
  20
2.34423
  30
0
  11
8.18847
  21
2.34384
  31
0
  0
LINE
  8
0
  10
8.18847
  20
2.34384
  30
0
  11
8.18096
  21
2.34287
  31
0
  0
LINE
  8
0
  10
8.18096
  20
2.34287
  30
0
  11
8.17313
  21
2.34115
  31
0
  0
LINE
  8
0
  10
8.17313
  20
2.34115
  30
0
  11
8.1648
  21
2.33831
  31
0
  0
LINE
  8
0
  10
8.1648
  20
2.33831
  30
0
  11
8.15554
  21
2.33341
  31
0
  0
LINE
  8
0
  10
8.15554
  20
2.33341
  30
0
  11
8.14089
  21
2.3168
  31
0
  0
LINE
  8
0
  10
8.14089
  20
2.3168
  30
0
  11
8.11994
  21
2.27386
  31
0
  0
LINE
  8
0
  10
8.11994
  20
2.27386
  30
0
  11
8.09714
  21
2.23188
  31
0
  0
LINE
  8
0
  10
8.09714
  20
2.23188
  30
0
  11
8.09212
  21
2.21031
  31
0
  0
LINE
  8
0
  10
8.09212
  20
2.21031
  30
0
  11
8.09351
  21
2.19992
  31
0
  0
LINE
  8
0
  10
8.09351
  20
2.19992
  30
0
  11
8.09603
  21
2.19149
  31
0
  0
LINE
  8
0
  10
8.09603
  20
2.19149
  30
0
  11
8.09918
  21
2.18412
  31
0
  0
LINE
  8
0
  10
8.09918
  20
2.18412
  30
0
  11
8.10274
  21
2.17744
  31
0
  0
LINE
  8
0
  10
8.10274
  20
2.17744
  30
0
  11
8.11074
  21
2.16555
  31
0
  0
LINE
  8
0
  10
8.11074
  20
2.16555
  30
0
  11
8.11959
  21
2.15504
  31
0
  0
LINE
  8
0
  10
8.11959
  20
2.15504
  30
0
  11
8.12908
  21
2.14555
  31
0
  0
LINE
  8
0
  10
8.12908
  20
2.14555
  30
0
  11
8.13908
  21
2.13686
  31
0
  0
LINE
  8
0
  10
8.13908
  20
2.13686
  30
0
  11
8.16033
  21
2.12145
  31
0
  0
LINE
  8
0
  10
8.16033
  20
2.12145
  30
0
  11
8.18119
  21
2.10544
  31
0
  0
LINE
  8
0
  10
8.18119
  20
2.10544
  30
0
  11
8.19988
  21
2.08611
  31
0
  0
LINE
  8
0
  10
8.19988
  20
2.08611
  30
0
  11
8.21725
  21
2.06484
  31
0
  0
LINE
  8
0
  10
8.21725
  20
2.06484
  30
0
  11
8.23351
  21
2.042
  31
0
  0
LINE
  8
0
  10
8.23351
  20
2.042
  30
0
  11
8.24873
  21
2.01779
  31
0
  0
LINE
  8
0
  10
8.24873
  20
2.01779
  30
0
  11
8.26295
  21
1.99232
  31
0
  0
LINE
  8
0
  10
8.26295
  20
1.99232
  30
0
  11
8.27621
  21
1.9657
  31
0
  0
LINE
  8
0
  10
8.27621
  20
1.9657
  30
0
  11
8.28849
  21
1.938
  31
0
  0
LINE
  8
0
  10
8.28849
  20
1.938
  30
0
  11
8.29982
  21
1.90928
  31
0
  0
LINE
  8
0
  10
8.29982
  20
1.90928
  30
0
  11
8.31016
  21
1.8796
  31
0
  0
LINE
  8
0
  10
8.31016
  20
1.8796
  30
0
  11
8.31728
  21
1.85673
  31
0
  0
LINE
  8
0
  10
8.31728
  20
1.85673
  30
0
  11
8.25135
  21
1.77847
  31
0
  0
LINE
  8
0
  10
8.25135
  20
1.77847
  30
0
  11
8.2276
  21
1.7816
  31
0
  0
LINE
  8
0
  10
8.2276
  20
1.7816
  30
0
  11
8.19659
  21
1.78676
  31
0
  0
LINE
  8
0
  10
8.19659
  20
1.78676
  30
0
  11
8.16637
  21
1.79305
  31
0
  0
LINE
  8
0
  10
8.16637
  20
1.79305
  30
0
  11
8.13698
  21
1.80046
  31
0
  0
LINE
  8
0
  10
8.13698
  20
1.80046
  30
0
  11
8.1085
  21
1.809
  31
0
  0
LINE
  8
0
  10
8.1085
  20
1.809
  30
0
  11
8.08099
  21
1.8187
  31
0
  0
LINE
  8
0
  10
8.08099
  20
1.8187
  30
0
  11
8.05455
  21
1.82959
  31
0
  0
LINE
  8
0
  10
8.05455
  20
1.82959
  30
0
  11
8.02928
  21
1.84173
  31
0
  0
LINE
  8
0
  10
8.02928
  20
1.84173
  30
0
  11
8.00537
  21
1.85524
  31
0
  0
LINE
  8
0
  10
8.00537
  20
1.85524
  30
0
  11
7.98315
  21
1.87038
  31
0
  0
LINE
  8
0
  10
7.98315
  20
1.87038
  30
0
  11
7.96383
  21
1.88822
  31
0
  0
LINE
  8
0
  10
7.96383
  20
1.88822
  30
0
  11
7.94503
  21
1.90655
  31
0
  0
LINE
  8
0
  10
7.94503
  20
1.90655
  30
0
  11
7.93478
  21
1.91493
  31
0
  0
LINE
  8
0
  10
7.93478
  20
1.91493
  30
0
  11
7.92381
  21
1.92266
  31
0
  0
LINE
  8
0
  10
7.92381
  20
1.92266
  30
0
  11
7.91195
  21
1.9296
  31
0
  0
LINE
  8
0
  10
7.91195
  20
1.9296
  30
0
  11
7.89888
  21
1.93547
  31
0
  0
LINE
  8
0
  10
7.89888
  20
1.93547
  30
0
  11
7.8917
  21
1.93785
  31
0
  0
LINE
  8
0
  10
7.8917
  20
1.93785
  30
0
  11
7.88389
  21
1.9397
  31
0
  0
LINE
  8
0
  10
7.88389
  20
1.9397
  30
0
  11
7.87515
  21
1.94075
  31
0
  0
LINE
  8
0
  10
7.87515
  20
1.94075
  30
0
  11
7.86468
  21
1.94036
  31
0
  0
LINE
  8
0
  10
7.86468
  20
1.94036
  30
0
  11
7.84428
  21
1.93175
  31
0
  0
LINE
  8
0
  10
7.84428
  20
1.93175
  30
0
  11
7.80678
  21
1.90215
  31
0
  0
LINE
  8
0
  10
7.80678
  20
1.90215
  30
0
  11
7.76802
  21
1.87423
  31
0
  0
LINE
  8
0
  10
7.76802
  20
1.87423
  30
0
  11
7.75413
  21
1.85697
  31
0
  0
LINE
  8
0
  10
7.75413
  20
1.85697
  30
0
  11
7.75088
  21
1.84701
  31
0
  0
LINE
  8
0
  10
7.75088
  20
1.84701
  30
0
  11
7.74949
  21
1.83831
  31
0
  0
LINE
  8
0
  10
7.74949
  20
1.83831
  30
0
  11
7.74913
  21
1.8303
  31
0
  0
LINE
  8
0
  10
7.74913
  20
1.8303
  30
0
  11
7.74944
  21
1.82275
  31
0
  0
LINE
  8
0
  10
7.74944
  20
1.82275
  30
0
  11
7.75149
  21
1.80856
  31
0
  0
LINE
  8
0
  10
7.75149
  20
1.80856
  30
0
  11
7.75491
  21
1.79525
  31
0
  0
LINE
  8
0
  10
7.75491
  20
1.79525
  30
0
  11
7.75933
  21
1.78258
  31
0
  0
LINE
  8
0
  10
7.75933
  20
1.78258
  30
0
  11
7.76457
  21
1.77042
  31
0
  0
LINE
  8
0
  10
7.76457
  20
1.77042
  30
0
  11
7.77703
  21
1.74731
  31
0
  0
LINE
  8
0
  10
7.77703
  20
1.74731
  30
0
  11
7.78888
  21
1.72384
  31
0
  0
LINE
  8
0
  10
7.78888
  20
1.72384
  30
0
  11
7.79733
  21
1.69831
  31
0
  0
LINE
  8
0
  10
7.79733
  20
1.69831
  30
0
  11
7.80376
  21
1.67161
  31
0
  0
LINE
  8
0
  10
7.80376
  20
1.67161
  30
0
  11
7.80849
  21
1.64398
  31
0
  0
LINE
  8
0
  10
7.80849
  20
1.64398
  30
0
  11
7.8117
  21
1.61556
  31
0
  0
LINE
  8
0
  10
7.8117
  20
1.61556
  30
0
  11
7.81347
  21
1.58645
  31
0
  0
LINE
  8
0
  10
7.81347
  20
1.58645
  30
0
  11
7.81386
  21
1.55671
  31
0
  0
LINE
  8
0
  10
7.81386
  20
1.55671
  30
0
  11
7.81291
  21
1.52642
  31
0
  0
LINE
  8
0
  10
7.81291
  20
1.52642
  30
0
  11
7.81065
  21
1.49564
  31
0
  0
LINE
  8
0
  10
7.81065
  20
1.49564
  30
0
  11
7.8071
  21
1.4644
  31
0
  0
LINE
  8
0
  10
7.8071
  20
1.4644
  30
0
  11
7.80359
  21
1.44071
  31
0
  0
LINE
  8
0
  10
7.80359
  20
1.44071
  30
0
  11
7.71023
  21
1.39881
  31
0
  0
LINE
  8
0
  10
7.71023
  20
1.39881
  30
0
  11
7.69019
  21
1.41193
  31
0
  0
LINE
  8
0
  10
7.69019
  20
1.41193
  30
0
  11
7.66449
  21
1.43004
  31
0
  0
LINE
  8
0
  10
7.66449
  20
1.43004
  30
0
  11
7.63999
  21
1.44881
  31
0
  0
LINE
  8
0
  10
7.63999
  20
1.44881
  30
0
  11
7.61673
  21
1.46824
  31
0
  0
LINE
  8
0
  10
7.61673
  20
1.46824
  30
0
  11
7.59477
  21
1.48829
  31
0
  0
LINE
  8
0
  10
7.59477
  20
1.48829
  30
0
  11
7.5742
  21
1.50896
  31
0
  0
LINE
  8
0
  10
7.5742
  20
1.50896
  30
0
  11
7.55509
  21
1.53025
  31
0
  0
LINE
  8
0
  10
7.55509
  20
1.53025
  30
0
  11
7.5376
  21
1.55215
  31
0
  0
LINE
  8
0
  10
7.5376
  20
1.55215
  30
0
  11
7.52192
  21
1.5747
  31
0
  0
LINE
  8
0
  10
7.52192
  20
1.5747
  30
0
  11
7.50846
  21
1.59798
  31
0
  0
LINE
  8
0
  10
7.50846
  20
1.59798
  30
0
  11
7.4988
  21
1.62244
  31
0
  0
LINE
  8
0
  10
7.4988
  20
1.62244
  30
0
  11
7.48982
  21
1.6471
  31
0
  0
LINE
  8
0
  10
7.48982
  20
1.6471
  30
0
  11
7.48421
  21
1.6591
  31
0
  0
LINE
  8
0
  10
7.48421
  20
1.6591
  30
0
  11
7.47769
  21
1.67083
  31
0
  0
LINE
  8
0
  10
7.47769
  20
1.67083
  30
0
  11
7.47001
  21
1.68223
  31
0
  0
LINE
  8
0
  10
7.47001
  20
1.68223
  30
0
  11
7.46078
  21
1.69319
  31
0
  0
LINE
  8
0
  10
7.46078
  20
1.69319
  30
0
  11
7.45534
  21
1.69845
  31
0
  0
LINE
  8
0
  10
7.45534
  20
1.69845
  30
0
  11
7.44911
  21
1.7035
  31
0
  0
LINE
  8
0
  10
7.44911
  20
1.7035
  30
0
  11
7.4417
  21
1.70824
  31
0
  0
LINE
  8
0
  10
7.4417
  20
1.70824
  30
0
  11
7.43209
  21
1.71243
  31
0
  0
LINE
  8
0
  10
7.43209
  20
1.71243
  30
0
  11
7.40997
  21
1.71353
  31
0
  0
LINE
  8
0
  10
7.40997
  20
1.71353
  30
0
  11
7.36334
  21
1.70313
  31
0
  0
LINE
  8
0
  10
7.36334
  20
1.70313
  30
0
  11
7.31631
  21
1.69479
  31
0
  0
LINE
  8
0
  10
7.31631
  20
1.69479
  30
0
  11
7.29631
  21
1.68526
  31
0
  0
LINE
  8
0
  10
7.29631
  20
1.68526
  30
0
  11
7.28906
  21
1.6777
  31
0
  0
LINE
  8
0
  10
7.28906
  20
1.6777
  30
0
  11
7.28404
  21
1.67047
  31
0
  0
LINE
  8
0
  10
7.28404
  20
1.67047
  30
0
  11
7.28023
  21
1.66341
  31
0
  0
LINE
  8
0
  10
7.28023
  20
1.66341
  30
0
  11
7.27724
  21
1.65647
  31
0
  0
LINE
  8
0
  10
7.27724
  20
1.65647
  30
0
  11
7.27293
  21
1.6428
  31
0
  0
LINE
  8
0
  10
7.27293
  20
1.6428
  30
0
  11
7.27023
  21
1.62932
  31
0
  0
LINE
  8
0
  10
7.27023
  20
1.62932
  30
0
  11
7.26872
  21
1.61599
  31
0
  0
LINE
  8
0
  10
7.26872
  20
1.61599
  30
0
  11
7.26817
  21
1.60276
  31
0
  0
LINE
  8
0
  10
7.26817
  20
1.60276
  30
0
  11
7.26936
  21
1.57653
  31
0
  0
LINE
  8
0
  10
7.26936
  20
1.57653
  30
0
  11
7.26986
  21
1.55024
  31
0
  0
LINE
  8
0
  10
7.26986
  20
1.55024
  30
0
  11
7.26639
  21
1.52357
  31
0
  0
LINE
  8
0
  10
7.26639
  20
1.52357
  30
0
  11
7.2606
  21
1.49673
  31
0
  0
LINE
  8
0
  10
7.2606
  20
1.49673
  30
0
  11
7.25288
  21
1.46978
  31
0
  0
LINE
  8
0
  10
7.25288
  20
1.46978
  30
0
  11
7.24343
  21
1.44279
  31
0
  0
LINE
  8
0
  10
7.24343
  20
1.44279
  30
0
  11
7.23239
  21
1.41579
  31
0
  0
LINE
  8
0
  10
7.23239
  20
1.41579
  30
0
  11
7.21985
  21
1.38883
  31
0
  0
LINE
  8
0
  10
7.21985
  20
1.38883
  30
0
  11
7.20585
  21
1.36195
  31
0
  0
LINE
  8
0
  10
7.20585
  20
1.36195
  30
0
  11
7.19046
  21
1.33519
  31
0
  0
LINE
  8
0
  10
7.19046
  20
1.33519
  30
0
  11
7.1737
  21
1.30859
  31
0
  0
LINE
  8
0
  10
7.1737
  20
1.30859
  30
0
  11
7.16026
  21
1.28877
  31
0
  0
LINE
  8
0
  10
7.16026
  20
1.28877
  30
0
  11
7.05796
  21
1.29152
  31
0
  0
LINE
  8
0
  10
7.05796
  20
1.29152
  30
0
  11
7.04561
  21
1.31204
  31
0
  0
LINE
  8
0
  10
7.04561
  20
1.31204
  30
0
  11
7.03031
  21
1.33951
  31
0
  0
LINE
  8
0
  10
7.03031
  20
1.33951
  30
0
  11
7.01637
  21
1.36705
  31
0
  0
LINE
  8
0
  10
7.01637
  20
1.36705
  30
0
  11
7.00385
  21
1.39465
  31
0
  0
LINE
  8
0
  10
7.00385
  20
1.39465
  30
0
  11
6.99277
  21
1.42224
  31
0
  0
LINE
  8
0
  10
6.99277
  20
1.42224
  30
0
  11
6.9832
  21
1.44979
  31
0
  0
LINE
  8
0
  10
6.9832
  20
1.44979
  30
0
  11
6.97522
  21
1.47726
  31
0
  0
LINE
  8
0
  10
6.97522
  20
1.47726
  30
0
  11
6.96896
  21
1.50458
  31
0
  0
LINE
  8
0
  10
6.96896
  20
1.50458
  30
0
  11
6.96462
  21
1.5317
  31
0
  0
LINE
  8
0
  10
6.96462
  20
1.5317
  30
0
  11
6.9626
  21
1.55852
  31
0
  0
LINE
  8
0
  10
6.9626
  20
1.55852
  30
0
  11
6.96451
  21
1.58474
  31
0
  0
LINE
  8
0
  10
6.96451
  20
1.58474
  30
0
  11
6.96711
  21
1.61087
  31
0
  0
LINE
  8
0
  10
6.96711
  20
1.61087
  30
0
  11
6.96727
  21
1.62411
  31
0
  0
LINE
  8
0
  10
6.96727
  20
1.62411
  30
0
  11
6.96648
  21
1.63751
  31
0
  0
LINE
  8
0
  10
6.96648
  20
1.63751
  30
0
  11
6.96451
  21
1.6511
  31
0
  0
LINE
  8
0
  10
6.96451
  20
1.6511
  30
0
  11
6.96095
  21
1.66499
  31
0
  0
LINE
  8
0
  10
6.96095
  20
1.66499
  30
0
  11
6.95833
  21
1.67208
  31
0
  0
LINE
  8
0
  10
6.95833
  20
1.67208
  30
0
  11
6.95491
  21
1.67934
  31
0
  0
LINE
  8
0
  10
6.95491
  20
1.67934
  30
0
  11
6.95029
  21
1.68683
  31
0
  0
LINE
  8
0
  10
6.95029
  20
1.68683
  30
0
  11
6.94345
  21
1.69477
  31
0
  0
LINE
  8
0
  10
6.94345
  20
1.69477
  30
0
  11
6.92399
  21
1.70535
  31
0
  0
LINE
  8
0
  10
6.92399
  20
1.70535
  30
0
  11
6.87748
  21
1.71622
  31
0
  0
LINE
  8
0
  10
6.87748
  20
1.71622
  30
0
  11
6.83148
  21
1.72911
  31
0
  0
LINE
  8
0
  10
6.83148
  20
1.72911
  30
0
  11
6.80933
  21
1.72921
  31
0
  0
LINE
  8
0
  10
6.80933
  20
1.72921
  30
0
  11
6.79951
  21
1.72554
  31
0
  0
LINE
  8
0
  10
6.79951
  20
1.72554
  30
0
  11
6.79185
  21
1.7212
  31
0
  0
LINE
  8
0
  10
6.79185
  20
1.7212
  30
0
  11
6.78536
  21
1.71649
  31
0
  0
LINE
  8
0
  10
6.78536
  20
1.71649
  30
0
  11
6.77965
  21
1.71154
  31
0
  0
LINE
  8
0
  10
6.77965
  20
1.71154
  30
0
  11
6.76983
  21
1.70109
  31
0
  0
LINE
  8
0
  10
6.76983
  20
1.70109
  30
0
  11
6.76156
  21
1.69012
  31
0
  0
LINE
  8
0
  10
6.76156
  20
1.69012
  30
0
  11
6.75441
  21
1.67876
  31
0
  0
LINE
  8
0
  10
6.75441
  20
1.67876
  30
0
  11
6.74817
  21
1.66708
  31
0
  0
LINE
  8
0
  10
6.74817
  20
1.66708
  30
0
  11
6.73787
  21
1.64293
  31
0
  0
LINE
  8
0
  10
6.73787
  20
1.64293
  30
0
  11
6.72691
  21
1.61903
  31
0
  0
LINE
  8
0
  10
6.72691
  20
1.61903
  30
0
  11
6.71222
  21
1.59651
  31
0
  0
LINE
  8
0
  10
6.71222
  20
1.59651
  30
0
  11
6.69535
  21
1.57484
  31
0
  0
LINE
  8
0
  10
6.69535
  20
1.57484
  30
0
  11
6.6767
  21
1.55391
  31
0
  0
LINE
  8
0
  10
6.6767
  20
1.55391
  30
0
  11
6.65648
  21
1.53368
  31
0
  0
LINE
  8
0
  10
6.65648
  20
1.53368
  30
0
  11
6.63482
  21
1.51415
  31
0
  0
LINE
  8
0
  10
6.63482
  20
1.51415
  30
0
  11
6.61182
  21
1.4953
  31
0
  0
LINE
  8
0
  10
6.61182
  20
1.4953
  30
0
  11
6.58754
  21
1.47716
  31
0
  0
LINE
  8
0
  10
6.58754
  20
1.47716
  30
0
  11
6.56206
  21
1.45973
  31
0
  0
LINE
  8
0
  10
6.56206
  20
1.45973
  30
0
  11
6.53543
  21
1.44303
  31
0
  0
LINE
  8
0
  10
6.53543
  20
1.44303
  30
0
  11
6.51471
  21
1.43101
  31
0
  0
LINE
  8
0
  10
6.51471
  20
1.43101
  30
0
  11
6.42375
  21
1.47787
  31
0
  0
LINE
  8
0
  10
6.42375
  20
1.47787
  30
0
  11
6.42152
  21
1.50172
  31
0
  0
LINE
  8
0
  10
6.42152
  20
1.50172
  30
0
  11
6.41965
  21
1.5331
  31
0
  0
LINE
  8
0
  10
6.41965
  20
1.5331
  30
0
  11
6.41905
  21
1.56397
  31
0
  0
LINE
  8
0
  10
6.41905
  20
1.56397
  30
0
  11
6.41973
  21
1.59426
  31
0
  0
LINE
  8
0
  10
6.41973
  20
1.59426
  30
0
  11
6.42172
  21
1.62393
  31
0
  0
LINE
  8
0
  10
6.42172
  20
1.62393
  30
0
  11
6.42506
  21
1.65291
  31
0
  0
LINE
  8
0
  10
6.42506
  20
1.65291
  30
0
  11
6.42979
  21
1.68111
  31
0
  0
LINE
  8
0
  10
6.42979
  20
1.68111
  30
0
  11
6.436
  21
1.70845
  31
0
  0
LINE
  8
0
  10
6.436
  20
1.70845
  30
0
  11
6.44386
  21
1.73476
  31
0
  0
LINE
  8
0
  10
6.44386
  20
1.73476
  30
0
  11
6.45367
  21
1.7598
  31
0
  0
LINE
  8
0
  10
6.45367
  20
1.7598
  30
0
  11
6.46677
  21
1.7826
  31
0
  0
LINE
  8
0
  10
6.46677
  20
1.7826
  30
0
  11
6.48045
  21
1.80501
  31
0
  0
LINE
  8
0
  10
6.48045
  20
1.80501
  30
0
  11
6.48634
  21
1.81687
  31
0
  0
LINE
  8
0
  10
6.48634
  20
1.81687
  30
0
  11
6.49144
  21
1.82928
  31
0
  0
LINE
  8
0
  10
6.49144
  20
1.82928
  30
0
  11
6.49556
  21
1.84239
  31
0
  0
LINE
  8
0
  10
6.49556
  20
1.84239
  30
0
  11
6.49838
  21
1.85644
  31
0
  0
LINE
  8
0
  10
6.49838
  20
1.85644
  30
0
  11
6.4991
  21
1.86397
  31
0
  0
LINE
  8
0
  10
6.4991
  20
1.86397
  30
0
  11
6.49916
  21
1.87199
  31
0
  0
LINE
  8
0
  10
6.49916
  20
1.87199
  30
0
  11
6.49825
  21
1.88075
  31
0
  0
LINE
  8
0
  10
6.49825
  20
1.88075
  30
0
  11
6.49553
  21
1.89087
  31
0
  0
LINE
  8
0
  10
6.49553
  20
1.89087
  30
0
  11
6.4826
  21
1.90885
  31
0
  0
LINE
  8
0
  10
6.4826
  20
1.90885
  30
0
  11
6.4454
  21
1.93882
  31
0
  0
LINE
  8
0
  10
6.4454
  20
1.93882
  30
0
  11
6.40955
  21
1.97039
  31
0
  0
LINE
  8
0
  10
6.40955
  20
1.97039
  30
0
  11
6.38963
  21
1.98009
  31
0
  0
LINE
  8
0
  10
6.38963
  20
1.98009
  30
0
  11
6.3792
  21
1.98105
  31
0
  0
LINE
  8
0
  10
6.3792
  20
1.98105
  30
0
  11
6.37042
  21
1.98046
  31
0
  0
LINE
  8
0
  10
6.37042
  20
1.98046
  30
0
  11
6.36252
  21
1.97904
  31
0
  0
LINE
  8
0
  10
6.36252
  20
1.97904
  30
0
  11
6.35523
  21
1.97705
  31
0
  0
LINE
  8
0
  10
6.35523
  20
1.97705
  30
0
  11
6.34185
  21
1.97189
  31
0
  0
LINE
  8
0
  10
6.34185
  20
1.97189
  30
0
  11
6.32964
  21
1.9656
  31
0
  0
LINE
  8
0
  10
6.32964
  20
1.9656
  30
0
  11
6.31827
  21
1.95847
  31
0
  0
LINE
  8
0
  10
6.31827
  20
1.95847
  30
0
  11
6.30758
  21
1.95065
  31
0
  0
LINE
  8
0
  10
6.30758
  20
1.95065
  30
0
  11
6.28782
  21
1.93337
  31
0
  0
LINE
  8
0
  10
6.28782
  20
1.93337
  30
0
  11
6.26758
  21
1.91658
  31
0
  0
LINE
  8
0
  10
6.26758
  20
1.91658
  30
0
  11
6.24457
  21
1.90267
  31
0
  0
LINE
  8
0
  10
6.24457
  20
1.90267
  30
0
  11
6.21996
  21
1.89046
  31
0
  0
LINE
  8
0
  10
6.21996
  20
1.89046
  30
0
  11
6.19408
  21
1.8797
  31
0
  0
LINE
  8
0
  10
6.19408
  20
1.8797
  30
0
  11
6.16709
  21
1.87025
  31
0
  0
LINE
  8
0
  10
6.16709
  20
1.87025
  30
0
  11
6.1391
  21
1.86204
  31
0
  0
LINE
  8
0
  10
6.1391
  20
1.86204
  30
0
  11
6.1102
  21
1.85505
  31
0
  0
LINE
  8
0
  10
6.1102
  20
1.85505
  30
0
  11
6.08046
  21
1.84923
  31
0
  0
LINE
  8
0
  10
6.08046
  20
1.84923
  30
0
  11
6.04994
  21
1.84458
  31
0
  0
LINE
  8
0
  10
6.04994
  20
1.84458
  30
0
  11
6.01869
  21
1.8411
  31
0
  0
LINE
  8
0
  10
6.01869
  20
1.8411
  30
0
  11
5.99481
  21
1.83925
  31
0
  0
LINE
  8
0
  10
5.99481
  20
1.83925
  30
0
  11
5.93319
  21
1.92094
  31
0
  0
LINE
  8
0
  10
5.93319
  20
1.92094
  30
0
  11
5.94153
  21
1.9434
  31
0
  0
LINE
  8
0
  10
5.94153
  20
1.9434
  30
0
  11
5.95346
  21
1.97248
  31
0
  0
LINE
  8
0
  10
5.95346
  20
1.97248
  30
0
  11
5.96631
  21
2.00055
  31
0
  0
LINE
  8
0
  10
5.96631
  20
2.00055
  30
0
  11
5.98007
  21
2.02755
  31
0
  0
LINE
  8
0
  10
5.98007
  20
2.02755
  30
0
  11
5.99474
  21
2.05342
  31
0
  0
LINE
  8
0
  10
5.99474
  20
2.05342
  30
0
  11
6.01032
  21
2.07808
  31
0
  0
LINE
  8
0
  10
6.01032
  20
2.07808
  30
0
  11
6.02682
  21
2.10144
  31
0
  0
LINE
  8
0
  10
6.02682
  20
2.10144
  30
0
  11
6.04428
  21
2.12337
  31
0
  0
LINE
  8
0
  10
6.04428
  20
2.12337
  30
0
  11
6.06277
  21
2.14367
  31
0
  0
LINE
  8
0
  10
6.06277
  20
2.14367
  30
0
  11
6.08247
  21
2.16197
  31
0
  0
LINE
  8
0
  10
6.08247
  20
2.16197
  30
0
  11
6.10417
  21
2.17683
  31
0
  0
LINE
  8
0
  10
6.10417
  20
2.17683
  30
0
  11
6.12622
  21
2.19108
  31
0
  0
LINE
  8
0
  10
6.12622
  20
2.19108
  30
0
  11
6.13667
  21
2.19921
  31
0
  0
LINE
  8
0
  10
6.13667
  20
2.19921
  30
0
  11
6.14665
  21
2.20818
  31
0
  0
LINE
  8
0
  10
6.14665
  20
2.20818
  30
0
  11
6.15605
  21
2.2182
  31
0
  0
LINE
  8
0
  10
6.15605
  20
2.2182
  30
0
  11
6.16469
  21
2.22964
  31
0
  0
LINE
  8
0
  10
6.16469
  20
2.22964
  30
0
  11
6.1686
  21
2.23611
  31
0
  0
LINE
  8
0
  10
6.1686
  20
2.23611
  30
0
  11
6.17214
  21
2.24331
  31
0
  0
LINE
  8
0
  10
6.17214
  20
2.24331
  30
0
  11
6.17511
  21
2.2516
  31
0
  0
LINE
  8
0
  10
6.17511
  20
2.2516
  30
0
  11
6.17706
  21
2.26189
  31
0
  0
LINE
  8
0
  10
6.17706
  20
2.26189
  30
0
  11
6.17321
  21
2.2837
  31
0
  0
LINE
  8
0
  10
6.17321
  20
2.2837
  30
0
  11
6.1527
  21
2.32685
  31
0
  0
LINE
  8
0
  10
6.1527
  20
2.32685
  30
0
  11
6.13409
  21
2.37085
  31
0
  0
LINE
  8
0
  10
7.29908
  20
2.77404
  30
0
  11
7.29908
  21
2.77404
  31
0
  0
LINE
  8
0
  10
7.29908
  20
2.77404
  30
0
  11
7.29397
  21
2.81287
  31
0
  0
LINE
  8
0
  10
7.29397
  20
2.81287
  30
0
  11
7.27898
  21
2.84904
  31
0
  0
LINE
  8
0
  10
7.27898
  20
2.84904
  30
0
  11
7.25514
  21
2.88011
  31
0
  0
LINE
  8
0
  10
7.25514
  20
2.88011
  30
0
  11
7.22408
  21
2.90395
  31
0
  0
LINE
  8
0
  10
7.22408
  20
2.90395
  30
0
  11
7.1879
  21
2.91893
  31
0
  0
LINE
  8
0
  10
7.1879
  20
2.91893
  30
0
  11
7.14908
  21
2.92404
  31
0
  0
LINE
  8
0
  10
7.14908
  20
2.92404
  30
0
  11
7.11026
  21
2.91893
  31
0
  0
LINE
  8
0
  10
7.11026
  20
2.91893
  30
0
  11
7.07408
  21
2.90395
  31
0
  0
LINE
  8
0
  10
7.07408
  20
2.90395
  30
0
  11
7.04301
  21
2.88011
  31
0
  0
LINE
  8
0
  10
7.04301
  20
2.88011
  30
0
  11
7.01917
  21
2.84904
  31
0
  0
LINE
  8
0
  10
7.01917
  20
2.84904
  30
0
  11
7.00419
  21
2.81287
  31
0
  0
LINE
  8
0
  10
7.00419
  20
2.81287
  30
0
  11
6.99908
  21
2.77404
  31
0
  0
LINE
  8
0
  10
6.99908
  20
2.77404
  30
0
  11
7.00419
  21
2.73522
  31
0
  0
LINE
  8
0
  10
7.00419
  20
2.73522
  30
0
  11
7.01917
  21
2.69904
  31
0
  0
LINE
  8
0
  10
7.01917
  20
2.69904
  30
0
  11
7.04301
  21
2.66798
  31
0
  0
LINE
  8
0
  10
7.04301
  20
2.66798
  30
0
  11
7.07408
  21
2.64414
  31
0
  0
LINE
  8
0
  10
7.07408
  20
2.64414
  30
0
  11
7.11026
  21
2.62915
  31
0
  0
LINE
  8
0
  10
7.11026
  20
2.62915
  30
0
  11
7.14908
  21
2.62404
  31
0
  0
LINE
  8
0
  10
7.14908
  20
2.62404
  30
0
  11
7.1879
  21
2.62915
  31
0
  0
LINE
  8
0
  10
7.1879
  20
2.62915
  30
0
  11
7.22408
  21
2.64414
  31
0
  0
LINE
  8
0
  10
7.22408
  20
2.64414
  30
0
  11
7.25514
  21
2.66798
  31
0
  0
LINE
  8
0
  10
7.25514
  20
2.66798
  30
0
  11
7.27898
  21
2.69904
  31
0
  0
LINE
  8
0
  10
7.27898
  20
2.69904
  30
0
  11
7.29397
  21
2.73522
  31
0
  0
LINE
  8
0
  10
7.29397
  20
2.73522
  30
0
  11
7.29908
  21
2.77404
  31
0
  0
LINE
  8
0
  10
7.29908
  20
2.77404
  30
0
  11
7.29908
  21
2.77404
  31
0
  0
LINE
  8
0
  10
6.65397
  20
2.77404
  30
0
  11
7.64418
  21
2.77404
  31
0
  0
LINE
  8
0
  10
7.14908
  20
2.27894
  30
0
  11
7.14908
  21
3.26915
  31
0
  0
ENDSEC
  0
EOF
