  999
file created by gear template generator
  0
SECTION
  2
HEADER
  9
$ACADVER
  1
AC1006
  9
$INSBASE
  10
0.0
  20
0.0
  30
0.0
  9
$EXTMIN
  10
0.0
  20
0.0
  9
$EXTMAX
  10
10000.0
  20
10000.0
  0
ENDSEC
  0
SECTION
  2
ENTITIES
  0
LINE
  8
0
  10
7.69645
  20
4.17628
  30
0
  11
7.69645
  21
4.17628
  31
0
  0
LINE
  8
0
  10
7.69645
  20
4.17628
  30
0
  11
7.71026
  21
4.17408
  31
0
  0
LINE
  8
0
  10
7.71026
  20
4.17408
  30
0
  11
7.72408
  21
4.17163
  31
0
  0
LINE
  8
0
  10
7.72408
  20
4.17163
  30
0
  11
7.75174
  21
4.166
  31
0
  0
LINE
  8
0
  10
7.75174
  20
4.166
  30
0
  11
7.80713
  21
4.1522
  31
0
  0
LINE
  8
0
  10
7.80713
  20
4.1522
  30
0
  11
7.86255
  21
4.13538
  31
0
  0
LINE
  8
0
  10
7.86255
  20
4.13538
  30
0
  11
7.91794
  21
4.11584
  31
0
  0
LINE
  8
0
  10
7.91794
  20
4.11584
  30
0
  11
7.97328
  21
4.09377
  31
0
  0
LINE
  8
0
  10
7.97328
  20
4.09377
  30
0
  11
8.02852
  21
4.06931
  31
0
  0
LINE
  8
0
  10
8.02852
  20
4.06931
  30
0
  11
8.02852
  21
3.95958
  31
0
  0
LINE
  8
0
  10
8.02852
  20
3.95958
  30
0
  11
7.97328
  21
3.93512
  31
0
  0
LINE
  8
0
  10
7.97328
  20
3.93512
  30
0
  11
7.91794
  21
3.91306
  31
0
  0
LINE
  8
0
  10
7.91794
  20
3.91306
  30
0
  11
7.86255
  21
3.89351
  31
0
  0
LINE
  8
0
  10
7.86255
  20
3.89351
  30
0
  11
7.80713
  21
3.87669
  31
0
  0
LINE
  8
0
  10
7.80713
  20
3.87669
  30
0
  11
7.75174
  21
3.86289
  31
0
  0
LINE
  8
0
  10
7.75174
  20
3.86289
  30
0
  11
7.72408
  21
3.85726
  31
0
  0
LINE
  8
0
  10
7.72408
  20
3.85726
  30
0
  11
7.71026
  21
3.85481
  31
0
  0
LINE
  8
0
  10
7.71026
  20
3.85481
  30
0
  11
7.69645
  21
3.85261
  31
0
  0
LINE
  8
0
  10
7.69645
  20
3.85261
  30
0
  11
7.68769
  21
3.71353
  31
0
  0
LINE
  8
0
  10
7.68769
  20
3.71353
  30
0
  11
7.70112
  21
3.70962
  31
0
  0
LINE
  8
0
  10
7.70112
  20
3.70962
  30
0
  11
7.71453
  21
3.70545
  31
0
  0
LINE
  8
0
  10
7.71453
  20
3.70545
  30
0
  11
7.74127
  21
3.6964
  31
0
  0
LINE
  8
0
  10
7.74127
  20
3.6964
  30
0
  11
7.79449
  21
3.67576
  31
0
  0
LINE
  8
0
  10
7.79449
  20
3.67576
  30
0
  11
7.84736
  21
3.65213
  31
0
  0
LINE
  8
0
  10
7.84736
  20
3.65213
  30
0
  11
7.89987
  21
3.6258
  31
0
  0
LINE
  8
0
  10
7.89987
  20
3.6258
  30
0
  11
7.95201
  21
3.59697
  31
0
  0
LINE
  8
0
  10
7.95201
  20
3.59697
  30
0
  11
8.00374
  21
3.56578
  31
0
  0
LINE
  8
0
  10
8.00374
  20
3.56578
  30
0
  11
7.98999
  21
3.45691
  31
0
  0
LINE
  8
0
  10
7.98999
  20
3.45691
  30
0
  11
7.93212
  21
3.43958
  31
0
  0
LINE
  8
0
  10
7.93212
  20
3.43958
  30
0
  11
7.87446
  21
3.42462
  31
0
  0
LINE
  8
0
  10
7.87446
  20
3.42462
  30
0
  11
7.81705
  21
3.41217
  31
0
  0
LINE
  8
0
  10
7.81705
  20
3.41217
  30
0
  11
7.75996
  21
3.40243
  31
0
  0
LINE
  8
0
  10
7.75996
  20
3.40243
  30
0
  11
7.70328
  21
3.39568
  31
0
  0
LINE
  8
0
  10
7.70328
  20
3.39568
  30
0
  11
7.67513
  21
3.39356
  31
0
  0
LINE
  8
0
  10
7.67513
  20
3.39356
  30
0
  11
7.66111
  21
3.39286
  31
0
  0
LINE
  8
0
  10
7.66111
  20
3.39286
  30
0
  11
7.64713
  21
3.39241
  31
0
  0
LINE
  8
0
  10
7.64713
  20
3.39241
  30
0
  11
7.62102
  21
3.25552
  31
0
  0
LINE
  8
0
  10
7.62102
  20
3.25552
  30
0
  11
7.63385
  21
3.24996
  31
0
  0
LINE
  8
0
  10
7.63385
  20
3.24996
  30
0
  11
7.64662
  21
3.24414
  31
0
  0
LINE
  8
0
  10
7.64662
  20
3.24414
  30
0
  11
7.67202
  21
3.23181
  31
0
  0
LINE
  8
0
  10
7.67202
  20
3.23181
  30
0
  11
7.72223
  21
3.20467
  31
0
  0
LINE
  8
0
  10
7.72223
  20
3.20467
  30
0
  11
7.77172
  21
3.17459
  31
0
  0
LINE
  8
0
  10
7.77172
  20
3.17459
  30
0
  11
7.82052
  21
3.14189
  31
0
  0
LINE
  8
0
  10
7.82052
  20
3.14189
  30
0
  11
7.86863
  21
3.10675
  31
0
  0
LINE
  8
0
  10
7.86863
  20
3.10675
  30
0
  11
7.91605
  21
3.06933
  31
0
  0
LINE
  8
0
  10
7.91605
  20
3.06933
  30
0
  11
7.88876
  21
2.96304
  31
0
  0
LINE
  8
0
  10
7.88876
  20
2.96304
  30
0
  11
7.82918
  21
2.95309
  31
0
  0
LINE
  8
0
  10
7.82918
  20
2.95309
  30
0
  11
7.77009
  21
2.94548
  31
0
  0
LINE
  8
0
  10
7.77009
  20
2.94548
  30
0
  11
7.71158
  21
2.94033
  31
0
  0
LINE
  8
0
  10
7.71158
  20
2.94033
  30
0
  11
7.65372
  21
2.93782
  31
0
  0
LINE
  8
0
  10
7.65372
  20
2.93782
  30
0
  11
7.59664
  21
2.93822
  31
0
  0
LINE
  8
0
  10
7.59664
  20
2.93822
  30
0
  11
7.56844
  21
2.93965
  31
0
  0
LINE
  8
0
  10
7.56844
  20
2.93965
  30
0
  11
7.55445
  21
2.94071
  31
0
  0
LINE
  8
0
  10
7.55445
  20
2.94071
  30
0
  11
7.54052
  21
2.94202
  31
0
  0
LINE
  8
0
  10
7.54052
  20
2.94202
  30
0
  11
7.49746
  21
2.80948
  31
0
  0
LINE
  8
0
  10
7.49746
  20
2.80948
  30
0
  11
7.50949
  21
2.80235
  31
0
  0
LINE
  8
0
  10
7.50949
  20
2.80235
  30
0
  11
7.52144
  21
2.79498
  31
0
  0
LINE
  8
0
  10
7.52144
  20
2.79498
  30
0
  11
7.54509
  21
2.77957
  31
0
  0
LINE
  8
0
  10
7.54509
  20
2.77957
  30
0
  11
7.5915
  21
2.74634
  31
0
  0
LINE
  8
0
  10
7.5915
  20
2.74634
  30
0
  11
7.63684
  21
2.7103
  31
0
  0
LINE
  8
0
  10
7.63684
  20
2.7103
  30
0
  11
7.68115
  21
2.67174
  31
0
  0
LINE
  8
0
  10
7.68115
  20
2.67174
  30
0
  11
7.72448
  21
2.63085
  31
0
  0
LINE
  8
0
  10
7.72448
  20
2.63085
  30
0
  11
7.76683
  21
2.58778
  31
0
  0
LINE
  8
0
  10
7.76683
  20
2.58778
  30
0
  11
7.72644
  21
2.48575
  31
0
  0
LINE
  8
0
  10
7.72644
  20
2.48575
  30
0
  11
7.66608
  21
2.48335
  31
0
  0
LINE
  8
0
  10
7.66608
  20
2.48335
  30
0
  11
7.6065
  21
2.4832
  31
0
  0
LINE
  8
0
  10
7.6065
  20
2.4832
  30
0
  11
7.5478
  21
2.48543
  31
0
  0
LINE
  8
0
  10
7.5478
  20
2.48543
  30
0
  11
7.49008
  21
2.49019
  31
0
  0
LINE
  8
0
  10
7.49008
  20
2.49019
  30
0
  11
7.43351
  21
2.49774
  31
0
  0
LINE
  8
0
  10
7.43351
  20
2.49774
  30
0
  11
7.40571
  21
2.50269
  31
0
  0
LINE
  8
0
  10
7.40571
  20
2.50269
  30
0
  11
7.39196
  21
2.5055
  31
0
  0
LINE
  8
0
  10
7.39196
  20
2.5055
  30
0
  11
7.37831
  21
2.50854
  31
0
  0
LINE
  8
0
  10
7.37831
  20
2.50854
  30
0
  11
7.31897
  21
2.38245
  31
0
  0
LINE
  8
0
  10
7.31897
  20
2.38245
  30
0
  11
7.33002
  21
2.37387
  31
0
  0
LINE
  8
0
  10
7.33002
  20
2.37387
  30
0
  11
7.34095
  21
2.36506
  31
0
  0
LINE
  8
0
  10
7.34095
  20
2.36506
  30
0
  11
7.36248
  21
2.3468
  31
0
  0
LINE
  8
0
  10
7.36248
  20
2.3468
  30
0
  11
7.40436
  21
2.30802
  31
0
  0
LINE
  8
0
  10
7.40436
  20
2.30802
  30
0
  11
7.44482
  21
2.26658
  31
0
  0
LINE
  8
0
  10
7.44482
  20
2.26658
  30
0
  11
7.48395
  21
2.22277
  31
0
  0
LINE
  8
0
  10
7.48395
  20
2.22277
  30
0
  11
7.52181
  21
2.17677
  31
0
  0
LINE
  8
0
  10
7.52181
  20
2.17677
  30
0
  11
7.55843
  21
2.12873
  31
0
  0
LINE
  8
0
  10
7.55843
  20
2.12873
  30
0
  11
7.50557
  21
2.03257
  31
0
  0
LINE
  8
0
  10
7.50557
  20
2.03257
  30
0
  11
7.44539
  21
2.03775
  31
0
  0
LINE
  8
0
  10
7.44539
  20
2.03775
  30
0
  11
7.38626
  21
2.04507
  31
0
  0
LINE
  8
0
  10
7.38626
  20
2.04507
  30
0
  11
7.3283
  21
2.05464
  31
0
  0
LINE
  8
0
  10
7.3283
  20
2.05464
  30
0
  11
7.27164
  21
2.06659
  31
0
  0
LINE
  8
0
  10
7.27164
  20
2.06659
  30
0
  11
7.21645
  21
2.08118
  31
0
  0
LINE
  8
0
  10
7.21645
  20
2.08118
  30
0
  11
7.1895
  21
2.08958
  31
0
  0
LINE
  8
0
  10
7.1895
  20
2.08958
  30
0
  11
7.1762
  21
2.09408
  31
0
  0
LINE
  8
0
  10
7.1762
  20
2.09408
  30
0
  11
7.16304
  21
2.09881
  31
0
  0
LINE
  8
0
  10
7.16304
  20
2.09881
  30
0
  11
7.08837
  21
1.98115
  31
0
  0
LINE
  8
0
  10
7.08837
  20
1.98115
  30
0
  11
7.09825
  21
1.97125
  31
0
  0
LINE
  8
0
  10
7.09825
  20
1.97125
  30
0
  11
7.10799
  21
1.96114
  31
0
  0
LINE
  8
0
  10
7.10799
  20
1.96114
  30
0
  11
7.12706
  21
1.94033
  31
0
  0
LINE
  8
0
  10
7.12706
  20
1.94033
  30
0
  11
7.16376
  21
1.8966
  31
0
  0
LINE
  8
0
  10
7.16376
  20
1.8966
  30
0
  11
7.19871
  21
1.85042
  31
0
  0
LINE
  8
0
  10
7.19871
  20
1.85042
  30
0
  11
7.23204
  21
1.80205
  31
0
  0
LINE
  8
0
  10
7.23204
  20
1.80205
  30
0
  11
7.26383
  21
1.75167
  31
0
  0
LINE
  8
0
  10
7.26383
  20
1.75167
  30
0
  11
7.29415
  21
1.69942
  31
0
  0
LINE
  8
0
  10
7.29415
  20
1.69942
  30
0
  11
7.22965
  21
1.61065
  31
0
  0
LINE
  8
0
  10
7.22965
  20
1.61065
  30
0
  11
7.17059
  21
1.62333
  31
0
  0
LINE
  8
0
  10
7.17059
  20
1.62333
  30
0
  11
7.11285
  21
1.638
  31
0
  0
LINE
  8
0
  10
7.11285
  20
1.638
  30
0
  11
7.05654
  21
1.65475
  31
0
  0
LINE
  8
0
  10
7.05654
  20
1.65475
  30
0
  11
7.00182
  21
1.67372
  31
0
  0
LINE
  8
0
  10
7.00182
  20
1.67372
  30
0
  11
6.9489
  21
1.69511
  31
0
  0
LINE
  8
0
  10
6.9489
  20
1.69511
  30
0
  11
6.92321
  21
1.70681
  31
0
  0
LINE
  8
0
  10
6.92321
  20
1.70681
  30
0
  11
6.91059
  21
1.71295
  31
0
  0
LINE
  8
0
  10
6.91059
  20
1.71295
  30
0
  11
6.89812
  21
1.71929
  31
0
  0
LINE
  8
0
  10
6.89812
  20
1.71929
  30
0
  11
6.80929
  21
1.61192
  31
0
  0
LINE
  8
0
  10
6.80929
  20
1.61192
  30
0
  11
6.81786
  21
1.60086
  31
0
  0
LINE
  8
0
  10
6.81786
  20
1.60086
  30
0
  11
6.82625
  21
1.58961
  31
0
  0
LINE
  8
0
  10
6.82625
  20
1.58961
  30
0
  11
6.84256
  21
1.56657
  31
0
  0
LINE
  8
0
  10
6.84256
  20
1.56657
  30
0
  11
6.87349
  21
1.51859
  31
0
  0
LINE
  8
0
  10
6.87349
  20
1.51859
  30
0
  11
6.90237
  21
1.46839
  31
0
  0
LINE
  8
0
  10
6.90237
  20
1.46839
  30
0
  11
6.92938
  21
1.41623
  31
0
  0
LINE
  8
0
  10
6.92938
  20
1.41623
  30
0
  11
6.95461
  21
1.36226
  31
0
  0
LINE
  8
0
  10
6.95461
  20
1.36226
  30
0
  11
6.97814
  21
1.30662
  31
0
  0
LINE
  8
0
  10
6.97814
  20
1.30662
  30
0
  11
6.90302
  21
1.22663
  31
0
  0
LINE
  8
0
  10
6.90302
  20
1.22663
  30
0
  11
6.84601
  21
1.24661
  31
0
  0
LINE
  8
0
  10
6.84601
  20
1.24661
  30
0
  11
6.79057
  21
1.26841
  31
0
  0
LINE
  8
0
  10
6.79057
  20
1.26841
  30
0
  11
6.73681
  21
1.29208
  31
0
  0
LINE
  8
0
  10
6.73681
  20
1.29208
  30
0
  11
6.6849
  21
1.31776
  31
0
  0
LINE
  8
0
  10
6.6849
  20
1.31776
  30
0
  11
6.63507
  21
1.34561
  31
0
  0
LINE
  8
0
  10
6.63507
  20
1.34561
  30
0
  11
6.61105
  21
1.36045
  31
0
  0
LINE
  8
0
  10
6.61105
  20
1.36045
  30
0
  11
6.5993
  21
1.36812
  31
0
  0
LINE
  8
0
  10
6.5993
  20
1.36812
  30
0
  11
6.58772
  21
1.37597
  31
0
  0
LINE
  8
0
  10
6.58772
  20
1.37597
  30
0
  11
6.48614
  21
1.28057
  31
0
  0
LINE
  8
0
  10
6.48614
  20
1.28057
  30
0
  11
6.49325
  21
1.26853
  31
0
  0
LINE
  8
0
  10
6.49325
  20
1.26853
  30
0
  11
6.50017
  21
1.25632
  31
0
  0
LINE
  8
0
  10
6.50017
  20
1.25632
  30
0
  11
6.51346
  21
1.23141
  31
0
  0
LINE
  8
0
  10
6.51346
  20
1.23141
  30
0
  11
6.53813
  21
1.17994
  31
0
  0
LINE
  8
0
  10
6.53813
  20
1.17994
  30
0
  11
6.5605
  21
1.12652
  31
0
  0
LINE
  8
0
  10
6.5605
  20
1.12652
  30
0
  11
6.58075
  21
1.07138
  31
0
  0
LINE
  8
0
  10
6.58075
  20
1.07138
  30
0
  11
6.59902
  21
1.01467
  31
0
  0
LINE
  8
0
  10
6.59902
  20
1.01467
  30
0
  11
6.61539
  21
0.95652
  31
0
  0
LINE
  8
0
  10
6.61539
  20
0.95652
  30
0
  11
6.53083
  21
0.88658
  31
0
  0
LINE
  8
0
  10
6.53083
  20
0.88658
  30
0
  11
6.47678
  21
0.91355
  31
0
  0
LINE
  8
0
  10
6.47678
  20
0.91355
  30
0
  11
6.42451
  21
0.94212
  31
0
  0
LINE
  8
0
  10
6.42451
  20
0.94212
  30
0
  11
6.37414
  21
0.97235
  31
0
  0
LINE
  8
0
  10
6.37414
  20
0.97235
  30
0
  11
6.32585
  21
1.00433
  31
0
  0
LINE
  8
0
  10
6.32585
  20
1.00433
  30
0
  11
6.27991
  21
1.0382
  31
0
  0
LINE
  8
0
  10
6.27991
  20
1.0382
  30
0
  11
6.25794
  21
1.05593
  31
0
  0
LINE
  8
0
  10
6.25794
  20
1.05593
  30
0
  11
6.24724
  21
1.06502
  31
0
  0
LINE
  8
0
  10
6.24724
  20
1.06502
  30
0
  11
6.23674
  21
1.07426
  31
0
  0
LINE
  8
0
  10
6.23674
  20
1.07426
  30
0
  11
6.124
  21
0.99235
  31
0
  0
LINE
  8
0
  10
6.124
  20
0.99235
  30
0
  11
6.12955
  21
0.97951
  31
0
  0
LINE
  8
0
  10
6.12955
  20
0.97951
  30
0
  11
6.13488
  21
0.96652
  31
0
  0
LINE
  8
0
  10
6.13488
  20
0.96652
  30
0
  11
6.14495
  21
0.94015
  31
0
  0
LINE
  8
0
  10
6.14495
  20
0.94015
  30
0
  11
6.16297
  21
0.88599
  31
0
  0
LINE
  8
0
  10
6.16297
  20
0.88599
  30
0
  11
6.17847
  21
0.83019
  31
0
  0
LINE
  8
0
  10
6.17847
  20
0.83019
  30
0
  11
6.19165
  21
0.77294
  31
0
  0
LINE
  8
0
  10
6.19165
  20
0.77294
  30
0
  11
6.20267
  21
0.71439
  31
0
  0
LINE
  8
0
  10
6.20267
  20
0.71439
  30
0
  11
6.21162
  21
0.65465
  31
0
  0
LINE
  8
0
  10
6.21162
  20
0.65465
  30
0
  11
6.11897
  21
0.59585
  31
0
  0
LINE
  8
0
  10
6.11897
  20
0.59585
  30
0
  11
6.06872
  21
0.62939
  31
0
  0
LINE
  8
0
  10
6.06872
  20
0.62939
  30
0
  11
6.02044
  21
0.66429
  31
0
  0
LINE
  8
0
  10
6.02044
  20
0.66429
  30
0
  11
5.97425
  21
0.70059
  31
0
  0
LINE
  8
0
  10
5.97425
  20
0.70059
  30
0
  11
5.93036
  21
0.73837
  31
0
  0
LINE
  8
0
  10
5.93036
  20
0.73837
  30
0
  11
5.88903
  21
0.77773
  31
0
  0
LINE
  8
0
  10
5.88903
  20
0.77773
  30
0
  11
5.86945
  21
0.79808
  31
0
  0
LINE
  8
0
  10
5.86945
  20
0.79808
  30
0
  11
5.85997
  21
0.80843
  31
0
  0
LINE
  8
0
  10
5.85997
  20
0.80843
  30
0
  11
5.85072
  21
0.81891
  31
0
  0
LINE
  8
0
  10
5.85072
  20
0.81891
  30
0
  11
5.7286
  21
0.75178
  31
0
  0
LINE
  8
0
  10
5.7286
  20
0.75178
  30
0
  11
5.73249
  21
0.73835
  31
0
  0
LINE
  8
0
  10
5.73249
  20
0.73835
  30
0
  11
5.73615
  21
0.72479
  31
0
  0
LINE
  8
0
  10
5.73615
  20
0.72479
  30
0
  11
5.74284
  21
0.69737
  31
0
  0
LINE
  8
0
  10
5.74284
  20
0.69737
  30
0
  11
5.75393
  21
0.64137
  31
0
  0
LINE
  8
0
  10
5.75393
  20
0.64137
  30
0
  11
5.76231
  21
0.58407
  31
0
  0
LINE
  8
0
  10
5.76231
  20
0.58407
  30
0
  11
5.76821
  21
0.52562
  31
0
  0
LINE
  8
0
  10
5.76821
  20
0.52562
  30
0
  11
5.77181
  21
0.46616
  31
0
  0
LINE
  8
0
  10
5.77181
  20
0.46616
  30
0
  11
5.7732
  21
0.40577
  31
0
  0
LINE
  8
0
  10
5.7732
  20
0.40577
  30
0
  11
5.67391
  21
0.35904
  31
0
  0
LINE
  8
0
  10
5.67391
  20
0.35904
  30
0
  11
5.62826
  21
0.39861
  31
0
  0
LINE
  8
0
  10
5.62826
  20
0.39861
  30
0
  11
5.58473
  21
0.43928
  31
0
  0
LINE
  8
0
  10
5.58473
  20
0.43928
  30
0
  11
5.54346
  21
0.48109
  31
0
  0
LINE
  8
0
  10
5.54346
  20
0.48109
  30
0
  11
5.50465
  21
0.52407
  31
0
  0
LINE
  8
0
  10
5.50465
  20
0.52407
  30
0
  11
5.46858
  21
0.56831
  31
0
  0
LINE
  8
0
  10
5.46858
  20
0.56831
  30
0
  11
5.45171
  21
0.59094
  31
0
  0
LINE
  8
0
  10
5.45171
  20
0.59094
  30
0
  11
5.4436
  21
0.6024
  31
0
  0
LINE
  8
0
  10
5.4436
  20
0.6024
  30
0
  11
5.43573
  21
0.61397
  31
0
  0
LINE
  8
0
  10
5.43573
  20
0.61397
  30
0
  11
5.30616
  21
0.56267
  31
0
  0
LINE
  8
0
  10
5.30616
  20
0.56267
  30
0
  11
5.30834
  21
0.54885
  31
0
  0
LINE
  8
0
  10
5.30834
  20
0.54885
  30
0
  11
5.31027
  21
0.53495
  31
0
  0
LINE
  8
0
  10
5.31027
  20
0.53495
  30
0
  11
5.31347
  21
0.5069
  31
0
  0
LINE
  8
0
  10
5.31347
  20
0.5069
  30
0
  11
5.31746
  21
0.44996
  31
0
  0
LINE
  8
0
  10
5.31746
  20
0.44996
  30
0
  11
5.31859
  21
0.39205
  31
0
  0
LINE
  8
0
  10
5.31859
  20
0.39205
  30
0
  11
5.31712
  21
0.33333
  31
0
  0
LINE
  8
0
  10
5.31712
  20
0.33333
  30
0
  11
5.31323
  21
0.27388
  31
0
  0
LINE
  8
0
  10
5.31323
  20
0.27388
  30
0
  11
5.30704
  21
0.21379
  31
0
  0
LINE
  8
0
  10
5.30704
  20
0.21379
  30
0
  11
5.20268
  21
0.17988
  31
0
  0
LINE
  8
0
  10
5.20268
  20
0.17988
  30
0
  11
5.16235
  21
0.22486
  31
0
  0
LINE
  8
0
  10
5.16235
  20
0.22486
  30
0
  11
5.12427
  21
0.27067
  31
0
  0
LINE
  8
0
  10
5.12427
  20
0.27067
  30
0
  11
5.08856
  21
0.31731
  31
0
  0
LINE
  8
0
  10
5.08856
  20
0.31731
  30
0
  11
5.05544
  21
0.36482
  31
0
  0
LINE
  8
0
  10
5.05544
  20
0.36482
  30
0
  11
5.0252
  21
0.41323
  31
0
  0
LINE
  8
0
  10
5.0252
  20
0.41323
  30
0
  11
5.0113
  21
0.4378
  31
0
  0
LINE
  8
0
  10
5.0113
  20
0.4378
  30
0
  11
5.00469
  21
0.45019
  31
0
  0
LINE
  8
0
  10
5.00469
  20
0.45019
  30
0
  11
4.99833
  21
0.46265
  31
0
  0
LINE
  8
0
  10
4.99833
  20
0.46265
  30
0
  11
4.86335
  21
0.42799
  31
0
  0
LINE
  8
0
  10
4.86335
  20
0.42799
  30
0
  11
4.86378
  21
0.41401
  31
0
  0
LINE
  8
0
  10
4.86378
  20
0.41401
  30
0
  11
4.86396
  21
0.39997
  31
0
  0
LINE
  8
0
  10
4.86396
  20
0.39997
  30
0
  11
4.86362
  21
0.37174
  31
0
  0
LINE
  8
0
  10
4.86362
  20
0.37174
  30
0
  11
4.86043
  21
0.31475
  31
0
  0
LINE
  8
0
  10
4.86043
  20
0.31475
  30
0
  11
4.8543
  21
0.25717
  31
0
  0
LINE
  8
0
  10
4.8543
  20
0.25717
  30
0
  11
4.84548
  21
0.19909
  31
0
  0
LINE
  8
0
  10
4.84548
  20
0.19909
  30
0
  11
4.83417
  21
0.14059
  31
0
  0
LINE
  8
0
  10
4.83417
  20
0.14059
  30
0
  11
4.8205
  21
0.08176
  31
0
  0
LINE
  8
0
  10
4.8205
  20
0.08176
  30
0
  11
4.71271
  21
0.06119
  31
0
  0
LINE
  8
0
  10
4.71271
  20
0.06119
  30
0
  11
4.67834
  21
0.11087
  31
0
  0
LINE
  8
0
  10
4.67834
  20
0.11087
  30
0
  11
4.64629
  21
0.16109
  31
0
  0
LINE
  8
0
  10
4.64629
  20
0.16109
  30
0
  11
4.61672
  21
0.21185
  31
0
  0
LINE
  8
0
  10
4.61672
  20
0.21185
  30
0
  11
4.58981
  21
0.26313
  31
0
  0
LINE
  8
0
  10
4.58981
  20
0.26313
  30
0
  11
4.56587
  21
0.31495
  31
0
  0
LINE
  8
0
  10
4.56587
  20
0.31495
  30
0
  11
4.55516
  21
0.34107
  31
0
  0
LINE
  8
0
  10
4.55516
  20
0.34107
  30
0
  11
4.55016
  21
0.35418
  31
0
  0
LINE
  8
0
  10
4.55016
  20
0.35418
  30
0
  11
4.54541
  21
0.36734
  31
0
  0
LINE
  8
0
  10
4.54541
  20
0.36734
  30
0
  11
4.40716
  21
0.34987
  31
0
  0
LINE
  8
0
  10
4.40716
  20
0.34987
  30
0
  11
4.40583
  21
0.33595
  31
0
  0
LINE
  8
0
  10
4.40583
  20
0.33595
  30
0
  11
4.40425
  21
0.322
  31
0
  0
LINE
  8
0
  10
4.40425
  20
0.322
  30
0
  11
4.40037
  21
0.29404
  31
0
  0
LINE
  8
0
  10
4.40037
  20
0.29404
  30
0
  11
4.39007
  21
0.23789
  31
0
  0
LINE
  8
0
  10
4.39007
  20
0.23789
  30
0
  11
4.37676
  21
0.18153
  31
0
  0
LINE
  8
0
  10
4.37676
  20
0.18153
  30
0
  11
4.36074
  21
0.12502
  31
0
  0
LINE
  8
0
  10
4.36074
  20
0.12502
  30
0
  11
4.34219
  21
0.0684
  31
0
  0
LINE
  8
0
  10
4.34219
  20
0.0684
  30
0
  11
4.32125
  21
0.01174
  31
0
  0
LINE
  8
0
  10
4.32125
  20
0.01174
  30
0
  11
4.21173
  21
0.00485
  31
0
  0
LINE
  8
0
  10
4.21173
  20
0.00485
  30
0
  11
4.18386
  21
0.05844
  31
0
  0
LINE
  8
0
  10
4.18386
  20
0.05844
  30
0
  11
4.15836
  21
0.11228
  31
0
  0
LINE
  8
0
  10
4.15836
  20
0.11228
  30
0
  11
4.13538
  21
0.16635
  31
0
  0
LINE
  8
0
  10
4.13538
  20
0.16635
  30
0
  11
4.11511
  21
0.2206
  31
0
  0
LINE
  8
0
  10
4.11511
  20
0.2206
  30
0
  11
4.09786
  21
0.27501
  31
0
  0
LINE
  8
0
  10
4.09786
  20
0.27501
  30
0
  11
4.0905
  21
0.30226
  31
0
  0
LINE
  8
0
  10
4.0905
  20
0.30226
  30
0
  11
4.08718
  21
0.3159
  31
0
  0
LINE
  8
0
  10
4.08718
  20
0.3159
  30
0
  11
4.08412
  21
0.32955
  31
0
  0
LINE
  8
0
  10
4.08412
  20
0.32955
  30
0
  11
3.94477
  21
0.32955
  31
0
  0
LINE
  8
0
  10
3.94477
  20
0.32955
  30
0
  11
3.94171
  21
0.3159
  31
0
  0
LINE
  8
0
  10
3.94171
  20
0.3159
  30
0
  11
3.93839
  21
0.30226
  31
0
  0
LINE
  8
0
  10
3.93839
  20
0.30226
  30
0
  11
3.93103
  21
0.27501
  31
0
  0
LINE
  8
0
  10
3.93103
  20
0.27501
  30
0
  11
3.91378
  21
0.2206
  31
0
  0
LINE
  8
0
  10
3.91378
  20
0.2206
  30
0
  11
3.89351
  21
0.16635
  31
0
  0
LINE
  8
0
  10
3.89351
  20
0.16635
  30
0
  11
3.87053
  21
0.11228
  31
0
  0
LINE
  8
0
  10
3.87053
  20
0.11228
  30
0
  11
3.84503
  21
0.05844
  31
0
  0
LINE
  8
0
  10
3.84503
  20
0.05844
  30
0
  11
3.81716
  21
0.00485
  31
0
  0
LINE
  8
0
  10
3.81716
  20
0.00485
  30
0
  11
3.70764
  21
0.01174
  31
0
  0
LINE
  8
0
  10
3.70764
  20
0.01174
  30
0
  11
3.6867
  21
0.0684
  31
0
  0
LINE
  8
0
  10
3.6867
  20
0.0684
  30
0
  11
3.66815
  21
0.12502
  31
0
  0
LINE
  8
0
  10
3.66815
  20
0.12502
  30
0
  11
3.65213
  21
0.18153
  31
0
  0
LINE
  8
0
  10
3.65213
  20
0.18153
  30
0
  11
3.63882
  21
0.23789
  31
0
  0
LINE
  8
0
  10
3.63882
  20
0.23789
  30
0
  11
3.62852
  21
0.29404
  31
0
  0
LINE
  8
0
  10
3.62852
  20
0.29404
  30
0
  11
3.62464
  21
0.322
  31
0
  0
LINE
  8
0
  10
3.62464
  20
0.322
  30
0
  11
3.62306
  21
0.33595
  31
0
  0
LINE
  8
0
  10
3.62306
  20
0.33595
  30
0
  11
3.62173
  21
0.34987
  31
0
  0
LINE
  8
0
  10
3.62173
  20
0.34987
  30
0
  11
3.48348
  21
0.36734
  31
0
  0
LINE
  8
0
  10
3.48348
  20
0.36734
  30
0
  11
3.47873
  21
0.35418
  31
0
  0
LINE
  8
0
  10
3.47873
  20
0.35418
  30
0
  11
3.47373
  21
0.34107
  31
0
  0
LINE
  8
0
  10
3.47373
  20
0.34107
  30
0
  11
3.46302
  21
0.31495
  31
0
  0
LINE
  8
0
  10
3.46302
  20
0.31495
  30
0
  11
3.43908
  21
0.26313
  31
0
  0
LINE
  8
0
  10
3.43908
  20
0.26313
  30
0
  11
3.41217
  21
0.21185
  31
0
  0
LINE
  8
0
  10
3.41217
  20
0.21185
  30
0
  11
3.3826
  21
0.16109
  31
0
  0
LINE
  8
0
  10
3.3826
  20
0.16109
  30
0
  11
3.35055
  21
0.11087
  31
0
  0
LINE
  8
0
  10
3.35055
  20
0.11087
  30
0
  11
3.31618
  21
0.06119
  31
0
  0
LINE
  8
0
  10
3.31618
  20
0.06119
  30
0
  11
3.20839
  21
0.08176
  31
0
  0
LINE
  8
0
  10
3.20839
  20
0.08176
  30
0
  11
3.19472
  21
0.14059
  31
0
  0
LINE
  8
0
  10
3.19472
  20
0.14059
  30
0
  11
3.18341
  21
0.19909
  31
0
  0
LINE
  8
0
  10
3.18341
  20
0.19909
  30
0
  11
3.17459
  21
0.25717
  31
0
  0
LINE
  8
0
  10
3.17459
  20
0.25717
  30
0
  11
3.16846
  21
0.31475
  31
0
  0
LINE
  8
0
  10
3.16846
  20
0.31475
  30
0
  11
3.16528
  21
0.37174
  31
0
  0
LINE
  8
0
  10
3.16528
  20
0.37174
  30
0
  11
3.16493
  21
0.39997
  31
0
  0
LINE
  8
0
  10
3.16493
  20
0.39997
  30
0
  11
3.16511
  21
0.41401
  31
0
  0
LINE
  8
0
  10
3.16511
  20
0.41401
  30
0
  11
3.16554
  21
0.42799
  31
0
  0
LINE
  8
0
  10
3.16554
  20
0.42799
  30
0
  11
3.03056
  21
0.46265
  31
0
  0
LINE
  8
0
  10
3.03056
  20
0.46265
  30
0
  11
3.0242
  21
0.45019
  31
0
  0
LINE
  8
0
  10
3.0242
  20
0.45019
  30
0
  11
3.01759
  21
0.4378
  31
0
  0
LINE
  8
0
  10
3.01759
  20
0.4378
  30
0
  11
3.00369
  21
0.41323
  31
0
  0
LINE
  8
0
  10
3.00369
  20
0.41323
  30
0
  11
2.97345
  21
0.36482
  31
0
  0
LINE
  8
0
  10
2.97345
  20
0.36482
  30
0
  11
2.94033
  21
0.31731
  31
0
  0
LINE
  8
0
  10
2.94033
  20
0.31731
  30
0
  11
2.90463
  21
0.27067
  31
0
  0
LINE
  8
0
  10
2.90463
  20
0.27067
  30
0
  11
2.86654
  21
0.22486
  31
0
  0
LINE
  8
0
  10
2.86654
  20
0.22486
  30
0
  11
2.82621
  21
0.17988
  31
0
  0
LINE
  8
0
  10
2.82621
  20
0.17988
  30
0
  11
2.72185
  21
0.21379
  31
0
  0
LINE
  8
0
  10
2.72185
  20
0.21379
  30
0
  11
2.71566
  21
0.27388
  31
0
  0
LINE
  8
0
  10
2.71566
  20
0.27388
  30
0
  11
2.71177
  21
0.33333
  31
0
  0
LINE
  8
0
  10
2.71177
  20
0.33333
  30
0
  11
2.7103
  21
0.39205
  31
0
  0
LINE
  8
0
  10
2.7103
  20
0.39205
  30
0
  11
2.71143
  21
0.44996
  31
0
  0
LINE
  8
0
  10
2.71143
  20
0.44996
  30
0
  11
2.71542
  21
0.5069
  31
0
  0
LINE
  8
0
  10
2.71542
  20
0.5069
  30
0
  11
2.71862
  21
0.53495
  31
0
  0
LINE
  8
0
  10
2.71862
  20
0.53495
  30
0
  11
2.72055
  21
0.54885
  31
0
  0
LINE
  8
0
  10
2.72055
  20
0.54885
  30
0
  11
2.72273
  21
0.56267
  31
0
  0
LINE
  8
0
  10
2.72273
  20
0.56267
  30
0
  11
2.59316
  21
0.61397
  31
0
  0
LINE
  8
0
  10
2.59316
  20
0.61397
  30
0
  11
2.58529
  21
0.6024
  31
0
  0
LINE
  8
0
  10
2.58529
  20
0.6024
  30
0
  11
2.57718
  21
0.59094
  31
0
  0
LINE
  8
0
  10
2.57718
  20
0.59094
  30
0
  11
2.56031
  21
0.56831
  31
0
  0
LINE
  8
0
  10
2.56031
  20
0.56831
  30
0
  11
2.52424
  21
0.52407
  31
0
  0
LINE
  8
0
  10
2.52424
  20
0.52407
  30
0
  11
2.48543
  21
0.48109
  31
0
  0
LINE
  8
0
  10
2.48543
  20
0.48109
  30
0
  11
2.44416
  21
0.43928
  31
0
  0
LINE
  8
0
  10
2.44416
  20
0.43928
  30
0
  11
2.40063
  21
0.39861
  31
0
  0
LINE
  8
0
  10
2.40063
  20
0.39861
  30
0
  11
2.35498
  21
0.35904
  31
0
  0
LINE
  8
0
  10
2.35498
  20
0.35904
  30
0
  11
2.25569
  21
0.40577
  31
0
  0
LINE
  8
0
  10
2.25569
  20
0.40577
  30
0
  11
2.25708
  21
0.46616
  31
0
  0
LINE
  8
0
  10
2.25708
  20
0.46616
  30
0
  11
2.26068
  21
0.52562
  31
0
  0
LINE
  8
0
  10
2.26068
  20
0.52562
  30
0
  11
2.26658
  21
0.58407
  31
0
  0
LINE
  8
0
  10
2.26658
  20
0.58407
  30
0
  11
2.27496
  21
0.64137
  31
0
  0
LINE
  8
0
  10
2.27496
  20
0.64137
  30
0
  11
2.28605
  21
0.69737
  31
0
  0
LINE
  8
0
  10
2.28605
  20
0.69737
  30
0
  11
2.29274
  21
0.72479
  31
0
  0
LINE
  8
0
  10
2.29274
  20
0.72479
  30
0
  11
2.2964
  21
0.73835
  31
0
  0
LINE
  8
0
  10
2.2964
  20
0.73835
  30
0
  11
2.30029
  21
0.75178
  31
0
  0
LINE
  8
0
  10
2.30029
  20
0.75178
  30
0
  11
2.17817
  21
0.81891
  31
0
  0
LINE
  8
0
  10
2.17817
  20
0.81891
  30
0
  11
2.16892
  21
0.80843
  31
0
  0
LINE
  8
0
  10
2.16892
  20
0.80843
  30
0
  11
2.15944
  21
0.79808
  31
0
  0
LINE
  8
0
  10
2.15944
  20
0.79808
  30
0
  11
2.13986
  21
0.77773
  31
0
  0
LINE
  8
0
  10
2.13986
  20
0.77773
  30
0
  11
2.09853
  21
0.73837
  31
0
  0
LINE
  8
0
  10
2.09853
  20
0.73837
  30
0
  11
2.05464
  21
0.70059
  31
0
  0
LINE
  8
0
  10
2.05464
  20
0.70059
  30
0
  11
2.00845
  21
0.66429
  31
0
  0
LINE
  8
0
  10
2.00845
  20
0.66429
  30
0
  11
1.96017
  21
0.62939
  31
0
  0
LINE
  8
0
  10
1.96017
  20
0.62939
  30
0
  11
1.90992
  21
0.59585
  31
0
  0
LINE
  8
0
  10
1.90992
  20
0.59585
  30
0
  11
1.81727
  21
0.65465
  31
0
  0
LINE
  8
0
  10
1.81727
  20
0.65465
  30
0
  11
1.82622
  21
0.71439
  31
0
  0
LINE
  8
0
  10
1.82622
  20
0.71439
  30
0
  11
1.83724
  21
0.77294
  31
0
  0
LINE
  8
0
  10
1.83724
  20
0.77294
  30
0
  11
1.85042
  21
0.83019
  31
0
  0
LINE
  8
0
  10
1.85042
  20
0.83019
  30
0
  11
1.86592
  21
0.88599
  31
0
  0
LINE
  8
0
  10
1.86592
  20
0.88599
  30
0
  11
1.88394
  21
0.94015
  31
0
  0
LINE
  8
0
  10
1.88394
  20
0.94015
  30
0
  11
1.89401
  21
0.96652
  31
0
  0
LINE
  8
0
  10
1.89401
  20
0.96652
  30
0
  11
1.89934
  21
0.97951
  31
0
  0
LINE
  8
0
  10
1.89934
  20
0.97951
  30
0
  11
1.90489
  21
0.99235
  31
0
  0
LINE
  8
0
  10
1.90489
  20
0.99235
  30
0
  11
1.79215
  21
1.07426
  31
0
  0
LINE
  8
0
  10
1.79215
  20
1.07426
  30
0
  11
1.78165
  21
1.06502
  31
0
  0
LINE
  8
0
  10
1.78165
  20
1.06502
  30
0
  11
1.77095
  21
1.05593
  31
0
  0
LINE
  8
0
  10
1.77095
  20
1.05593
  30
0
  11
1.74898
  21
1.0382
  31
0
  0
LINE
  8
0
  10
1.74898
  20
1.0382
  30
0
  11
1.70304
  21
1.00433
  31
0
  0
LINE
  8
0
  10
1.70304
  20
1.00433
  30
0
  11
1.65475
  21
0.97235
  31
0
  0
LINE
  8
0
  10
1.65475
  20
0.97235
  30
0
  11
1.60438
  21
0.94212
  31
0
  0
LINE
  8
0
  10
1.60438
  20
0.94212
  30
0
  11
1.55211
  21
0.91355
  31
0
  0
LINE
  8
0
  10
1.55211
  20
0.91355
  30
0
  11
1.49806
  21
0.88658
  31
0
  0
LINE
  8
0
  10
1.49806
  20
0.88658
  30
0
  11
1.4135
  21
0.95652
  31
0
  0
LINE
  8
0
  10
1.4135
  20
0.95652
  30
0
  11
1.42987
  21
1.01467
  31
0
  0
LINE
  8
0
  10
1.42987
  20
1.01467
  30
0
  11
1.44814
  21
1.07138
  31
0
  0
LINE
  8
0
  10
1.44814
  20
1.07138
  30
0
  11
1.46839
  21
1.12652
  31
0
  0
LINE
  8
0
  10
1.46839
  20
1.12652
  30
0
  11
1.49076
  21
1.17994
  31
0
  0
LINE
  8
0
  10
1.49076
  20
1.17994
  30
0
  11
1.51543
  21
1.23141
  31
0
  0
LINE
  8
0
  10
1.51543
  20
1.23141
  30
0
  11
1.52872
  21
1.25632
  31
0
  0
LINE
  8
0
  10
1.52872
  20
1.25632
  30
0
  11
1.53564
  21
1.26853
  31
0
  0
LINE
  8
0
  10
1.53564
  20
1.26853
  30
0
  11
1.54275
  21
1.28057
  31
0
  0
LINE
  8
0
  10
1.54275
  20
1.28057
  30
0
  11
1.44117
  21
1.37597
  31
0
  0
LINE
  8
0
  10
1.44117
  20
1.37597
  30
0
  11
1.42959
  21
1.36812
  31
0
  0
LINE
  8
0
  10
1.42959
  20
1.36812
  30
0
  11
1.41784
  21
1.36045
  31
0
  0
LINE
  8
0
  10
1.41784
  20
1.36045
  30
0
  11
1.39382
  21
1.34561
  31
0
  0
LINE
  8
0
  10
1.39382
  20
1.34561
  30
0
  11
1.34399
  21
1.31776
  31
0
  0
LINE
  8
0
  10
1.34399
  20
1.31776
  30
0
  11
1.29208
  21
1.29208
  31
0
  0
LINE
  8
0
  10
1.29208
  20
1.29208
  30
0
  11
1.23832
  21
1.26841
  31
0
  0
LINE
  8
0
  10
1.23832
  20
1.26841
  30
0
  11
1.18288
  21
1.24661
  31
0
  0
LINE
  8
0
  10
1.18288
  20
1.24661
  30
0
  11
1.12587
  21
1.22663
  31
0
  0
LINE
  8
0
  10
1.12587
  20
1.22663
  30
0
  11
1.05075
  21
1.30662
  31
0
  0
LINE
  8
0
  10
1.05075
  20
1.30662
  30
0
  11
1.07428
  21
1.36226
  31
0
  0
LINE
  8
0
  10
1.07428
  20
1.36226
  30
0
  11
1.09951
  21
1.41623
  31
0
  0
LINE
  8
0
  10
1.09951
  20
1.41623
  30
0
  11
1.12652
  21
1.46839
  31
0
  0
LINE
  8
0
  10
1.12652
  20
1.46839
  30
0
  11
1.1554
  21
1.51859
  31
0
  0
LINE
  8
0
  10
1.1554
  20
1.51859
  30
0
  11
1.18633
  21
1.56657
  31
0
  0
LINE
  8
0
  10
1.18633
  20
1.56657
  30
0
  11
1.20264
  21
1.58961
  31
0
  0
LINE
  8
0
  10
1.20264
  20
1.58961
  30
0
  11
1.21103
  21
1.60086
  31
0
  0
LINE
  8
0
  10
1.21103
  20
1.60086
  30
0
  11
1.2196
  21
1.61192
  31
0
  0
LINE
  8
0
  10
1.2196
  20
1.61192
  30
0
  11
1.13077
  21
1.71929
  31
0
  0
LINE
  8
0
  10
1.13077
  20
1.71929
  30
0
  11
1.1183
  21
1.71295
  31
0
  0
LINE
  8
0
  10
1.1183
  20
1.71295
  30
0
  11
1.10568
  21
1.70681
  31
0
  0
LINE
  8
0
  10
1.10568
  20
1.70681
  30
0
  11
1.07999
  21
1.69511
  31
0
  0
LINE
  8
0
  10
1.07999
  20
1.69511
  30
0
  11
1.02707
  21
1.67372
  31
0
  0
LINE
  8
0
  10
1.02707
  20
1.67372
  30
0
  11
0.97235
  21
1.65475
  31
0
  0
LINE
  8
0
  10
0.97235
  20
1.65475
  30
0
  11
0.91604
  21
1.638
  31
0
  0
LINE
  8
0
  10
0.91604
  20
1.638
  30
0
  11
0.8583
  21
1.62333
  31
0
  0
LINE
  8
0
  10
0.8583
  20
1.62333
  30
0
  11
0.79924
  21
1.61065
  31
0
  0
LINE
  8
0
  10
0.79924
  20
1.61065
  30
0
  11
0.73474
  21
1.69942
  31
0
  0
LINE
  8
0
  10
0.73474
  20
1.69942
  30
0
  11
0.76506
  21
1.75167
  31
0
  0
LINE
  8
0
  10
0.76506
  20
1.75167
  30
0
  11
0.79685
  21
1.80205
  31
0
  0
LINE
  8
0
  10
0.79685
  20
1.80205
  30
0
  11
0.83019
  21
1.85042
  31
0
  0
LINE
  8
0
  10
0.83019
  20
1.85042
  30
0
  11
0.86513
  21
1.8966
  31
0
  0
LINE
  8
0
  10
0.86513
  20
1.8966
  30
0
  11
0.90183
  21
1.94033
  31
0
  0
LINE
  8
0
  10
0.90183
  20
1.94033
  30
0
  11
0.9209
  21
1.96114
  31
0
  0
LINE
  8
0
  10
0.9209
  20
1.96114
  30
0
  11
0.93064
  21
1.97125
  31
0
  0
LINE
  8
0
  10
0.93064
  20
1.97125
  30
0
  11
0.94052
  21
1.98115
  31
0
  0
LINE
  8
0
  10
0.94052
  20
1.98115
  30
0
  11
0.86585
  21
2.09881
  31
0
  0
LINE
  8
0
  10
0.86585
  20
2.09881
  30
0
  11
0.85269
  21
2.09408
  31
0
  0
LINE
  8
0
  10
0.85269
  20
2.09408
  30
0
  11
0.83939
  21
2.08958
  31
0
  0
LINE
  8
0
  10
0.83939
  20
2.08958
  30
0
  11
0.81244
  21
2.08118
  31
0
  0
LINE
  8
0
  10
0.81244
  20
2.08118
  30
0
  11
0.75725
  21
2.06659
  31
0
  0
LINE
  8
0
  10
0.75725
  20
2.06659
  30
0
  11
0.70059
  21
2.05464
  31
0
  0
LINE
  8
0
  10
0.70059
  20
2.05464
  30
0
  11
0.64263
  21
2.04507
  31
0
  0
LINE
  8
0
  10
0.64263
  20
2.04507
  30
0
  11
0.5835
  21
2.03775
  31
0
  0
LINE
  8
0
  10
0.5835
  20
2.03775
  30
0
  11
0.52332
  21
2.03257
  31
0
  0
LINE
  8
0
  10
0.52332
  20
2.03257
  30
0
  11
0.47046
  21
2.12873
  31
0
  0
LINE
  8
0
  10
0.47046
  20
2.12873
  30
0
  11
0.50708
  21
2.17677
  31
0
  0
LINE
  8
0
  10
0.50708
  20
2.17677
  30
0
  11
0.54494
  21
2.22277
  31
0
  0
LINE
  8
0
  10
0.54494
  20
2.22277
  30
0
  11
0.58407
  21
2.26658
  31
0
  0
LINE
  8
0
  10
0.58407
  20
2.26658
  30
0
  11
0.62453
  21
2.30802
  31
0
  0
LINE
  8
0
  10
0.62453
  20
2.30802
  30
0
  11
0.66641
  21
2.3468
  31
0
  0
LINE
  8
0
  10
0.66641
  20
2.3468
  30
0
  11
0.68795
  21
2.36506
  31
0
  0
LINE
  8
0
  10
0.68795
  20
2.36506
  30
0
  11
0.69887
  21
2.37387
  31
0
  0
LINE
  8
0
  10
0.69887
  20
2.37387
  30
0
  11
0.70992
  21
2.38245
  31
0
  0
LINE
  8
0
  10
0.70992
  20
2.38245
  30
0
  11
0.65058
  21
2.50854
  31
0
  0
LINE
  8
0
  10
0.65058
  20
2.50854
  30
0
  11
0.63693
  21
2.5055
  31
0
  0
LINE
  8
0
  10
0.63693
  20
2.5055
  30
0
  11
0.62318
  21
2.50269
  31
0
  0
LINE
  8
0
  10
0.62318
  20
2.50269
  30
0
  11
0.59538
  21
2.49774
  31
0
  0
LINE
  8
0
  10
0.59538
  20
2.49774
  30
0
  11
0.53881
  21
2.49019
  31
0
  0
LINE
  8
0
  10
0.53881
  20
2.49019
  30
0
  11
0.48109
  21
2.48543
  31
0
  0
LINE
  8
0
  10
0.48109
  20
2.48543
  30
0
  11
0.42239
  21
2.4832
  31
0
  0
LINE
  8
0
  10
0.42239
  20
2.4832
  30
0
  11
0.36281
  21
2.48335
  31
0
  0
LINE
  8
0
  10
0.36281
  20
2.48335
  30
0
  11
0.30246
  21
2.48575
  31
0
  0
LINE
  8
0
  10
0.30246
  20
2.48575
  30
0
  11
0.26206
  21
2.58778
  31
0
  0
LINE
  8
0
  10
0.26206
  20
2.58778
  30
0
  11
0.30441
  21
2.63085
  31
0
  0
LINE
  8
0
  10
0.30441
  20
2.63085
  30
0
  11
0.34774
  21
2.67174
  31
0
  0
LINE
  8
0
  10
0.34774
  20
2.67174
  30
0
  11
0.39205
  21
2.7103
  31
0
  0
LINE
  8
0
  10
0.39205
  20
2.7103
  30
0
  11
0.43739
  21
2.74634
  31
0
  0
LINE
  8
0
  10
0.43739
  20
2.74634
  30
0
  11
0.4838
  21
2.77957
  31
0
  0
LINE
  8
0
  10
0.4838
  20
2.77957
  30
0
  11
0.50745
  21
2.79498
  31
0
  0
LINE
  8
0
  10
0.50745
  20
2.79498
  30
0
  11
0.5194
  21
2.80235
  31
0
  0
LINE
  8
0
  10
0.5194
  20
2.80235
  30
0
  11
0.53143
  21
2.80948
  31
0
  0
LINE
  8
0
  10
0.53143
  20
2.80948
  30
0
  11
0.48837
  21
2.94202
  31
0
  0
LINE
  8
0
  10
0.48837
  20
2.94202
  30
0
  11
0.47444
  21
2.94071
  31
0
  0
LINE
  8
0
  10
0.47444
  20
2.94071
  30
0
  11
0.46045
  21
2.93965
  31
0
  0
LINE
  8
0
  10
0.46045
  20
2.93965
  30
0
  11
0.43225
  21
2.93822
  31
0
  0
LINE
  8
0
  10
0.43225
  20
2.93822
  30
0
  11
0.37517
  21
2.93782
  31
0
  0
LINE
  8
0
  10
0.37517
  20
2.93782
  30
0
  11
0.31731
  21
2.94033
  31
0
  0
LINE
  8
0
  10
0.31731
  20
2.94033
  30
0
  11
0.2588
  21
2.94548
  31
0
  0
LINE
  8
0
  10
0.2588
  20
2.94548
  30
0
  11
0.19971
  21
2.95309
  31
0
  0
LINE
  8
0
  10
0.19971
  20
2.95309
  30
0
  11
0.14013
  21
2.96304
  31
0
  0
LINE
  8
0
  10
0.14013
  20
2.96304
  30
0
  11
0.11284
  21
3.06933
  31
0
  0
LINE
  8
0
  10
0.11284
  20
3.06933
  30
0
  11
0.16026
  21
3.10675
  31
0
  0
LINE
  8
0
  10
0.16026
  20
3.10675
  30
0
  11
0.20837
  21
3.14189
  31
0
  0
LINE
  8
0
  10
0.20837
  20
3.14189
  30
0
  11
0.25717
  21
3.17459
  31
0
  0
LINE
  8
0
  10
0.25717
  20
3.17459
  30
0
  11
0.30666
  21
3.20467
  31
0
  0
LINE
  8
0
  10
0.30666
  20
3.20467
  30
0
  11
0.35687
  21
3.23181
  31
0
  0
LINE
  8
0
  10
0.35687
  20
3.23181
  30
0
  11
0.38227
  21
3.24414
  31
0
  0
LINE
  8
0
  10
0.38227
  20
3.24414
  30
0
  11
0.39504
  21
3.24996
  31
0
  0
LINE
  8
0
  10
0.39504
  20
3.24996
  30
0
  11
0.40788
  21
3.25552
  31
0
  0
LINE
  8
0
  10
0.40788
  20
3.25552
  30
0
  11
0.38176
  21
3.39241
  31
0
  0
LINE
  8
0
  10
0.38176
  20
3.39241
  30
0
  11
0.36778
  21
3.39286
  31
0
  0
LINE
  8
0
  10
0.36778
  20
3.39286
  30
0
  11
0.35376
  21
3.39356
  31
0
  0
LINE
  8
0
  10
0.35376
  20
3.39356
  30
0
  11
0.32561
  21
3.39568
  31
0
  0
LINE
  8
0
  10
0.32561
  20
3.39568
  30
0
  11
0.26893
  21
3.40243
  31
0
  0
LINE
  8
0
  10
0.26893
  20
3.40243
  30
0
  11
0.21185
  21
3.41217
  31
0
  0
LINE
  8
0
  10
0.21185
  20
3.41217
  30
0
  11
0.15443
  21
3.42462
  31
0
  0
LINE
  8
0
  10
0.15443
  20
3.42462
  30
0
  11
0.09677
  21
3.43958
  31
0
  0
LINE
  8
0
  10
0.09677
  20
3.43958
  30
0
  11
0.0389
  21
3.45691
  31
0
  0
LINE
  8
0
  10
0.0389
  20
3.45691
  30
0
  11
0.02515
  21
3.56578
  31
0
  0
LINE
  8
0
  10
0.02515
  20
3.56578
  30
0
  11
0.07688
  21
3.59697
  31
0
  0
LINE
  8
0
  10
0.07688
  20
3.59697
  30
0
  11
0.12902
  21
3.6258
  31
0
  0
LINE
  8
0
  10
0.12902
  20
3.6258
  30
0
  11
0.18153
  21
3.65213
  31
0
  0
LINE
  8
0
  10
0.18153
  20
3.65213
  30
0
  11
0.2344
  21
3.67576
  31
0
  0
LINE
  8
0
  10
0.2344
  20
3.67576
  30
0
  11
0.28762
  21
3.6964
  31
0
  0
LINE
  8
0
  10
0.28762
  20
3.6964
  30
0
  11
0.31436
  21
3.70545
  31
0
  0
LINE
  8
0
  10
0.31436
  20
3.70545
  30
0
  11
0.32777
  21
3.70962
  31
0
  0
LINE
  8
0
  10
0.32777
  20
3.70962
  30
0
  11
0.3412
  21
3.71353
  31
0
  0
LINE
  8
0
  10
0.3412
  20
3.71353
  30
0
  11
0.33245
  21
3.85261
  31
0
  0
LINE
  8
0
  10
0.33245
  20
3.85261
  30
0
  11
0.31863
  21
3.85481
  31
0
  0
LINE
  8
0
  10
0.31863
  20
3.85481
  30
0
  11
0.30481
  21
3.85726
  31
0
  0
LINE
  8
0
  10
0.30481
  20
3.85726
  30
0
  11
0.27715
  21
3.86289
  31
0
  0
LINE
  8
0
  10
0.27715
  20
3.86289
  30
0
  11
0.22176
  21
3.87669
  31
0
  0
LINE
  8
0
  10
0.22176
  20
3.87669
  30
0
  11
0.16635
  21
3.89351
  31
0
  0
LINE
  8
0
  10
0.16635
  20
3.89351
  30
0
  11
0.11095
  21
3.91306
  31
0
  0
LINE
  8
0
  10
0.11095
  20
3.91306
  30
0
  11
0.05561
  21
3.93512
  31
0
  0
LINE
  8
0
  10
0.05561
  20
3.93512
  30
0
  11
0.00037
  21
3.95958
  31
0
  0
LINE
  8
0
  10
0.00037
  20
3.95958
  30
0
  11
0.00037
  21
4.06931
  31
0
  0
LINE
  8
0
  10
0.00037
  20
4.06931
  30
0
  11
0.05561
  21
4.09377
  31
0
  0
LINE
  8
0
  10
0.05561
  20
4.09377
  30
0
  11
0.11095
  21
4.11584
  31
0
  0
LINE
  8
0
  10
0.11095
  20
4.11584
  30
0
  11
0.16635
  21
4.13538
  31
0
  0
LINE
  8
0
  10
0.16635
  20
4.13538
  30
0
  11
0.22176
  21
4.1522
  31
0
  0
LINE
  8
0
  10
0.22176
  20
4.1522
  30
0
  11
0.27715
  21
4.166
  31
0
  0
LINE
  8
0
  10
0.27715
  20
4.166
  30
0
  11
0.30481
  21
4.17163
  31
0
  0
LINE
  8
0
  10
0.30481
  20
4.17163
  30
0
  11
0.31863
  21
4.17408
  31
0
  0
LINE
  8
0
  10
0.31863
  20
4.17408
  30
0
  11
0.33245
  21
4.17628
  31
0
  0
LINE
  8
0
  10
0.33245
  20
4.17628
  30
0
  11
0.3412
  21
4.31536
  31
0
  0
LINE
  8
0
  10
0.3412
  20
4.31536
  30
0
  11
0.32777
  21
4.31927
  31
0
  0
LINE
  8
0
  10
0.32777
  20
4.31927
  30
0
  11
0.31436
  21
4.32344
  31
0
  0
LINE
  8
0
  10
0.31436
  20
4.32344
  30
0
  11
0.28762
  21
4.33249
  31
0
  0
LINE
  8
0
  10
0.28762
  20
4.33249
  30
0
  11
0.2344
  21
4.35313
  31
0
  0
LINE
  8
0
  10
0.2344
  20
4.35313
  30
0
  11
0.18153
  21
4.37676
  31
0
  0
LINE
  8
0
  10
0.18153
  20
4.37676
  30
0
  11
0.12902
  21
4.40309
  31
0
  0
LINE
  8
0
  10
0.12902
  20
4.40309
  30
0
  11
0.07688
  21
4.43192
  31
0
  0
LINE
  8
0
  10
0.07688
  20
4.43192
  30
0
  11
0.02515
  21
4.46311
  31
0
  0
LINE
  8
0
  10
0.02515
  20
4.46311
  30
0
  11
0.0389
  21
4.57198
  31
0
  0
LINE
  8
0
  10
0.0389
  20
4.57198
  30
0
  11
0.09677
  21
4.58932
  31
0
  0
LINE
  8
0
  10
0.09677
  20
4.58932
  30
0
  11
0.15443
  21
4.60427
  31
0
  0
LINE
  8
0
  10
0.15443
  20
4.60427
  30
0
  11
0.21185
  21
4.61672
  31
0
  0
LINE
  8
0
  10
0.21185
  20
4.61672
  30
0
  11
0.26893
  21
4.62646
  31
0
  0
LINE
  8
0
  10
0.26893
  20
4.62646
  30
0
  11
0.32561
  21
4.63321
  31
0
  0
LINE
  8
0
  10
0.32561
  20
4.63321
  30
0
  11
0.35376
  21
4.63533
  31
0
  0
LINE
  8
0
  10
0.35376
  20
4.63533
  30
0
  11
0.36778
  21
4.63603
  31
0
  0
LINE
  8
0
  10
0.36778
  20
4.63603
  30
0
  11
0.38176
  21
4.63648
  31
0
  0
LINE
  8
0
  10
0.38176
  20
4.63648
  30
0
  11
0.40788
  21
4.77337
  31
0
  0
LINE
  8
0
  10
0.40788
  20
4.77337
  30
0
  11
0.39504
  21
4.77893
  31
0
  0
LINE
  8
0
  10
0.39504
  20
4.77893
  30
0
  11
0.38227
  21
4.78475
  31
0
  0
LINE
  8
0
  10
0.38227
  20
4.78475
  30
0
  11
0.35687
  21
4.79708
  31
0
  0
LINE
  8
0
  10
0.35687
  20
4.79708
  30
0
  11
0.30666
  21
4.82422
  31
0
  0
LINE
  8
0
  10
0.30666
  20
4.82422
  30
0
  11
0.25717
  21
4.8543
  31
0
  0
LINE
  8
0
  10
0.25717
  20
4.8543
  30
0
  11
0.20837
  21
4.887
  31
0
  0
LINE
  8
0
  10
0.20837
  20
4.887
  30
0
  11
0.16026
  21
4.92214
  31
0
  0
LINE
  8
0
  10
0.16026
  20
4.92214
  30
0
  11
0.11284
  21
4.95956
  31
0
  0
LINE
  8
0
  10
0.11284
  20
4.95956
  30
0
  11
0.14013
  21
5.06585
  31
0
  0
LINE
  8
0
  10
0.14013
  20
5.06585
  30
0
  11
0.19971
  21
5.0758
  31
0
  0
LINE
  8
0
  10
0.19971
  20
5.0758
  30
0
  11
0.2588
  21
5.08341
  31
0
  0
LINE
  8
0
  10
0.2588
  20
5.08341
  30
0
  11
0.31731
  21
5.08856
  31
0
  0
LINE
  8
0
  10
0.31731
  20
5.08856
  30
0
  11
0.37517
  21
5.09107
  31
0
  0
LINE
  8
0
  10
0.37517
  20
5.09107
  30
0
  11
0.43225
  21
5.09067
  31
0
  0
LINE
  8
0
  10
0.43225
  20
5.09067
  30
0
  11
0.46045
  21
5.08924
  31
0
  0
LINE
  8
0
  10
0.46045
  20
5.08924
  30
0
  11
0.47444
  21
5.08818
  31
0
  0
LINE
  8
0
  10
0.47444
  20
5.08818
  30
0
  11
0.48837
  21
5.08687
  31
0
  0
LINE
  8
0
  10
0.48837
  20
5.08687
  30
0
  11
0.53143
  21
5.21941
  31
0
  0
LINE
  8
0
  10
0.53143
  20
5.21941
  30
0
  11
0.5194
  21
5.22654
  31
0
  0
LINE
  8
0
  10
0.5194
  20
5.22654
  30
0
  11
0.50745
  21
5.23391
  31
0
  0
LINE
  8
0
  10
0.50745
  20
5.23391
  30
0
  11
0.4838
  21
5.24932
  31
0
  0
LINE
  8
0
  10
0.4838
  20
5.24932
  30
0
  11
0.43739
  21
5.28255
  31
0
  0
LINE
  8
0
  10
0.43739
  20
5.28255
  30
0
  11
0.39205
  21
5.31859
  31
0
  0
LINE
  8
0
  10
0.39205
  20
5.31859
  30
0
  11
0.34774
  21
5.35715
  31
0
  0
LINE
  8
0
  10
0.34774
  20
5.35715
  30
0
  11
0.30441
  21
5.39804
  31
0
  0
LINE
  8
0
  10
0.30441
  20
5.39804
  30
0
  11
0.26206
  21
5.44111
  31
0
  0
LINE
  8
0
  10
0.26206
  20
5.44111
  30
0
  11
0.30246
  21
5.54314
  31
0
  0
LINE
  8
0
  10
0.30246
  20
5.54314
  30
0
  11
0.36281
  21
5.54554
  31
0
  0
LINE
  8
0
  10
0.36281
  20
5.54554
  30
0
  11
0.42239
  21
5.54569
  31
0
  0
LINE
  8
0
  10
0.42239
  20
5.54569
  30
0
  11
0.48109
  21
5.54346
  31
0
  0
LINE
  8
0
  10
0.48109
  20
5.54346
  30
0
  11
0.53881
  21
5.5387
  31
0
  0
LINE
  8
0
  10
0.53881
  20
5.5387
  30
0
  11
0.59538
  21
5.53115
  31
0
  0
LINE
  8
0
  10
0.59538
  20
5.53115
  30
0
  11
0.62318
  21
5.5262
  31
0
  0
LINE
  8
0
  10
0.62318
  20
5.5262
  30
0
  11
0.63693
  21
5.52339
  31
0
  0
LINE
  8
0
  10
0.63693
  20
5.52339
  30
0
  11
0.65058
  21
5.52035
  31
0
  0
LINE
  8
0
  10
0.65058
  20
5.52035
  30
0
  11
0.70992
  21
5.64644
  31
0
  0
LINE
  8
0
  10
0.70992
  20
5.64644
  30
0
  11
0.69887
  21
5.65502
  31
0
  0
LINE
  8
0
  10
0.69887
  20
5.65502
  30
0
  11
0.68795
  21
5.66384
  31
0
  0
LINE
  8
0
  10
0.68795
  20
5.66384
  30
0
  11
0.66641
  21
5.68209
  31
0
  0
LINE
  8
0
  10
0.66641
  20
5.68209
  30
0
  11
0.62453
  21
5.72087
  31
0
  0
LINE
  8
0
  10
0.62453
  20
5.72087
  30
0
  11
0.58407
  21
5.76231
  31
0
  0
LINE
  8
0
  10
0.58407
  20
5.76231
  30
0
  11
0.54494
  21
5.80612
  31
0
  0
LINE
  8
0
  10
0.54494
  20
5.80612
  30
0
  11
0.50708
  21
5.85212
  31
0
  0
LINE
  8
0
  10
0.50708
  20
5.85212
  30
0
  11
0.47046
  21
5.90016
  31
0
  0
LINE
  8
0
  10
0.47046
  20
5.90016
  30
0
  11
0.52332
  21
5.99632
  31
0
  0
LINE
  8
0
  10
0.52332
  20
5.99632
  30
0
  11
0.5835
  21
5.99114
  31
0
  0
LINE
  8
0
  10
0.5835
  20
5.99114
  30
0
  11
0.64263
  21
5.98382
  31
0
  0
LINE
  8
0
  10
0.64263
  20
5.98382
  30
0
  11
0.70059
  21
5.97425
  31
0
  0
LINE
  8
0
  10
0.70059
  20
5.97425
  30
0
  11
0.75725
  21
5.9623
  31
0
  0
LINE
  8
0
  10
0.75725
  20
5.9623
  30
0
  11
0.81244
  21
5.94771
  31
0
  0
LINE
  8
0
  10
0.81244
  20
5.94771
  30
0
  11
0.83939
  21
5.93931
  31
0
  0
LINE
  8
0
  10
0.83939
  20
5.93931
  30
0
  11
0.85269
  21
5.93481
  31
0
  0
LINE
  8
0
  10
0.85269
  20
5.93481
  30
0
  11
0.86585
  21
5.93008
  31
0
  0
LINE
  8
0
  10
0.86585
  20
5.93008
  30
0
  11
0.94052
  21
6.04774
  31
0
  0
LINE
  8
0
  10
0.94052
  20
6.04774
  30
0
  11
0.93064
  21
6.05764
  31
0
  0
LINE
  8
0
  10
0.93064
  20
6.05764
  30
0
  11
0.9209
  21
6.06775
  31
0
  0
LINE
  8
0
  10
0.9209
  20
6.06775
  30
0
  11
0.90183
  21
6.08856
  31
0
  0
LINE
  8
0
  10
0.90183
  20
6.08856
  30
0
  11
0.86513
  21
6.13229
  31
0
  0
LINE
  8
0
  10
0.86513
  20
6.13229
  30
0
  11
0.83019
  21
6.17847
  31
0
  0
LINE
  8
0
  10
0.83019
  20
6.17847
  30
0
  11
0.79685
  21
6.22684
  31
0
  0
LINE
  8
0
  10
0.79685
  20
6.22684
  30
0
  11
0.76506
  21
6.27722
  31
0
  0
LINE
  8
0
  10
0.76506
  20
6.27722
  30
0
  11
0.73474
  21
6.32947
  31
0
  0
LINE
  8
0
  10
0.73474
  20
6.32947
  30
0
  11
0.79924
  21
6.41825
  31
0
  0
LINE
  8
0
  10
0.79924
  20
6.41825
  30
0
  11
0.8583
  21
6.40556
  31
0
  0
LINE
  8
0
  10
0.8583
  20
6.40556
  30
0
  11
0.91604
  21
6.39089
  31
0
  0
LINE
  8
0
  10
0.91604
  20
6.39089
  30
0
  11
0.97235
  21
6.37414
  31
0
  0
LINE
  8
0
  10
0.97235
  20
6.37414
  30
0
  11
1.02707
  21
6.35517
  31
0
  0
LINE
  8
0
  10
1.02707
  20
6.35517
  30
0
  11
1.07999
  21
6.33378
  31
0
  0
LINE
  8
0
  10
1.07999
  20
6.33378
  30
0
  11
1.10568
  21
6.32208
  31
0
  0
LINE
  8
0
  10
1.10568
  20
6.32208
  30
0
  11
1.1183
  21
6.31594
  31
0
  0
LINE
  8
0
  10
1.1183
  20
6.31594
  30
0
  11
1.13077
  21
6.3096
  31
0
  0
LINE
  8
0
  10
1.13077
  20
6.3096
  30
0
  11
1.2196
  21
6.41697
  31
0
  0
LINE
  8
0
  10
1.2196
  20
6.41697
  30
0
  11
1.21103
  21
6.42803
  31
0
  0
LINE
  8
0
  10
1.21103
  20
6.42803
  30
0
  11
1.20264
  21
6.43928
  31
0
  0
LINE
  8
0
  10
1.20264
  20
6.43928
  30
0
  11
1.18633
  21
6.46232
  31
0
  0
LINE
  8
0
  10
1.18633
  20
6.46232
  30
0
  11
1.1554
  21
6.5103
  31
0
  0
LINE
  8
0
  10
1.1554
  20
6.5103
  30
0
  11
1.12652
  21
6.5605
  31
0
  0
LINE
  8
0
  10
1.12652
  20
6.5605
  30
0
  11
1.09951
  21
6.61266
  31
0
  0
LINE
  8
0
  10
1.09951
  20
6.61266
  30
0
  11
1.07428
  21
6.66663
  31
0
  0
LINE
  8
0
  10
1.07428
  20
6.66663
  30
0
  11
1.05075
  21
6.72227
  31
0
  0
LINE
  8
0
  10
1.05075
  20
6.72227
  30
0
  11
1.12587
  21
6.80226
  31
0
  0
LINE
  8
0
  10
1.12587
  20
6.80226
  30
0
  11
1.18288
  21
6.78228
  31
0
  0
LINE
  8
0
  10
1.18288
  20
6.78228
  30
0
  11
1.23832
  21
6.76048
  31
0
  0
LINE
  8
0
  10
1.23832
  20
6.76048
  30
0
  11
1.29208
  21
6.73681
  31
0
  0
LINE
  8
0
  10
1.29208
  20
6.73681
  30
0
  11
1.34399
  21
6.71113
  31
0
  0
LINE
  8
0
  10
1.34399
  20
6.71113
  30
0
  11
1.39382
  21
6.68328
  31
0
  0
LINE
  8
0
  10
1.39382
  20
6.68328
  30
0
  11
1.41784
  21
6.66845
  31
0
  0
LINE
  8
0
  10
1.41784
  20
6.66845
  30
0
  11
1.42959
  21
6.66077
  31
0
  0
LINE
  8
0
  10
1.42959
  20
6.66077
  30
0
  11
1.44117
  21
6.65292
  31
0
  0
LINE
  8
0
  10
1.44117
  20
6.65292
  30
0
  11
1.54275
  21
6.74832
  31
0
  0
LINE
  8
0
  10
1.54275
  20
6.74832
  30
0
  11
1.53564
  21
6.76036
  31
0
  0
LINE
  8
0
  10
1.53564
  20
6.76036
  30
0
  11
1.52872
  21
6.77258
  31
0
  0
LINE
  8
0
  10
1.52872
  20
6.77258
  30
0
  11
1.51543
  21
6.79748
  31
0
  0
LINE
  8
0
  10
1.51543
  20
6.79748
  30
0
  11
1.49076
  21
6.84895
  31
0
  0
LINE
  8
0
  10
1.49076
  20
6.84895
  30
0
  11
1.46839
  21
6.90237
  31
0
  0
LINE
  8
0
  10
1.46839
  20
6.90237
  30
0
  11
1.44814
  21
6.95751
  31
0
  0
LINE
  8
0
  10
1.44814
  20
6.95751
  30
0
  11
1.42987
  21
7.01422
  31
0
  0
LINE
  8
0
  10
1.42987
  20
7.01422
  30
0
  11
1.4135
  21
7.07237
  31
0
  0
LINE
  8
0
  10
1.4135
  20
7.07237
  30
0
  11
1.49806
  21
7.14231
  31
0
  0
LINE
  8
0
  10
1.49806
  20
7.14231
  30
0
  11
1.55211
  21
7.11534
  31
0
  0
LINE
  8
0
  10
1.55211
  20
7.11534
  30
0
  11
1.60438
  21
7.08677
  31
0
  0
LINE
  8
0
  10
1.60438
  20
7.08677
  30
0
  11
1.65475
  21
7.05654
  31
0
  0
LINE
  8
0
  10
1.65475
  20
7.05654
  30
0
  11
1.70304
  21
7.02456
  31
0
  0
LINE
  8
0
  10
1.70304
  20
7.02456
  30
0
  11
1.74898
  21
6.99069
  31
0
  0
LINE
  8
0
  10
1.74898
  20
6.99069
  30
0
  11
1.77095
  21
6.97296
  31
0
  0
LINE
  8
0
  10
1.77095
  20
6.97296
  30
0
  11
1.78165
  21
6.96388
  31
0
  0
LINE
  8
0
  10
1.78165
  20
6.96388
  30
0
  11
1.79215
  21
6.95463
  31
0
  0
LINE
  8
0
  10
1.79215
  20
6.95463
  30
0
  11
1.90489
  21
7.03654
  31
0
  0
LINE
  8
0
  10
1.90489
  20
7.03654
  30
0
  11
1.89934
  21
7.04938
  31
0
  0
LINE
  8
0
  10
1.89934
  20
7.04938
  30
0
  11
1.89401
  21
7.06237
  31
0
  0
LINE
  8
0
  10
1.89401
  20
7.06237
  30
0
  11
1.88394
  21
7.08874
  31
0
  0
LINE
  8
0
  10
1.88394
  20
7.08874
  30
0
  11
1.86592
  21
7.1429
  31
0
  0
LINE
  8
0
  10
1.86592
  20
7.1429
  30
0
  11
1.85042
  21
7.19871
  31
0
  0
LINE
  8
0
  10
1.85042
  20
7.19871
  30
0
  11
1.83724
  21
7.25595
  31
0
  0
LINE
  8
0
  10
1.83724
  20
7.25595
  30
0
  11
1.82622
  21
7.3145
  31
0
  0
LINE
  8
0
  10
1.82622
  20
7.3145
  30
0
  11
1.81727
  21
7.37424
  31
0
  0
LINE
  8
0
  10
1.81727
  20
7.37424
  30
0
  11
1.90992
  21
7.43304
  31
0
  0
LINE
  8
0
  10
1.90992
  20
7.43304
  30
0
  11
1.96017
  21
7.3995
  31
0
  0
LINE
  8
0
  10
1.96017
  20
7.3995
  30
0
  11
2.00845
  21
7.36461
  31
0
  0
LINE
  8
0
  10
2.00845
  20
7.36461
  30
0
  11
2.05464
  21
7.3283
  31
0
  0
LINE
  8
0
  10
2.05464
  20
7.3283
  30
0
  11
2.09853
  21
7.29053
  31
0
  0
LINE
  8
0
  10
2.09853
  20
7.29053
  30
0
  11
2.13986
  21
7.25116
  31
0
  0
LINE
  8
0
  10
2.13986
  20
7.25116
  30
0
  11
2.15944
  21
7.23082
  31
0
  0
LINE
  8
0
  10
2.15944
  20
7.23082
  30
0
  11
2.16892
  21
7.22046
  31
0
  0
LINE
  8
0
  10
2.16892
  20
7.22046
  30
0
  11
2.17817
  21
7.20998
  31
0
  0
LINE
  8
0
  10
2.17817
  20
7.20998
  30
0
  11
2.30029
  21
7.27711
  31
0
  0
LINE
  8
0
  10
2.30029
  20
7.27711
  30
0
  11
2.2964
  21
7.29055
  31
0
  0
LINE
  8
0
  10
2.2964
  20
7.29055
  30
0
  11
2.29274
  21
7.3041
  31
0
  0
LINE
  8
0
  10
2.29274
  20
7.3041
  30
0
  11
2.28605
  21
7.33152
  31
0
  0
LINE
  8
0
  10
2.28605
  20
7.33152
  30
0
  11
2.27496
  21
7.38752
  31
0
  0
LINE
  8
0
  10
2.27496
  20
7.38752
  30
0
  11
2.26658
  21
7.44482
  31
0
  0
LINE
  8
0
  10
2.26658
  20
7.44482
  30
0
  11
2.26068
  21
7.50327
  31
0
  0
LINE
  8
0
  10
2.26068
  20
7.50327
  30
0
  11
2.25708
  21
7.56273
  31
0
  0
LINE
  8
0
  10
2.25708
  20
7.56273
  30
0
  11
2.25569
  21
7.62312
  31
0
  0
LINE
  8
0
  10
2.25569
  20
7.62312
  30
0
  11
2.35498
  21
7.66985
  31
0
  0
LINE
  8
0
  10
2.35498
  20
7.66985
  30
0
  11
2.40063
  21
7.63028
  31
0
  0
LINE
  8
0
  10
2.40063
  20
7.63028
  30
0
  11
2.44416
  21
7.58961
  31
0
  0
LINE
  8
0
  10
2.44416
  20
7.58961
  30
0
  11
2.48543
  21
7.5478
  31
0
  0
LINE
  8
0
  10
2.48543
  20
7.5478
  30
0
  11
2.52424
  21
7.50482
  31
0
  0
LINE
  8
0
  10
2.52424
  20
7.50482
  30
0
  11
2.56031
  21
7.46058
  31
0
  0
LINE
  8
0
  10
2.56031
  20
7.46058
  30
0
  11
2.57718
  21
7.43795
  31
0
  0
LINE
  8
0
  10
2.57718
  20
7.43795
  30
0
  11
2.58529
  21
7.42649
  31
0
  0
LINE
  8
0
  10
2.58529
  20
7.42649
  30
0
  11
2.59316
  21
7.41492
  31
0
  0
LINE
  8
0
  10
2.59316
  20
7.41492
  30
0
  11
2.72273
  21
7.46623
  31
0
  0
LINE
  8
0
  10
2.72273
  20
7.46623
  30
0
  11
2.72055
  21
7.48004
  31
0
  0
LINE
  8
0
  10
2.72055
  20
7.48004
  30
0
  11
2.71862
  21
7.49394
  31
0
  0
LINE
  8
0
  10
2.71862
  20
7.49394
  30
0
  11
2.71542
  21
7.52199
  31
0
  0
LINE
  8
0
  10
2.71542
  20
7.52199
  30
0
  11
2.71143
  21
7.57893
  31
0
  0
LINE
  8
0
  10
2.71143
  20
7.57893
  30
0
  11
2.7103
  21
7.63684
  31
0
  0
LINE
  8
0
  10
2.7103
  20
7.63684
  30
0
  11
2.71177
  21
7.69556
  31
0
  0
LINE
  8
0
  10
2.71177
  20
7.69556
  30
0
  11
2.71566
  21
7.75501
  31
0
  0
LINE
  8
0
  10
2.71566
  20
7.75501
  30
0
  11
2.72185
  21
7.8151
  31
0
  0
LINE
  8
0
  10
2.72185
  20
7.8151
  30
0
  11
2.82621
  21
7.84901
  31
0
  0
LINE
  8
0
  10
2.82621
  20
7.84901
  30
0
  11
2.86654
  21
7.80403
  31
0
  0
LINE
  8
0
  10
2.86654
  20
7.80403
  30
0
  11
2.90463
  21
7.75822
  31
0
  0
LINE
  8
0
  10
2.90463
  20
7.75822
  30
0
  11
2.94033
  21
7.71158
  31
0
  0
LINE
  8
0
  10
2.94033
  20
7.71158
  30
0
  11
2.97345
  21
7.66407
  31
0
  0
LINE
  8
0
  10
2.97345
  20
7.66407
  30
0
  11
3.00369
  21
7.61566
  31
0
  0
LINE
  8
0
  10
3.00369
  20
7.61566
  30
0
  11
3.01759
  21
7.59109
  31
0
  0
LINE
  8
0
  10
3.01759
  20
7.59109
  30
0
  11
3.0242
  21
7.5787
  31
0
  0
LINE
  8
0
  10
3.0242
  20
7.5787
  30
0
  11
3.03056
  21
7.56625
  31
0
  0
LINE
  8
0
  10
3.03056
  20
7.56625
  30
0
  11
3.16554
  21
7.6009
  31
0
  0
LINE
  8
0
  10
3.16554
  20
7.6009
  30
0
  11
3.16511
  21
7.61488
  31
0
  0
LINE
  8
0
  10
3.16511
  20
7.61488
  30
0
  11
3.16493
  21
7.62892
  31
0
  0
LINE
  8
0
  10
3.16493
  20
7.62892
  30
0
  11
3.16528
  21
7.65715
  31
0
  0
LINE
  8
0
  10
3.16528
  20
7.65715
  30
0
  11
3.16846
  21
7.71414
  31
0
  0
LINE
  8
0
  10
3.16846
  20
7.71414
  30
0
  11
3.17459
  21
7.77172
  31
0
  0
LINE
  8
0
  10
3.17459
  20
7.77172
  30
0
  11
3.18341
  21
7.8298
  31
0
  0
LINE
  8
0
  10
3.18341
  20
7.8298
  30
0
  11
3.19472
  21
7.8883
  31
0
  0
LINE
  8
0
  10
3.19472
  20
7.8883
  30
0
  11
3.20839
  21
7.94713
  31
0
  0
LINE
  8
0
  10
3.20839
  20
7.94713
  30
0
  11
3.31618
  21
7.9677
  31
0
  0
LINE
  8
0
  10
3.31618
  20
7.9677
  30
0
  11
3.35055
  21
7.91802
  31
0
  0
LINE
  8
0
  10
3.35055
  20
7.91802
  30
0
  11
3.3826
  21
7.8678
  31
0
  0
LINE
  8
0
  10
3.3826
  20
7.8678
  30
0
  11
3.41217
  21
7.81705
  31
0
  0
LINE
  8
0
  10
3.41217
  20
7.81705
  30
0
  11
3.43908
  21
7.76576
  31
0
  0
LINE
  8
0
  10
3.43908
  20
7.76576
  30
0
  11
3.46302
  21
7.71394
  31
0
  0
LINE
  8
0
  10
3.46302
  20
7.71394
  30
0
  11
3.47373
  21
7.68782
  31
0
  0
LINE
  8
0
  10
3.47373
  20
7.68782
  30
0
  11
3.47873
  21
7.67471
  31
0
  0
LINE
  8
0
  10
3.47873
  20
7.67471
  30
0
  11
3.48348
  21
7.66155
  31
0
  0
LINE
  8
0
  10
3.48348
  20
7.66155
  30
0
  11
3.62173
  21
7.67902
  31
0
  0
LINE
  8
0
  10
3.62173
  20
7.67902
  30
0
  11
3.62306
  21
7.69294
  31
0
  0
LINE
  8
0
  10
3.62306
  20
7.69294
  30
0
  11
3.62464
  21
7.70689
  31
0
  0
LINE
  8
0
  10
3.62464
  20
7.70689
  30
0
  11
3.62852
  21
7.73485
  31
0
  0
LINE
  8
0
  10
3.62852
  20
7.73485
  30
0
  11
3.63882
  21
7.791
  31
0
  0
LINE
  8
0
  10
3.63882
  20
7.791
  30
0
  11
3.65213
  21
7.84736
  31
0
  0
LINE
  8
0
  10
3.65213
  20
7.84736
  30
0
  11
3.66815
  21
7.90388
  31
0
  0
LINE
  8
0
  10
3.66815
  20
7.90388
  30
0
  11
3.6867
  21
7.96049
  31
0
  0
LINE
  8
0
  10
3.6867
  20
7.96049
  30
0
  11
3.70764
  21
8.01715
  31
0
  0
LINE
  8
0
  10
3.70764
  20
8.01715
  30
0
  11
3.81716
  21
8.02404
  31
0
  0
LINE
  8
0
  10
3.81716
  20
8.02404
  30
0
  11
3.84503
  21
7.97045
  31
0
  0
LINE
  8
0
  10
3.84503
  20
7.97045
  30
0
  11
3.87053
  21
7.91661
  31
0
  0
LINE
  8
0
  10
3.87053
  20
7.91661
  30
0
  11
3.89351
  21
7.86255
  31
0
  0
LINE
  8
0
  10
3.89351
  20
7.86255
  30
0
  11
3.91378
  21
7.80829
  31
0
  0
LINE
  8
0
  10
3.91378
  20
7.80829
  30
0
  11
3.93103
  21
7.75388
  31
0
  0
LINE
  8
0
  10
3.93103
  20
7.75388
  30
0
  11
3.93839
  21
7.72663
  31
0
  0
LINE
  8
0
  10
3.93839
  20
7.72663
  30
0
  11
3.94171
  21
7.71299
  31
0
  0
LINE
  8
0
  10
3.94171
  20
7.71299
  30
0
  11
3.94477
  21
7.69934
  31
0
  0
LINE
  8
0
  10
3.94477
  20
7.69934
  30
0
  11
4.08412
  21
7.69934
  31
0
  0
LINE
  8
0
  10
4.08412
  20
7.69934
  30
0
  11
4.08718
  21
7.71299
  31
0
  0
LINE
  8
0
  10
4.08718
  20
7.71299
  30
0
  11
4.0905
  21
7.72663
  31
0
  0
LINE
  8
0
  10
4.0905
  20
7.72663
  30
0
  11
4.09786
  21
7.75388
  31
0
  0
LINE
  8
0
  10
4.09786
  20
7.75388
  30
0
  11
4.11511
  21
7.80829
  31
0
  0
LINE
  8
0
  10
4.11511
  20
7.80829
  30
0
  11
4.13538
  21
7.86255
  31
0
  0
LINE
  8
0
  10
4.13538
  20
7.86255
  30
0
  11
4.15836
  21
7.91661
  31
0
  0
LINE
  8
0
  10
4.15836
  20
7.91661
  30
0
  11
4.18386
  21
7.97045
  31
0
  0
LINE
  8
0
  10
4.18386
  20
7.97045
  30
0
  11
4.21173
  21
8.02404
  31
0
  0
LINE
  8
0
  10
4.21173
  20
8.02404
  30
0
  11
4.32125
  21
8.01715
  31
0
  0
LINE
  8
0
  10
4.32125
  20
8.01715
  30
0
  11
4.34219
  21
7.96049
  31
0
  0
LINE
  8
0
  10
4.34219
  20
7.96049
  30
0
  11
4.36074
  21
7.90388
  31
0
  0
LINE
  8
0
  10
4.36074
  20
7.90388
  30
0
  11
4.37676
  21
7.84736
  31
0
  0
LINE
  8
0
  10
4.37676
  20
7.84736
  30
0
  11
4.39007
  21
7.791
  31
0
  0
LINE
  8
0
  10
4.39007
  20
7.791
  30
0
  11
4.40037
  21
7.73485
  31
0
  0
LINE
  8
0
  10
4.40037
  20
7.73485
  30
0
  11
4.40425
  21
7.70689
  31
0
  0
LINE
  8
0
  10
4.40425
  20
7.70689
  30
0
  11
4.40583
  21
7.69294
  31
0
  0
LINE
  8
0
  10
4.40583
  20
7.69294
  30
0
  11
4.40716
  21
7.67902
  31
0
  0
LINE
  8
0
  10
4.40716
  20
7.67902
  30
0
  11
4.54541
  21
7.66155
  31
0
  0
LINE
  8
0
  10
4.54541
  20
7.66155
  30
0
  11
4.55016
  21
7.67471
  31
0
  0
LINE
  8
0
  10
4.55016
  20
7.67471
  30
0
  11
4.55516
  21
7.68782
  31
0
  0
LINE
  8
0
  10
4.55516
  20
7.68782
  30
0
  11
4.56587
  21
7.71394
  31
0
  0
LINE
  8
0
  10
4.56587
  20
7.71394
  30
0
  11
4.58981
  21
7.76576
  31
0
  0
LINE
  8
0
  10
4.58981
  20
7.76576
  30
0
  11
4.61672
  21
7.81705
  31
0
  0
LINE
  8
0
  10
4.61672
  20
7.81705
  30
0
  11
4.64629
  21
7.8678
  31
0
  0
LINE
  8
0
  10
4.64629
  20
7.8678
  30
0
  11
4.67834
  21
7.91802
  31
0
  0
LINE
  8
0
  10
4.67834
  20
7.91802
  30
0
  11
4.71271
  21
7.9677
  31
0
  0
LINE
  8
0
  10
4.71271
  20
7.9677
  30
0
  11
4.8205
  21
7.94713
  31
0
  0
LINE
  8
0
  10
4.8205
  20
7.94713
  30
0
  11
4.83417
  21
7.8883
  31
0
  0
LINE
  8
0
  10
4.83417
  20
7.8883
  30
0
  11
4.84548
  21
7.8298
  31
0
  0
LINE
  8
0
  10
4.84548
  20
7.8298
  30
0
  11
4.8543
  21
7.77172
  31
0
  0
LINE
  8
0
  10
4.8543
  20
7.77172
  30
0
  11
4.86043
  21
7.71414
  31
0
  0
LINE
  8
0
  10
4.86043
  20
7.71414
  30
0
  11
4.86362
  21
7.65715
  31
0
  0
LINE
  8
0
  10
4.86362
  20
7.65715
  30
0
  11
4.86396
  21
7.62892
  31
0
  0
LINE
  8
0
  10
4.86396
  20
7.62892
  30
0
  11
4.86378
  21
7.61488
  31
0
  0
LINE
  8
0
  10
4.86378
  20
7.61488
  30
0
  11
4.86335
  21
7.6009
  31
0
  0
LINE
  8
0
  10
4.86335
  20
7.6009
  30
0
  11
4.99833
  21
7.56625
  31
0
  0
LINE
  8
0
  10
4.99833
  20
7.56625
  30
0
  11
5.00469
  21
7.5787
  31
0
  0
LINE
  8
0
  10
5.00469
  20
7.5787
  30
0
  11
5.0113
  21
7.59109
  31
0
  0
LINE
  8
0
  10
5.0113
  20
7.59109
  30
0
  11
5.0252
  21
7.61566
  31
0
  0
LINE
  8
0
  10
5.0252
  20
7.61566
  30
0
  11
5.05544
  21
7.66407
  31
0
  0
LINE
  8
0
  10
5.05544
  20
7.66407
  30
0
  11
5.08856
  21
7.71158
  31
0
  0
LINE
  8
0
  10
5.08856
  20
7.71158
  30
0
  11
5.12427
  21
7.75822
  31
0
  0
LINE
  8
0
  10
5.12427
  20
7.75822
  30
0
  11
5.16235
  21
7.80403
  31
0
  0
LINE
  8
0
  10
5.16235
  20
7.80403
  30
0
  11
5.20268
  21
7.84901
  31
0
  0
LINE
  8
0
  10
5.20268
  20
7.84901
  30
0
  11
5.30704
  21
7.8151
  31
0
  0
LINE
  8
0
  10
5.30704
  20
7.8151
  30
0
  11
5.31323
  21
7.75501
  31
0
  0
LINE
  8
0
  10
5.31323
  20
7.75501
  30
0
  11
5.31712
  21
7.69556
  31
0
  0
LINE
  8
0
  10
5.31712
  20
7.69556
  30
0
  11
5.31859
  21
7.63684
  31
0
  0
LINE
  8
0
  10
5.31859
  20
7.63684
  30
0
  11
5.31746
  21
7.57893
  31
0
  0
LINE
  8
0
  10
5.31746
  20
7.57893
  30
0
  11
5.31347
  21
7.52199
  31
0
  0
LINE
  8
0
  10
5.31347
  20
7.52199
  30
0
  11
5.31027
  21
7.49394
  31
0
  0
LINE
  8
0
  10
5.31027
  20
7.49394
  30
0
  11
5.30834
  21
7.48004
  31
0
  0
LINE
  8
0
  10
5.30834
  20
7.48004
  30
0
  11
5.30616
  21
7.46623
  31
0
  0
LINE
  8
0
  10
5.30616
  20
7.46623
  30
0
  11
5.43573
  21
7.41492
  31
0
  0
LINE
  8
0
  10
5.43573
  20
7.41492
  30
0
  11
5.4436
  21
7.42649
  31
0
  0
LINE
  8
0
  10
5.4436
  20
7.42649
  30
0
  11
5.45171
  21
7.43795
  31
0
  0
LINE
  8
0
  10
5.45171
  20
7.43795
  30
0
  11
5.46858
  21
7.46058
  31
0
  0
LINE
  8
0
  10
5.46858
  20
7.46058
  30
0
  11
5.50465
  21
7.50482
  31
0
  0
LINE
  8
0
  10
5.50465
  20
7.50482
  30
0
  11
5.54346
  21
7.5478
  31
0
  0
LINE
  8
0
  10
5.54346
  20
7.5478
  30
0
  11
5.58473
  21
7.58961
  31
0
  0
LINE
  8
0
  10
5.58473
  20
7.58961
  30
0
  11
5.62826
  21
7.63028
  31
0
  0
LINE
  8
0
  10
5.62826
  20
7.63028
  30
0
  11
5.67391
  21
7.66985
  31
0
  0
LINE
  8
0
  10
5.67391
  20
7.66985
  30
0
  11
5.7732
  21
7.62312
  31
0
  0
LINE
  8
0
  10
5.7732
  20
7.62312
  30
0
  11
5.77181
  21
7.56273
  31
0
  0
LINE
  8
0
  10
5.77181
  20
7.56273
  30
0
  11
5.76821
  21
7.50327
  31
0
  0
LINE
  8
0
  10
5.76821
  20
7.50327
  30
0
  11
5.76231
  21
7.44482
  31
0
  0
LINE
  8
0
  10
5.76231
  20
7.44482
  30
0
  11
5.75393
  21
7.38752
  31
0
  0
LINE
  8
0
  10
5.75393
  20
7.38752
  30
0
  11
5.74284
  21
7.33152
  31
0
  0
LINE
  8
0
  10
5.74284
  20
7.33152
  30
0
  11
5.73615
  21
7.3041
  31
0
  0
LINE
  8
0
  10
5.73615
  20
7.3041
  30
0
  11
5.73249
  21
7.29055
  31
0
  0
LINE
  8
0
  10
5.73249
  20
7.29055
  30
0
  11
5.7286
  21
7.27711
  31
0
  0
LINE
  8
0
  10
5.7286
  20
7.27711
  30
0
  11
5.85072
  21
7.20998
  31
0
  0
LINE
  8
0
  10
5.85072
  20
7.20998
  30
0
  11
5.85997
  21
7.22046
  31
0
  0
LINE
  8
0
  10
5.85997
  20
7.22046
  30
0
  11
5.86945
  21
7.23082
  31
0
  0
LINE
  8
0
  10
5.86945
  20
7.23082
  30
0
  11
5.88903
  21
7.25116
  31
0
  0
LINE
  8
0
  10
5.88903
  20
7.25116
  30
0
  11
5.93036
  21
7.29053
  31
0
  0
LINE
  8
0
  10
5.93036
  20
7.29053
  30
0
  11
5.97425
  21
7.3283
  31
0
  0
LINE
  8
0
  10
5.97425
  20
7.3283
  30
0
  11
6.02044
  21
7.36461
  31
0
  0
LINE
  8
0
  10
6.02044
  20
7.36461
  30
0
  11
6.06872
  21
7.3995
  31
0
  0
LINE
  8
0
  10
6.06872
  20
7.3995
  30
0
  11
6.11897
  21
7.43304
  31
0
  0
LINE
  8
0
  10
6.11897
  20
7.43304
  30
0
  11
6.21162
  21
7.37424
  31
0
  0
LINE
  8
0
  10
6.21162
  20
7.37424
  30
0
  11
6.20267
  21
7.3145
  31
0
  0
LINE
  8
0
  10
6.20267
  20
7.3145
  30
0
  11
6.19165
  21
7.25595
  31
0
  0
LINE
  8
0
  10
6.19165
  20
7.25595
  30
0
  11
6.17847
  21
7.19871
  31
0
  0
LINE
  8
0
  10
6.17847
  20
7.19871
  30
0
  11
6.16297
  21
7.1429
  31
0
  0
LINE
  8
0
  10
6.16297
  20
7.1429
  30
0
  11
6.14495
  21
7.08874
  31
0
  0
LINE
  8
0
  10
6.14495
  20
7.08874
  30
0
  11
6.13488
  21
7.06237
  31
0
  0
LINE
  8
0
  10
6.13488
  20
7.06237
  30
0
  11
6.12955
  21
7.04938
  31
0
  0
LINE
  8
0
  10
6.12955
  20
7.04938
  30
0
  11
6.124
  21
7.03654
  31
0
  0
LINE
  8
0
  10
6.124
  20
7.03654
  30
0
  11
6.23674
  21
6.95463
  31
0
  0
LINE
  8
0
  10
6.23674
  20
6.95463
  30
0
  11
6.24724
  21
6.96388
  31
0
  0
LINE
  8
0
  10
6.24724
  20
6.96388
  30
0
  11
6.25794
  21
6.97296
  31
0
  0
LINE
  8
0
  10
6.25794
  20
6.97296
  30
0
  11
6.27991
  21
6.99069
  31
0
  0
LINE
  8
0
  10
6.27991
  20
6.99069
  30
0
  11
6.32585
  21
7.02456
  31
0
  0
LINE
  8
0
  10
6.32585
  20
7.02456
  30
0
  11
6.37414
  21
7.05654
  31
0
  0
LINE
  8
0
  10
6.37414
  20
7.05654
  30
0
  11
6.42451
  21
7.08677
  31
0
  0
LINE
  8
0
  10
6.42451
  20
7.08677
  30
0
  11
6.47678
  21
7.11534
  31
0
  0
LINE
  8
0
  10
6.47678
  20
7.11534
  30
0
  11
6.53083
  21
7.14231
  31
0
  0
LINE
  8
0
  10
6.53083
  20
7.14231
  30
0
  11
6.61539
  21
7.07237
  31
0
  0
LINE
  8
0
  10
6.61539
  20
7.07237
  30
0
  11
6.59902
  21
7.01422
  31
0
  0
LINE
  8
0
  10
6.59902
  20
7.01422
  30
0
  11
6.58075
  21
6.95751
  31
0
  0
LINE
  8
0
  10
6.58075
  20
6.95751
  30
0
  11
6.5605
  21
6.90237
  31
0
  0
LINE
  8
0
  10
6.5605
  20
6.90237
  30
0
  11
6.53813
  21
6.84895
  31
0
  0
LINE
  8
0
  10
6.53813
  20
6.84895
  30
0
  11
6.51346
  21
6.79748
  31
0
  0
LINE
  8
0
  10
6.51346
  20
6.79748
  30
0
  11
6.50017
  21
6.77258
  31
0
  0
LINE
  8
0
  10
6.50017
  20
6.77258
  30
0
  11
6.49325
  21
6.76036
  31
0
  0
LINE
  8
0
  10
6.49325
  20
6.76036
  30
0
  11
6.48614
  21
6.74832
  31
0
  0
LINE
  8
0
  10
6.48614
  20
6.74832
  30
0
  11
6.58772
  21
6.65292
  31
0
  0
LINE
  8
0
  10
6.58772
  20
6.65292
  30
0
  11
6.5993
  21
6.66077
  31
0
  0
LINE
  8
0
  10
6.5993
  20
6.66077
  30
0
  11
6.61105
  21
6.66845
  31
0
  0
LINE
  8
0
  10
6.61105
  20
6.66845
  30
0
  11
6.63507
  21
6.68328
  31
0
  0
LINE
  8
0
  10
6.63507
  20
6.68328
  30
0
  11
6.6849
  21
6.71113
  31
0
  0
LINE
  8
0
  10
6.6849
  20
6.71113
  30
0
  11
6.73681
  21
6.73681
  31
0
  0
LINE
  8
0
  10
6.73681
  20
6.73681
  30
0
  11
6.79057
  21
6.76048
  31
0
  0
LINE
  8
0
  10
6.79057
  20
6.76048
  30
0
  11
6.84601
  21
6.78228
  31
0
  0
LINE
  8
0
  10
6.84601
  20
6.78228
  30
0
  11
6.90302
  21
6.80226
  31
0
  0
LINE
  8
0
  10
6.90302
  20
6.80226
  30
0
  11
6.97814
  21
6.72227
  31
0
  0
LINE
  8
0
  10
6.97814
  20
6.72227
  30
0
  11
6.95461
  21
6.66663
  31
0
  0
LINE
  8
0
  10
6.95461
  20
6.66663
  30
0
  11
6.92938
  21
6.61266
  31
0
  0
LINE
  8
0
  10
6.92938
  20
6.61266
  30
0
  11
6.90237
  21
6.5605
  31
0
  0
LINE
  8
0
  10
6.90237
  20
6.5605
  30
0
  11
6.87349
  21
6.5103
  31
0
  0
LINE
  8
0
  10
6.87349
  20
6.5103
  30
0
  11
6.84256
  21
6.46232
  31
0
  0
LINE
  8
0
  10
6.84256
  20
6.46232
  30
0
  11
6.82625
  21
6.43928
  31
0
  0
LINE
  8
0
  10
6.82625
  20
6.43928
  30
0
  11
6.81786
  21
6.42803
  31
0
  0
LINE
  8
0
  10
6.81786
  20
6.42803
  30
0
  11
6.80929
  21
6.41697
  31
0
  0
LINE
  8
0
  10
6.80929
  20
6.41697
  30
0
  11
6.89812
  21
6.3096
  31
0
  0
LINE
  8
0
  10
6.89812
  20
6.3096
  30
0
  11
6.91059
  21
6.31594
  31
0
  0
LINE
  8
0
  10
6.91059
  20
6.31594
  30
0
  11
6.92321
  21
6.32208
  31
0
  0
LINE
  8
0
  10
6.92321
  20
6.32208
  30
0
  11
6.9489
  21
6.33378
  31
0
  0
LINE
  8
0
  10
6.9489
  20
6.33378
  30
0
  11
7.00182
  21
6.35517
  31
0
  0
LINE
  8
0
  10
7.00182
  20
6.35517
  30
0
  11
7.05654
  21
6.37414
  31
0
  0
LINE
  8
0
  10
7.05654
  20
6.37414
  30
0
  11
7.11285
  21
6.39089
  31
0
  0
LINE
  8
0
  10
7.11285
  20
6.39089
  30
0
  11
7.17059
  21
6.40556
  31
0
  0
LINE
  8
0
  10
7.17059
  20
6.40556
  30
0
  11
7.22965
  21
6.41825
  31
0
  0
LINE
  8
0
  10
7.22965
  20
6.41825
  30
0
  11
7.29415
  21
6.32947
  31
0
  0
LINE
  8
0
  10
7.29415
  20
6.32947
  30
0
  11
7.26383
  21
6.27722
  31
0
  0
LINE
  8
0
  10
7.26383
  20
6.27722
  30
0
  11
7.23204
  21
6.22684
  31
0
  0
LINE
  8
0
  10
7.23204
  20
6.22684
  30
0
  11
7.19871
  21
6.17847
  31
0
  0
LINE
  8
0
  10
7.19871
  20
6.17847
  30
0
  11
7.16376
  21
6.13229
  31
0
  0
LINE
  8
0
  10
7.16376
  20
6.13229
  30
0
  11
7.12706
  21
6.08856
  31
0
  0
LINE
  8
0
  10
7.12706
  20
6.08856
  30
0
  11
7.10799
  21
6.06775
  31
0
  0
LINE
  8
0
  10
7.10799
  20
6.06775
  30
0
  11
7.09825
  21
6.05764
  31
0
  0
LINE
  8
0
  10
7.09825
  20
6.05764
  30
0
  11
7.08837
  21
6.04774
  31
0
  0
LINE
  8
0
  10
7.08837
  20
6.04774
  30
0
  11
7.16304
  21
5.93008
  31
0
  0
LINE
  8
0
  10
7.16304
  20
5.93008
  30
0
  11
7.1762
  21
5.93481
  31
0
  0
LINE
  8
0
  10
7.1762
  20
5.93481
  30
0
  11
7.1895
  21
5.93931
  31
0
  0
LINE
  8
0
  10
7.1895
  20
5.93931
  30
0
  11
7.21645
  21
5.94771
  31
0
  0
LINE
  8
0
  10
7.21645
  20
5.94771
  30
0
  11
7.27164
  21
5.9623
  31
0
  0
LINE
  8
0
  10
7.27164
  20
5.9623
  30
0
  11
7.3283
  21
5.97425
  31
0
  0
LINE
  8
0
  10
7.3283
  20
5.97425
  30
0
  11
7.38626
  21
5.98382
  31
0
  0
LINE
  8
0
  10
7.38626
  20
5.98382
  30
0
  11
7.44539
  21
5.99114
  31
0
  0
LINE
  8
0
  10
7.44539
  20
5.99114
  30
0
  11
7.50557
  21
5.99632
  31
0
  0
LINE
  8
0
  10
7.50557
  20
5.99632
  30
0
  11
7.55843
  21
5.90016
  31
0
  0
LINE
  8
0
  10
7.55843
  20
5.90016
  30
0
  11
7.52181
  21
5.85212
  31
0
  0
LINE
  8
0
  10
7.52181
  20
5.85212
  30
0
  11
7.48395
  21
5.80612
  31
0
  0
LINE
  8
0
  10
7.48395
  20
5.80612
  30
0
  11
7.44482
  21
5.76231
  31
0
  0
LINE
  8
0
  10
7.44482
  20
5.76231
  30
0
  11
7.40436
  21
5.72087
  31
0
  0
LINE
  8
0
  10
7.40436
  20
5.72087
  30
0
  11
7.36248
  21
5.68209
  31
0
  0
LINE
  8
0
  10
7.36248
  20
5.68209
  30
0
  11
7.34095
  21
5.66384
  31
0
  0
LINE
  8
0
  10
7.34095
  20
5.66384
  30
0
  11
7.33002
  21
5.65502
  31
0
  0
LINE
  8
0
  10
7.33002
  20
5.65502
  30
0
  11
7.31897
  21
5.64644
  31
0
  0
LINE
  8
0
  10
7.31897
  20
5.64644
  30
0
  11
7.37831
  21
5.52035
  31
0
  0
LINE
  8
0
  10
7.37831
  20
5.52035
  30
0
  11
7.39196
  21
5.52339
  31
0
  0
LINE
  8
0
  10
7.39196
  20
5.52339
  30
0
  11
7.40571
  21
5.5262
  31
0
  0
LINE
  8
0
  10
7.40571
  20
5.5262
  30
0
  11
7.43351
  21
5.53115
  31
0
  0
LINE
  8
0
  10
7.43351
  20
5.53115
  30
0
  11
7.49008
  21
5.5387
  31
0
  0
LINE
  8
0
  10
7.49008
  20
5.5387
  30
0
  11
7.5478
  21
5.54346
  31
0
  0
LINE
  8
0
  10
7.5478
  20
5.54346
  30
0
  11
7.6065
  21
5.54569
  31
0
  0
LINE
  8
0
  10
7.6065
  20
5.54569
  30
0
  11
7.66608
  21
5.54554
  31
0
  0
LINE
  8
0
  10
7.66608
  20
5.54554
  30
0
  11
7.72644
  21
5.54314
  31
0
  0
LINE
  8
0
  10
7.72644
  20
5.54314
  30
0
  11
7.76683
  21
5.44111
  31
0
  0
LINE
  8
0
  10
7.76683
  20
5.44111
  30
0
  11
7.72448
  21
5.39804
  31
0
  0
LINE
  8
0
  10
7.72448
  20
5.39804
  30
0
  11
7.68115
  21
5.35715
  31
0
  0
LINE
  8
0
  10
7.68115
  20
5.35715
  30
0
  11
7.63684
  21
5.31859
  31
0
  0
LINE
  8
0
  10
7.63684
  20
5.31859
  30
0
  11
7.5915
  21
5.28255
  31
0
  0
LINE
  8
0
  10
7.5915
  20
5.28255
  30
0
  11
7.54509
  21
5.24932
  31
0
  0
LINE
  8
0
  10
7.54509
  20
5.24932
  30
0
  11
7.52144
  21
5.23391
  31
0
  0
LINE
  8
0
  10
7.52144
  20
5.23391
  30
0
  11
7.50949
  21
5.22654
  31
0
  0
LINE
  8
0
  10
7.50949
  20
5.22654
  30
0
  11
7.49746
  21
5.21941
  31
0
  0
LINE
  8
0
  10
7.49746
  20
5.21941
  30
0
  11
7.54052
  21
5.08687
  31
0
  0
LINE
  8
0
  10
7.54052
  20
5.08687
  30
0
  11
7.55445
  21
5.08818
  31
0
  0
LINE
  8
0
  10
7.55445
  20
5.08818
  30
0
  11
7.56844
  21
5.08924
  31
0
  0
LINE
  8
0
  10
7.56844
  20
5.08924
  30
0
  11
7.59664
  21
5.09067
  31
0
  0
LINE
  8
0
  10
7.59664
  20
5.09067
  30
0
  11
7.65372
  21
5.09107
  31
0
  0
LINE
  8
0
  10
7.65372
  20
5.09107
  30
0
  11
7.71158
  21
5.08856
  31
0
  0
LINE
  8
0
  10
7.71158
  20
5.08856
  30
0
  11
7.77009
  21
5.08341
  31
0
  0
LINE
  8
0
  10
7.77009
  20
5.08341
  30
0
  11
7.82918
  21
5.0758
  31
0
  0
LINE
  8
0
  10
7.82918
  20
5.0758
  30
0
  11
7.88876
  21
5.06585
  31
0
  0
LINE
  8
0
  10
7.88876
  20
5.06585
  30
0
  11
7.91605
  21
4.95956
  31
0
  0
LINE
  8
0
  10
7.91605
  20
4.95956
  30
0
  11
7.86863
  21
4.92214
  31
0
  0
LINE
  8
0
  10
7.86863
  20
4.92214
  30
0
  11
7.82052
  21
4.887
  31
0
  0
LINE
  8
0
  10
7.82052
  20
4.887
  30
0
  11
7.77172
  21
4.8543
  31
0
  0
LINE
  8
0
  10
7.77172
  20
4.8543
  30
0
  11
7.72223
  21
4.82422
  31
0
  0
LINE
  8
0
  10
7.72223
  20
4.82422
  30
0
  11
7.67202
  21
4.79708
  31
0
  0
LINE
  8
0
  10
7.67202
  20
4.79708
  30
0
  11
7.64662
  21
4.78475
  31
0
  0
LINE
  8
0
  10
7.64662
  20
4.78475
  30
0
  11
7.63385
  21
4.77893
  31
0
  0
LINE
  8
0
  10
7.63385
  20
4.77893
  30
0
  11
7.62102
  21
4.77337
  31
0
  0
LINE
  8
0
  10
7.62102
  20
4.77337
  30
0
  11
7.64713
  21
4.63648
  31
0
  0
LINE
  8
0
  10
7.64713
  20
4.63648
  30
0
  11
7.66111
  21
4.63603
  31
0
  0
LINE
  8
0
  10
7.66111
  20
4.63603
  30
0
  11
7.67513
  21
4.63533
  31
0
  0
LINE
  8
0
  10
7.67513
  20
4.63533
  30
0
  11
7.70328
  21
4.63321
  31
0
  0
LINE
  8
0
  10
7.70328
  20
4.63321
  30
0
  11
7.75996
  21
4.62646
  31
0
  0
LINE
  8
0
  10
7.75996
  20
4.62646
  30
0
  11
7.81705
  21
4.61672
  31
0
  0
LINE
  8
0
  10
7.81705
  20
4.61672
  30
0
  11
7.87446
  21
4.60427
  31
0
  0
LINE
  8
0
  10
7.87446
  20
4.60427
  30
0
  11
7.93212
  21
4.58932
  31
0
  0
LINE
  8
0
  10
7.93212
  20
4.58932
  30
0
  11
7.98999
  21
4.57198
  31
0
  0
LINE
  8
0
  10
7.98999
  20
4.57198
  30
0
  11
8.00374
  21
4.46311
  31
0
  0
LINE
  8
0
  10
8.00374
  20
4.46311
  30
0
  11
7.95201
  21
4.43192
  31
0
  0
LINE
  8
0
  10
7.95201
  20
4.43192
  30
0
  11
7.89987
  21
4.40309
  31
0
  0
LINE
  8
0
  10
7.89987
  20
4.40309
  30
0
  11
7.84736
  21
4.37676
  31
0
  0
LINE
  8
0
  10
7.84736
  20
4.37676
  30
0
  11
7.79449
  21
4.35313
  31
0
  0
LINE
  8
0
  10
7.79449
  20
4.35313
  30
0
  11
7.74127
  21
4.33249
  31
0
  0
LINE
  8
0
  10
7.74127
  20
4.33249
  30
0
  11
7.71453
  21
4.32344
  31
0
  0
LINE
  8
0
  10
7.71453
  20
4.32344
  30
0
  11
7.70112
  21
4.31927
  31
0
  0
LINE
  8
0
  10
7.70112
  20
4.31927
  30
0
  11
7.68769
  21
4.31536
  31
0
  0
LINE
  8
0
  10
7.68769
  20
4.31536
  30
0
  11
7.69645
  21
4.17628
  31
0
  0
LINE
  8
0
  10
4.96445
  20
4.01445
  30
0
  11
4.96445
  21
4.01445
  31
0
  0
LINE
  8
0
  10
4.96445
  20
4.01445
  30
0
  11
4.93207
  21
4.26032
  31
0
  0
LINE
  8
0
  10
4.93207
  20
4.26032
  30
0
  11
4.83717
  21
4.48945
  31
0
  0
LINE
  8
0
  10
4.83717
  20
4.48945
  30
0
  11
4.6862
  21
4.6862
  31
0
  0
LINE
  8
0
  10
4.6862
  20
4.6862
  30
0
  11
4.48945
  21
4.83717
  31
0
  0
LINE
  8
0
  10
4.48945
  20
4.83717
  30
0
  11
4.26032
  21
4.93207
  31
0
  0
LINE
  8
0
  10
4.26032
  20
4.93207
  30
0
  11
4.01445
  21
4.96445
  31
0
  0
LINE
  8
0
  10
4.01445
  20
4.96445
  30
0
  11
3.76857
  21
4.93207
  31
0
  0
LINE
  8
0
  10
3.76857
  20
4.93207
  30
0
  11
3.53945
  21
4.83717
  31
0
  0
LINE
  8
0
  10
3.53945
  20
4.83717
  30
0
  11
3.34269
  21
4.6862
  31
0
  0
LINE
  8
0
  10
3.34269
  20
4.6862
  30
0
  11
3.19172
  21
4.48945
  31
0
  0
LINE
  8
0
  10
3.19172
  20
4.48945
  30
0
  11
3.09682
  21
4.26032
  31
0
  0
LINE
  8
0
  10
3.09682
  20
4.26032
  30
0
  11
3.06445
  21
4.01445
  31
0
  0
LINE
  8
0
  10
3.06445
  20
4.01445
  30
0
  11
3.09682
  21
3.76857
  31
0
  0
LINE
  8
0
  10
3.09682
  20
3.76857
  30
0
  11
3.19172
  21
3.53945
  31
0
  0
LINE
  8
0
  10
3.19172
  20
3.53945
  30
0
  11
3.34269
  21
3.34269
  31
0
  0
LINE
  8
0
  10
3.34269
  20
3.34269
  30
0
  11
3.53945
  21
3.19172
  31
0
  0
LINE
  8
0
  10
3.53945
  20
3.19172
  30
0
  11
3.76857
  21
3.09682
  31
0
  0
LINE
  8
0
  10
3.76857
  20
3.09682
  30
0
  11
4.01445
  21
3.06445
  31
0
  0
LINE
  8
0
  10
4.01445
  20
3.06445
  30
0
  11
4.26032
  21
3.09682
  31
0
  0
LINE
  8
0
  10
4.26032
  20
3.09682
  30
0
  11
4.48945
  21
3.19172
  31
0
  0
LINE
  8
0
  10
4.48945
  20
3.19172
  30
0
  11
4.6862
  21
3.34269
  31
0
  0
LINE
  8
0
  10
4.6862
  20
3.34269
  30
0
  11
4.83717
  21
3.53945
  31
0
  0
LINE
  8
0
  10
4.83717
  20
3.53945
  30
0
  11
4.93207
  21
3.76857
  31
0
  0
LINE
  8
0
  10
4.93207
  20
3.76857
  30
0
  11
4.96445
  21
4.01445
  31
0
  0
LINE
  8
0
  10
4.96445
  20
4.01445
  30
0
  11
4.96445
  21
4.01445
  31
0
  0
LINE
  8
0
  10
2.6763
  20
4.01445
  30
0
  11
5.35259
  21
4.01445
  31
0
  0
LINE
  8
0
  10
4.01445
  20
2.6763
  30
0
  11
4.01445
  21
5.35259
  31
0
  0
LINE
  8
0
  10
8.45596
  20
4.0558
  30
0
  11
8.45596
  21
4.0558
  31
0
  0
LINE
  8
0
  10
8.45596
  20
4.0558
  30
0
  11
8.45202
  21
4.07449
  31
0
  0
LINE
  8
0
  10
8.45202
  20
4.07449
  30
0
  11
8.4473
  21
4.08203
  31
0
  0
LINE
  8
0
  10
8.4473
  20
4.08203
  30
0
  11
8.44242
  21
4.08762
  31
0
  0
LINE
  8
0
  10
8.44242
  20
4.08762
  30
0
  11
8.43745
  21
4.09214
  31
0
  0
LINE
  8
0
  10
8.43745
  20
4.09214
  30
0
  11
8.4324
  21
4.09595
  31
0
  0
LINE
  8
0
  10
8.4324
  20
4.09595
  30
0
  11
8.42216
  21
4.10208
  31
0
  0
LINE
  8
0
  10
8.42216
  20
4.10208
  30
0
  11
8.41175
  21
4.10679
  31
0
  0
LINE
  8
0
  10
8.41175
  20
4.10679
  30
0
  11
8.4012
  21
4.11043
  31
0
  0
LINE
  8
0
  10
8.4012
  20
4.11043
  30
0
  11
8.39053
  21
4.1132
  31
0
  0
LINE
  8
0
  10
8.39053
  20
4.1132
  30
0
  11
8.36887
  21
4.11664
  31
0
  0
LINE
  8
0
  10
8.36887
  20
4.11664
  30
0
  11
8.34687
  21
4.11771
  31
0
  0
LINE
  8
0
  10
8.34687
  20
4.11771
  30
0
  11
8.32542
  21
4.12259
  31
0
  0
LINE
  8
0
  10
8.32542
  20
4.12259
  30
0
  11
8.30469
  21
4.13214
  31
0
  0
LINE
  8
0
  10
8.30469
  20
4.13214
  30
0
  11
8.28439
  21
4.14396
  31
0
  0
LINE
  8
0
  10
8.28439
  20
4.14396
  30
0
  11
8.26452
  21
4.1577
  31
0
  0
LINE
  8
0
  10
8.26452
  20
4.1577
  30
0
  11
8.24512
  21
4.17318
  31
0
  0
LINE
  8
0
  10
8.24512
  20
4.17318
  30
0
  11
8.22621
  21
4.19028
  31
0
  0
LINE
  8
0
  10
8.22621
  20
4.19028
  30
0
  11
8.20785
  21
4.20891
  31
0
  0
LINE
  8
0
  10
8.20785
  20
4.20891
  30
0
  11
8.19009
  21
4.229
  31
0
  0
LINE
  8
0
  10
8.19009
  20
4.229
  30
0
  11
8.17296
  21
4.25049
  31
0
  0
LINE
  8
0
  10
8.17296
  20
4.25049
  30
0
  11
8.16057
  21
4.26751
  31
0
  0
LINE
  8
0
  10
8.16057
  20
4.26751
  30
0
  11
8.18362
  21
4.33844
  31
0
  0
LINE
  8
0
  10
8.18362
  20
4.33844
  30
0
  11
8.20365
  21
4.34492
  31
0
  0
LINE
  8
0
  10
8.20365
  20
4.34492
  30
0
  11
8.23013
  21
4.35225
  31
0
  0
LINE
  8
0
  10
8.23013
  20
4.35225
  30
0
  11
8.25632
  21
4.35806
  31
0
  0
LINE
  8
0
  10
8.25632
  20
4.35806
  30
0
  11
8.28212
  21
4.36234
  31
0
  0
LINE
  8
0
  10
8.28212
  20
4.36234
  30
0
  11
8.30746
  21
4.36506
  31
0
  0
LINE
  8
0
  10
8.30746
  20
4.36506
  30
0
  11
8.33226
  21
4.36618
  31
0
  0
LINE
  8
0
  10
8.33226
  20
4.36618
  30
0
  11
8.35641
  21
4.36561
  31
0
  0
LINE
  8
0
  10
8.35641
  20
4.36561
  30
0
  11
8.37978
  21
4.36324
  31
0
  0
LINE
  8
0
  10
8.37978
  20
4.36324
  30
0
  11
8.40217
  21
4.35879
  31
0
  0
LINE
  8
0
  10
8.40217
  20
4.35879
  30
0
  11
8.42239
  21
4.35013
  31
0
  0
LINE
  8
0
  10
8.42239
  20
4.35013
  30
0
  11
8.44082
  21
4.33807
  31
0
  0
LINE
  8
0
  10
8.44082
  20
4.33807
  30
0
  11
8.46036
  21
4.32811
  31
0
  0
LINE
  8
0
  10
8.46036
  20
4.32811
  30
0
  11
8.47062
  21
4.32408
  31
0
  0
LINE
  8
0
  10
8.47062
  20
4.32408
  30
0
  11
8.4813
  21
4.32083
  31
0
  0
LINE
  8
0
  10
8.4813
  20
4.32083
  30
0
  11
8.49249
  21
4.31851
  31
0
  0
LINE
  8
0
  10
8.49249
  20
4.31851
  30
0
  11
8.50437
  21
4.31745
  31
0
  0
LINE
  8
0
  10
8.50437
  20
4.31745
  30
0
  11
8.51069
  21
4.31757
  31
0
  0
LINE
  8
0
  10
8.51069
  20
4.31757
  30
0
  11
8.51737
  21
4.31831
  31
0
  0
LINE
  8
0
  10
8.51737
  20
4.31831
  30
0
  11
8.5246
  21
4.31996
  31
0
  0
LINE
  8
0
  10
8.5246
  20
4.31996
  30
0
  11
8.53286
  21
4.32329
  31
0
  0
LINE
  8
0
  10
8.53286
  20
4.32329
  30
0
  11
8.54703
  21
4.3361
  31
0
  0
LINE
  8
0
  10
8.54703
  20
4.3361
  30
0
  11
8.57019
  21
4.37038
  31
0
  0
LINE
  8
0
  10
8.57019
  20
4.37038
  30
0
  11
8.59564
  21
4.403
  31
0
  0
LINE
  8
0
  10
8.59564
  20
4.403
  30
0
  11
8.60344
  21
4.42044
  31
0
  0
LINE
  8
0
  10
8.60344
  20
4.42044
  30
0
  11
8.60406
  21
4.42932
  31
0
  0
LINE
  8
0
  10
8.60406
  20
4.42932
  30
0
  11
8.60339
  21
4.43671
  31
0
  0
LINE
  8
0
  10
8.60339
  20
4.43671
  30
0
  11
8.60203
  21
4.44329
  31
0
  0
LINE
  8
0
  10
8.60203
  20
4.44329
  30
0
  11
8.60019
  21
4.44933
  31
0
  0
LINE
  8
0
  10
8.60019
  20
4.44933
  30
0
  11
8.59551
  21
4.46031
  31
0
  0
LINE
  8
0
  10
8.59551
  20
4.46031
  30
0
  11
8.58985
  21
4.47024
  31
0
  0
LINE
  8
0
  10
8.58985
  20
4.47024
  30
0
  11
8.58346
  21
4.47939
  31
0
  0
LINE
  8
0
  10
8.58346
  20
4.47939
  30
0
  11
8.57645
  21
4.48791
  31
0
  0
LINE
  8
0
  10
8.57645
  20
4.48791
  30
0
  11
8.56095
  21
4.50341
  31
0
  0
LINE
  8
0
  10
8.56095
  20
4.50341
  30
0
  11
8.54378
  21
4.51721
  31
0
  0
LINE
  8
0
  10
8.54378
  20
4.51721
  30
0
  11
8.5293
  21
4.53377
  31
0
  0
LINE
  8
0
  10
8.5293
  20
4.53377
  30
0
  11
8.51814
  21
4.55368
  31
0
  0
LINE
  8
0
  10
8.51814
  20
4.55368
  30
0
  11
8.50866
  21
4.57517
  31
0
  0
LINE
  8
0
  10
8.50866
  20
4.57517
  30
0
  11
8.50067
  21
4.59797
  31
0
  0
LINE
  8
0
  10
8.50067
  20
4.59797
  30
0
  11
8.49407
  21
4.6219
  31
0
  0
LINE
  8
0
  10
8.49407
  20
4.6219
  30
0
  11
8.48882
  21
4.64684
  31
0
  0
LINE
  8
0
  10
8.48882
  20
4.64684
  30
0
  11
8.48492
  21
4.6727
  31
0
  0
LINE
  8
0
  10
8.48492
  20
4.6727
  30
0
  11
8.48235
  21
4.6994
  31
0
  0
LINE
  8
0
  10
8.48235
  20
4.6994
  30
0
  11
8.48114
  21
4.72686
  31
0
  0
LINE
  8
0
  10
8.48114
  20
4.72686
  30
0
  11
8.48111
  21
4.74791
  31
0
  0
LINE
  8
0
  10
8.48111
  20
4.74791
  30
0
  11
8.54145
  21
4.79175
  31
0
  0
LINE
  8
0
  10
8.54145
  20
4.79175
  30
0
  11
8.56146
  21
4.78522
  31
0
  0
LINE
  8
0
  10
8.56146
  20
4.78522
  30
0
  11
8.5872
  21
4.77557
  31
0
  0
LINE
  8
0
  10
8.5872
  20
4.77557
  30
0
  11
8.6118
  21
4.76489
  31
0
  0
LINE
  8
0
  10
8.6118
  20
4.76489
  30
0
  11
8.63518
  21
4.75318
  31
0
  0
LINE
  8
0
  10
8.63518
  20
4.75318
  30
0
  11
8.65729
  21
4.74049
  31
0
  0
LINE
  8
0
  10
8.65729
  20
4.74049
  30
0
  11
8.678
  21
4.72681
  31
0
  0
LINE
  8
0
  10
8.678
  20
4.72681
  30
0
  11
8.69721
  21
4.71216
  31
0
  0
LINE
  8
0
  10
8.69721
  20
4.71216
  30
0
  11
8.71473
  21
4.69651
  31
0
  0
LINE
  8
0
  10
8.71473
  20
4.69651
  30
0
  11
8.73022
  21
4.67975
  31
0
  0
LINE
  8
0
  10
8.73022
  20
4.67975
  30
0
  11
8.74149
  21
4.66086
  31
0
  0
LINE
  8
0
  10
8.74149
  20
4.66086
  30
0
  11
8.74931
  21
4.64026
  31
0
  0
LINE
  8
0
  10
8.74931
  20
4.64026
  30
0
  11
8.75926
  21
4.62073
  31
0
  0
LINE
  8
0
  10
8.75926
  20
4.62073
  30
0
  11
8.7652
  21
4.61143
  31
0
  0
LINE
  8
0
  10
8.7652
  20
4.61143
  30
0
  11
8.77192
  21
4.60252
  31
0
  0
LINE
  8
0
  10
8.77192
  20
4.60252
  30
0
  11
8.77962
  21
4.59407
  31
0
  0
LINE
  8
0
  10
8.77962
  20
4.59407
  30
0
  11
8.78861
  21
4.58623
  31
0
  0
LINE
  8
0
  10
8.78861
  20
4.58623
  30
0
  11
8.79379
  21
4.58261
  31
0
  0
LINE
  8
0
  10
8.79379
  20
4.58261
  30
0
  11
8.79963
  21
4.57928
  31
0
  0
LINE
  8
0
  10
8.79963
  20
4.57928
  30
0
  11
8.80645
  21
4.57637
  31
0
  0
LINE
  8
0
  10
8.80645
  20
4.57637
  30
0
  11
8.81508
  21
4.57421
  31
0
  0
LINE
  8
0
  10
8.81508
  20
4.57421
  30
0
  11
8.83408
  21
4.57624
  31
0
  0
LINE
  8
0
  10
8.83408
  20
4.57624
  30
0
  11
8.87297
  21
4.59036
  31
0
  0
LINE
  8
0
  10
8.87297
  20
4.59036
  30
0
  11
8.91273
  21
4.6018
  31
0
  0
LINE
  8
0
  10
8.91273
  20
4.6018
  30
0
  11
8.9293
  21
4.61132
  31
0
  0
LINE
  8
0
  10
8.9293
  20
4.61132
  30
0
  11
8.93501
  21
4.61814
  31
0
  0
LINE
  8
0
  10
8.93501
  20
4.61814
  30
0
  11
8.93882
  21
4.62451
  31
0
  0
LINE
  8
0
  10
8.93882
  20
4.62451
  30
0
  11
8.94158
  21
4.63063
  31
0
  0
LINE
  8
0
  10
8.94158
  20
4.63063
  30
0
  11
8.94365
  21
4.6366
  31
0
  0
LINE
  8
0
  10
8.94365
  20
4.6366
  30
0
  11
8.94631
  21
4.64824
  31
0
  0
LINE
  8
0
  10
8.94631
  20
4.64824
  30
0
  11
8.94757
  21
4.65959
  31
0
  0
LINE
  8
0
  10
8.94757
  20
4.65959
  30
0
  11
8.94777
  21
4.67075
  31
0
  0
LINE
  8
0
  10
8.94777
  20
4.67075
  30
0
  11
8.94711
  21
4.68176
  31
0
  0
LINE
  8
0
  10
8.94711
  20
4.68176
  30
0
  11
8.94368
  21
4.70342
  31
0
  0
LINE
  8
0
  10
8.94368
  20
4.70342
  30
0
  11
8.9379
  21
4.72468
  31
0
  0
LINE
  8
0
  10
8.9379
  20
4.72468
  30
0
  11
8.93592
  21
4.74658
  31
0
  0
LINE
  8
0
  10
8.93592
  20
4.74658
  30
0
  11
8.9386
  21
4.76925
  31
0
  0
LINE
  8
0
  10
8.9386
  20
4.76925
  30
0
  11
8.94357
  21
4.79221
  31
0
  0
LINE
  8
0
  10
8.94357
  20
4.79221
  30
0
  11
8.9505
  21
4.81535
  31
0
  0
LINE
  8
0
  10
8.9505
  20
4.81535
  30
0
  11
8.95922
  21
4.83859
  31
0
  0
LINE
  8
0
  10
8.95922
  20
4.83859
  30
0
  11
8.96964
  21
4.86185
  31
0
  0
LINE
  8
0
  10
8.96964
  20
4.86185
  30
0
  11
8.98168
  21
4.88507
  31
0
  0
LINE
  8
0
  10
8.98168
  20
4.88507
  30
0
  11
8.9953
  21
4.90817
  31
0
  0
LINE
  8
0
  10
8.9953
  20
4.90817
  30
0
  11
9.01045
  21
4.9311
  31
0
  0
LINE
  8
0
  10
9.01045
  20
4.9311
  30
0
  11
9.02281
  21
4.94815
  31
0
  0
LINE
  8
0
  10
9.02281
  20
4.94815
  30
0
  11
9.09739
  21
4.94815
  31
0
  0
LINE
  8
0
  10
9.09739
  20
4.94815
  30
0
  11
9.10974
  21
4.9311
  31
0
  0
LINE
  8
0
  10
9.10974
  20
4.9311
  30
0
  11
9.12489
  21
4.90817
  31
0
  0
LINE
  8
0
  10
9.12489
  20
4.90817
  30
0
  11
9.13851
  21
4.88507
  31
0
  0
LINE
  8
0
  10
9.13851
  20
4.88507
  30
0
  11
9.15055
  21
4.86185
  31
0
  0
LINE
  8
0
  10
9.15055
  20
4.86185
  30
0
  11
9.16097
  21
4.83859
  31
0
  0
LINE
  8
0
  10
9.16097
  20
4.83859
  30
0
  11
9.1697
  21
4.81535
  31
0
  0
LINE
  8
0
  10
9.1697
  20
4.81535
  30
0
  11
9.17663
  21
4.79221
  31
0
  0
LINE
  8
0
  10
9.17663
  20
4.79221
  30
0
  11
9.1816
  21
4.76925
  31
0
  0
LINE
  8
0
  10
9.1816
  20
4.76925
  30
0
  11
9.18427
  21
4.74658
  31
0
  0
LINE
  8
0
  10
9.18427
  20
4.74658
  30
0
  11
9.18229
  21
4.72468
  31
0
  0
LINE
  8
0
  10
9.18229
  20
4.72468
  30
0
  11
9.17651
  21
4.70342
  31
0
  0
LINE
  8
0
  10
9.17651
  20
4.70342
  30
0
  11
9.17308
  21
4.68176
  31
0
  0
LINE
  8
0
  10
9.17308
  20
4.68176
  30
0
  11
9.17242
  21
4.67075
  31
0
  0
LINE
  8
0
  10
9.17242
  20
4.67075
  30
0
  11
9.17262
  21
4.65959
  31
0
  0
LINE
  8
0
  10
9.17262
  20
4.65959
  30
0
  11
9.17388
  21
4.64824
  31
0
  0
LINE
  8
0
  10
9.17388
  20
4.64824
  30
0
  11
9.17655
  21
4.6366
  31
0
  0
LINE
  8
0
  10
9.17655
  20
4.6366
  30
0
  11
9.17861
  21
4.63063
  31
0
  0
LINE
  8
0
  10
9.17861
  20
4.63063
  30
0
  11
9.18138
  21
4.62451
  31
0
  0
LINE
  8
0
  10
9.18138
  20
4.62451
  30
0
  11
9.18518
  21
4.61814
  31
0
  0
LINE
  8
0
  10
9.18518
  20
4.61814
  30
0
  11
9.1909
  21
4.61132
  31
0
  0
LINE
  8
0
  10
9.1909
  20
4.61132
  30
0
  11
9.20746
  21
4.6018
  31
0
  0
LINE
  8
0
  10
9.20746
  20
4.6018
  30
0
  11
9.24722
  21
4.59036
  31
0
  0
LINE
  8
0
  10
9.24722
  20
4.59036
  30
0
  11
9.28611
  21
4.57624
  31
0
  0
LINE
  8
0
  10
9.28611
  20
4.57624
  30
0
  11
9.30511
  21
4.57421
  31
0
  0
LINE
  8
0
  10
9.30511
  20
4.57421
  30
0
  11
9.31374
  21
4.57637
  31
0
  0
LINE
  8
0
  10
9.31374
  20
4.57637
  30
0
  11
9.32056
  21
4.57928
  31
0
  0
LINE
  8
0
  10
9.32056
  20
4.57928
  30
0
  11
9.3264
  21
4.58261
  31
0
  0
LINE
  8
0
  10
9.3264
  20
4.58261
  30
0
  11
9.33158
  21
4.58623
  31
0
  0
LINE
  8
0
  10
9.33158
  20
4.58623
  30
0
  11
9.34058
  21
4.59407
  31
0
  0
LINE
  8
0
  10
9.34058
  20
4.59407
  30
0
  11
9.34827
  21
4.60252
  31
0
  0
LINE
  8
0
  10
9.34827
  20
4.60252
  30
0
  11
9.35499
  21
4.61143
  31
0
  0
LINE
  8
0
  10
9.35499
  20
4.61143
  30
0
  11
9.36093
  21
4.62073
  31
0
  0
LINE
  8
0
  10
9.36093
  20
4.62073
  30
0
  11
9.37089
  21
4.64026
  31
0
  0
LINE
  8
0
  10
9.37089
  20
4.64026
  30
0
  11
9.3787
  21
4.66086
  31
0
  0
LINE
  8
0
  10
9.3787
  20
4.66086
  30
0
  11
9.38998
  21
4.67975
  31
0
  0
LINE
  8
0
  10
9.38998
  20
4.67975
  30
0
  11
9.40546
  21
4.69651
  31
0
  0
LINE
  8
0
  10
9.40546
  20
4.69651
  30
0
  11
9.42298
  21
4.71216
  31
0
  0
LINE
  8
0
  10
9.42298
  20
4.71216
  30
0
  11
9.44219
  21
4.72681
  31
0
  0
LINE
  8
0
  10
9.44219
  20
4.72681
  30
0
  11
9.46291
  21
4.74049
  31
0
  0
LINE
  8
0
  10
9.46291
  20
4.74049
  30
0
  11
9.48501
  21
4.75318
  31
0
  0
LINE
  8
0
  10
9.48501
  20
4.75318
  30
0
  11
9.5084
  21
4.76489
  31
0
  0
LINE
  8
0
  10
9.5084
  20
4.76489
  30
0
  11
9.533
  21
4.77557
  31
0
  0
LINE
  8
0
  10
9.533
  20
4.77557
  30
0
  11
9.55873
  21
4.78522
  31
0
  0
LINE
  8
0
  10
9.55873
  20
4.78522
  30
0
  11
9.57874
  21
4.79175
  31
0
  0
LINE
  8
0
  10
9.57874
  20
4.79175
  30
0
  11
9.63908
  21
4.74791
  31
0
  0
LINE
  8
0
  10
9.63908
  20
4.74791
  30
0
  11
9.63906
  21
4.72686
  31
0
  0
LINE
  8
0
  10
9.63906
  20
4.72686
  30
0
  11
9.63784
  21
4.6994
  31
0
  0
LINE
  8
0
  10
9.63784
  20
4.6994
  30
0
  11
9.63528
  21
4.6727
  31
0
  0
LINE
  8
0
  10
9.63528
  20
4.6727
  30
0
  11
9.63137
  21
4.64684
  31
0
  0
LINE
  8
0
  10
9.63137
  20
4.64684
  30
0
  11
9.62613
  21
4.6219
  31
0
  0
LINE
  8
0
  10
9.62613
  20
4.6219
  30
0
  11
9.61953
  21
4.59797
  31
0
  0
LINE
  8
0
  10
9.61953
  20
4.59797
  30
0
  11
9.61153
  21
4.57517
  31
0
  0
LINE
  8
0
  10
9.61153
  20
4.57517
  30
0
  11
9.60205
  21
4.55368
  31
0
  0
LINE
  8
0
  10
9.60205
  20
4.55368
  30
0
  11
9.5909
  21
4.53377
  31
0
  0
LINE
  8
0
  10
9.5909
  20
4.53377
  30
0
  11
9.57642
  21
4.51721
  31
0
  0
LINE
  8
0
  10
9.57642
  20
4.51721
  30
0
  11
9.55925
  21
4.50341
  31
0
  0
LINE
  8
0
  10
9.55925
  20
4.50341
  30
0
  11
9.54374
  21
4.48791
  31
0
  0
LINE
  8
0
  10
9.54374
  20
4.48791
  30
0
  11
9.53674
  21
4.47939
  31
0
  0
LINE
  8
0
  10
9.53674
  20
4.47939
  30
0
  11
9.53034
  21
4.47024
  31
0
  0
LINE
  8
0
  10
9.53034
  20
4.47024
  30
0
  11
9.52468
  21
4.46031
  31
0
  0
LINE
  8
0
  10
9.52468
  20
4.46031
  30
0
  11
9.52
  21
4.44933
  31
0
  0
LINE
  8
0
  10
9.52
  20
4.44933
  30
0
  11
9.51816
  21
4.44329
  31
0
  0
LINE
  8
0
  10
9.51816
  20
4.44329
  30
0
  11
9.5168
  21
4.43671
  31
0
  0
LINE
  8
0
  10
9.5168
  20
4.43671
  30
0
  11
9.51614
  21
4.42932
  31
0
  0
LINE
  8
0
  10
9.51614
  20
4.42932
  30
0
  11
9.51675
  21
4.42044
  31
0
  0
LINE
  8
0
  10
9.51675
  20
4.42044
  30
0
  11
9.52455
  21
4.403
  31
0
  0
LINE
  8
0
  10
9.52455
  20
4.403
  30
0
  11
9.55
  21
4.37038
  31
0
  0
LINE
  8
0
  10
9.55
  20
4.37038
  30
0
  11
9.57316
  21
4.3361
  31
0
  0
LINE
  8
0
  10
9.57316
  20
4.3361
  30
0
  11
9.58734
  21
4.32329
  31
0
  0
LINE
  8
0
  10
9.58734
  20
4.32329
  30
0
  11
9.59559
  21
4.31996
  31
0
  0
LINE
  8
0
  10
9.59559
  20
4.31996
  30
0
  11
9.60282
  21
4.31831
  31
0
  0
LINE
  8
0
  10
9.60282
  20
4.31831
  30
0
  11
9.6095
  21
4.31757
  31
0
  0
LINE
  8
0
  10
9.6095
  20
4.31757
  30
0
  11
9.61582
  21
4.31745
  31
0
  0
LINE
  8
0
  10
9.61582
  20
4.31745
  30
0
  11
9.62771
  21
4.31851
  31
0
  0
LINE
  8
0
  10
9.62771
  20
4.31851
  30
0
  11
9.6389
  21
4.32083
  31
0
  0
LINE
  8
0
  10
9.6389
  20
4.32083
  30
0
  11
9.64957
  21
4.32408
  31
0
  0
LINE
  8
0
  10
9.64957
  20
4.32408
  30
0
  11
9.65984
  21
4.32811
  31
0
  0
LINE
  8
0
  10
9.65984
  20
4.32811
  30
0
  11
9.67938
  21
4.33807
  31
0
  0
LINE
  8
0
  10
9.67938
  20
4.33807
  30
0
  11
9.69781
  21
4.35013
  31
0
  0
LINE
  8
0
  10
9.69781
  20
4.35013
  30
0
  11
9.71803
  21
4.35879
  31
0
  0
LINE
  8
0
  10
9.71803
  20
4.35879
  30
0
  11
9.74041
  21
4.36324
  31
0
  0
LINE
  8
0
  10
9.74041
  20
4.36324
  30
0
  11
9.76378
  21
4.36561
  31
0
  0
LINE
  8
0
  10
9.76378
  20
4.36561
  30
0
  11
9.78794
  21
4.36618
  31
0
  0
LINE
  8
0
  10
9.78794
  20
4.36618
  30
0
  11
9.81273
  21
4.36506
  31
0
  0
LINE
  8
0
  10
9.81273
  20
4.36506
  30
0
  11
9.83808
  21
4.36234
  31
0
  0
LINE
  8
0
  10
9.83808
  20
4.36234
  30
0
  11
9.86388
  21
4.35806
  31
0
  0
LINE
  8
0
  10
9.86388
  20
4.35806
  30
0
  11
9.89006
  21
4.35225
  31
0
  0
LINE
  8
0
  10
9.89006
  20
4.35225
  30
0
  11
9.91655
  21
4.34492
  31
0
  0
LINE
  8
0
  10
9.91655
  20
4.34492
  30
0
  11
9.93658
  21
4.33844
  31
0
  0
LINE
  8
0
  10
9.93658
  20
4.33844
  30
0
  11
9.95962
  21
4.26751
  31
0
  0
LINE
  8
0
  10
9.95962
  20
4.26751
  30
0
  11
9.94723
  21
4.25049
  31
0
  0
LINE
  8
0
  10
9.94723
  20
4.25049
  30
0
  11
9.93011
  21
4.229
  31
0
  0
LINE
  8
0
  10
9.93011
  20
4.229
  30
0
  11
9.91234
  21
4.20891
  31
0
  0
LINE
  8
0
  10
9.91234
  20
4.20891
  30
0
  11
9.89398
  21
4.19028
  31
0
  0
LINE
  8
0
  10
9.89398
  20
4.19028
  30
0
  11
9.87508
  21
4.17318
  31
0
  0
LINE
  8
0
  10
9.87508
  20
4.17318
  30
0
  11
9.85567
  21
4.1577
  31
0
  0
LINE
  8
0
  10
9.85567
  20
4.1577
  30
0
  11
9.8358
  21
4.14396
  31
0
  0
LINE
  8
0
  10
9.8358
  20
4.14396
  30
0
  11
9.8155
  21
4.13214
  31
0
  0
LINE
  8
0
  10
9.8155
  20
4.13214
  30
0
  11
9.79477
  21
4.12259
  31
0
  0
LINE
  8
0
  10
9.79477
  20
4.12259
  30
0
  11
9.77333
  21
4.11771
  31
0
  0
LINE
  8
0
  10
9.77333
  20
4.11771
  30
0
  11
9.75132
  21
4.11664
  31
0
  0
LINE
  8
0
  10
9.75132
  20
4.11664
  30
0
  11
9.72967
  21
4.1132
  31
0
  0
LINE
  8
0
  10
9.72967
  20
4.1132
  30
0
  11
9.71899
  21
4.11043
  31
0
  0
LINE
  8
0
  10
9.71899
  20
4.11043
  30
0
  11
9.70844
  21
4.10679
  31
0
  0
LINE
  8
0
  10
9.70844
  20
4.10679
  30
0
  11
9.69803
  21
4.10208
  31
0
  0
LINE
  8
0
  10
9.69803
  20
4.10208
  30
0
  11
9.68779
  21
4.09595
  31
0
  0
LINE
  8
0
  10
9.68779
  20
4.09595
  30
0
  11
9.68275
  21
4.09214
  31
0
  0
LINE
  8
0
  10
9.68275
  20
4.09214
  30
0
  11
9.67778
  21
4.08762
  31
0
  0
LINE
  8
0
  10
9.67778
  20
4.08762
  30
0
  11
9.6729
  21
4.08203
  31
0
  0
LINE
  8
0
  10
9.6729
  20
4.08203
  30
0
  11
9.66818
  21
4.07449
  31
0
  0
LINE
  8
0
  10
9.66818
  20
4.07449
  30
0
  11
9.66424
  21
4.0558
  31
0
  0
LINE
  8
0
  10
9.66424
  20
4.0558
  30
0
  11
9.66565
  21
4.01445
  31
0
  0
LINE
  8
0
  10
9.66565
  20
4.01445
  30
0
  11
9.66424
  21
3.97309
  31
0
  0
LINE
  8
0
  10
9.66424
  20
3.97309
  30
0
  11
9.66818
  21
3.9544
  31
0
  0
LINE
  8
0
  10
9.66818
  20
3.9544
  30
0
  11
9.6729
  21
3.94686
  31
0
  0
LINE
  8
0
  10
9.6729
  20
3.94686
  30
0
  11
9.67778
  21
3.94127
  31
0
  0
LINE
  8
0
  10
9.67778
  20
3.94127
  30
0
  11
9.68275
  21
3.93675
  31
0
  0
LINE
  8
0
  10
9.68275
  20
3.93675
  30
0
  11
9.68779
  21
3.93294
  31
0
  0
LINE
  8
0
  10
9.68779
  20
3.93294
  30
0
  11
9.69803
  21
3.92681
  31
0
  0
LINE
  8
0
  10
9.69803
  20
3.92681
  30
0
  11
9.70844
  21
3.9221
  31
0
  0
LINE
  8
0
  10
9.70844
  20
3.9221
  30
0
  11
9.71899
  21
3.91846
  31
0
  0
LINE
  8
0
  10
9.71899
  20
3.91846
  30
0
  11
9.72967
  21
3.91569
  31
0
  0
LINE
  8
0
  10
9.72967
  20
3.91569
  30
0
  11
9.75132
  21
3.91226
  31
0
  0
LINE
  8
0
  10
9.75132
  20
3.91226
  30
0
  11
9.77333
  21
3.91118
  31
0
  0
LINE
  8
0
  10
9.77333
  20
3.91118
  30
0
  11
9.79477
  21
3.9063
  31
0
  0
LINE
  8
0
  10
9.79477
  20
3.9063
  30
0
  11
9.8155
  21
3.89675
  31
0
  0
LINE
  8
0
  10
9.8155
  20
3.89675
  30
0
  11
9.8358
  21
3.88493
  31
0
  0
LINE
  8
0
  10
9.8358
  20
3.88493
  30
0
  11
9.85567
  21
3.87119
  31
0
  0
LINE
  8
0
  10
9.85567
  20
3.87119
  30
0
  11
9.87508
  21
3.85571
  31
0
  0
LINE
  8
0
  10
9.87508
  20
3.85571
  30
0
  11
9.89398
  21
3.83861
  31
0
  0
LINE
  8
0
  10
9.89398
  20
3.83861
  30
0
  11
9.91234
  21
3.81998
  31
0
  0
LINE
  8
0
  10
9.91234
  20
3.81998
  30
0
  11
9.93011
  21
3.79989
  31
0
  0
LINE
  8
0
  10
9.93011
  20
3.79989
  30
0
  11
9.94723
  21
3.7784
  31
0
  0
LINE
  8
0
  10
9.94723
  20
3.7784
  30
0
  11
9.95962
  21
3.76138
  31
0
  0
LINE
  8
0
  10
9.95962
  20
3.76138
  30
0
  11
9.93658
  21
3.69045
  31
0
  0
LINE
  8
0
  10
9.93658
  20
3.69045
  30
0
  11
9.91655
  21
3.68397
  31
0
  0
LINE
  8
0
  10
9.91655
  20
3.68397
  30
0
  11
9.89006
  21
3.67664
  31
0
  0
LINE
  8
0
  10
9.89006
  20
3.67664
  30
0
  11
9.86388
  21
3.67083
  31
0
  0
LINE
  8
0
  10
9.86388
  20
3.67083
  30
0
  11
9.83808
  21
3.66655
  31
0
  0
LINE
  8
0
  10
9.83808
  20
3.66655
  30
0
  11
9.81273
  21
3.66383
  31
0
  0
LINE
  8
0
  10
9.81273
  20
3.66383
  30
0
  11
9.78794
  21
3.66272
  31
0
  0
LINE
  8
0
  10
9.78794
  20
3.66272
  30
0
  11
9.76378
  21
3.66328
  31
0
  0
LINE
  8
0
  10
9.76378
  20
3.66328
  30
0
  11
9.74041
  21
3.66565
  31
0
  0
LINE
  8
0
  10
9.74041
  20
3.66565
  30
0
  11
9.71803
  21
3.6701
  31
0
  0
LINE
  8
0
  10
9.71803
  20
3.6701
  30
0
  11
9.69781
  21
3.67876
  31
0
  0
LINE
  8
0
  10
9.69781
  20
3.67876
  30
0
  11
9.67938
  21
3.69083
  31
0
  0
LINE
  8
0
  10
9.67938
  20
3.69083
  30
0
  11
9.65984
  21
3.70078
  31
0
  0
LINE
  8
0
  10
9.65984
  20
3.70078
  30
0
  11
9.64957
  21
3.70481
  31
0
  0
LINE
  8
0
  10
9.64957
  20
3.70481
  30
0
  11
9.6389
  21
3.70807
  31
0
  0
LINE
  8
0
  10
9.6389
  20
3.70807
  30
0
  11
9.62771
  21
3.71038
  31
0
  0
LINE
  8
0
  10
9.62771
  20
3.71038
  30
0
  11
9.61582
  21
3.71144
  31
0
  0
LINE
  8
0
  10
9.61582
  20
3.71144
  30
0
  11
9.6095
  21
3.71132
  31
0
  0
LINE
  8
0
  10
9.6095
  20
3.71132
  30
0
  11
9.60282
  21
3.71058
  31
0
  0
LINE
  8
0
  10
9.60282
  20
3.71058
  30
0
  11
9.59559
  21
3.70893
  31
0
  0
LINE
  8
0
  10
9.59559
  20
3.70893
  30
0
  11
9.58734
  21
3.7056
  31
0
  0
LINE
  8
0
  10
9.58734
  20
3.7056
  30
0
  11
9.57316
  21
3.69279
  31
0
  0
LINE
  8
0
  10
9.57316
  20
3.69279
  30
0
  11
9.55
  21
3.65851
  31
0
  0
LINE
  8
0
  10
9.55
  20
3.65851
  30
0
  11
9.52455
  21
3.62589
  31
0
  0
LINE
  8
0
  10
9.52455
  20
3.62589
  30
0
  11
9.51675
  21
3.60845
  31
0
  0
LINE
  8
0
  10
9.51675
  20
3.60845
  30
0
  11
9.51614
  21
3.59957
  31
0
  0
LINE
  8
0
  10
9.51614
  20
3.59957
  30
0
  11
9.5168
  21
3.59218
  31
0
  0
LINE
  8
0
  10
9.5168
  20
3.59218
  30
0
  11
9.51816
  21
3.5856
  31
0
  0
LINE
  8
0
  10
9.51816
  20
3.5856
  30
0
  11
9.52
  21
3.57956
  31
0
  0
LINE
  8
0
  10
9.52
  20
3.57956
  30
0
  11
9.52468
  21
3.56858
  31
0
  0
LINE
  8
0
  10
9.52468
  20
3.56858
  30
0
  11
9.53034
  21
3.55865
  31
0
  0
LINE
  8
0
  10
9.53034
  20
3.55865
  30
0
  11
9.53674
  21
3.5495
  31
0
  0
LINE
  8
0
  10
9.53674
  20
3.5495
  30
0
  11
9.54374
  21
3.54099
  31
0
  0
LINE
  8
0
  10
9.54374
  20
3.54099
  30
0
  11
9.55925
  21
3.52548
  31
0
  0
LINE
  8
0
  10
9.55925
  20
3.52548
  30
0
  11
9.57642
  21
3.51168
  31
0
  0
LINE
  8
0
  10
9.57642
  20
3.51168
  30
0
  11
9.5909
  21
3.49512
  31
0
  0
LINE
  8
0
  10
9.5909
  20
3.49512
  30
0
  11
9.60205
  21
3.47521
  31
0
  0
LINE
  8
0
  10
9.60205
  20
3.47521
  30
0
  11
9.61153
  21
3.45372
  31
0
  0
LINE
  8
0
  10
9.61153
  20
3.45372
  30
0
  11
9.61953
  21
3.43092
  31
0
  0
LINE
  8
0
  10
9.61953
  20
3.43092
  30
0
  11
9.62613
  21
3.40699
  31
0
  0
LINE
  8
0
  10
9.62613
  20
3.40699
  30
0
  11
9.63137
  21
3.38205
  31
0
  0
LINE
  8
0
  10
9.63137
  20
3.38205
  30
0
  11
9.63528
  21
3.35619
  31
0
  0
LINE
  8
0
  10
9.63528
  20
3.35619
  30
0
  11
9.63784
  21
3.32949
  31
0
  0
LINE
  8
0
  10
9.63784
  20
3.32949
  30
0
  11
9.63906
  21
3.30203
  31
0
  0
LINE
  8
0
  10
9.63906
  20
3.30203
  30
0
  11
9.63908
  21
3.28099
  31
0
  0
LINE
  8
0
  10
9.63908
  20
3.28099
  30
0
  11
9.57874
  21
3.23715
  31
0
  0
LINE
  8
0
  10
9.57874
  20
3.23715
  30
0
  11
9.55873
  21
3.24367
  31
0
  0
LINE
  8
0
  10
9.55873
  20
3.24367
  30
0
  11
9.533
  21
3.25332
  31
0
  0
LINE
  8
0
  10
9.533
  20
3.25332
  30
0
  11
9.5084
  21
3.264
  31
0
  0
LINE
  8
0
  10
9.5084
  20
3.264
  30
0
  11
9.48501
  21
3.27571
  31
0
  0
LINE
  8
0
  10
9.48501
  20
3.27571
  30
0
  11
9.46291
  21
3.2884
  31
0
  0
LINE
  8
0
  10
9.46291
  20
3.2884
  30
0
  11
9.44219
  21
3.30208
  31
0
  0
LINE
  8
0
  10
9.44219
  20
3.30208
  30
0
  11
9.42298
  21
3.31673
  31
0
  0
LINE
  8
0
  10
9.42298
  20
3.31673
  30
0
  11
9.40546
  21
3.33238
  31
0
  0
LINE
  8
0
  10
9.40546
  20
3.33238
  30
0
  11
9.38998
  21
3.34915
  31
0
  0
LINE
  8
0
  10
9.38998
  20
3.34915
  30
0
  11
9.3787
  21
3.36803
  31
0
  0
LINE
  8
0
  10
9.3787
  20
3.36803
  30
0
  11
9.37089
  21
3.38863
  31
0
  0
LINE
  8
0
  10
9.37089
  20
3.38863
  30
0
  11
9.36093
  21
3.40816
  31
0
  0
LINE
  8
0
  10
9.36093
  20
3.40816
  30
0
  11
9.35499
  21
3.41746
  31
0
  0
LINE
  8
0
  10
9.35499
  20
3.41746
  30
0
  11
9.34827
  21
3.42637
  31
0
  0
LINE
  8
0
  10
9.34827
  20
3.42637
  30
0
  11
9.34058
  21
3.43482
  31
0
  0
LINE
  8
0
  10
9.34058
  20
3.43482
  30
0
  11
9.33158
  21
3.44266
  31
0
  0
LINE
  8
0
  10
9.33158
  20
3.44266
  30
0
  11
9.3264
  21
3.44628
  31
0
  0
LINE
  8
0
  10
9.3264
  20
3.44628
  30
0
  11
9.32056
  21
3.44961
  31
0
  0
LINE
  8
0
  10
9.32056
  20
3.44961
  30
0
  11
9.31374
  21
3.45252
  31
0
  0
LINE
  8
0
  10
9.31374
  20
3.45252
  30
0
  11
9.30511
  21
3.45468
  31
0
  0
LINE
  8
0
  10
9.30511
  20
3.45468
  30
0
  11
9.28611
  21
3.45265
  31
0
  0
LINE
  8
0
  10
9.28611
  20
3.45265
  30
0
  11
9.24722
  21
3.43853
  31
0
  0
LINE
  8
0
  10
9.24722
  20
3.43853
  30
0
  11
9.20746
  21
3.42709
  31
0
  0
LINE
  8
0
  10
9.20746
  20
3.42709
  30
0
  11
9.1909
  21
3.41757
  31
0
  0
LINE
  8
0
  10
9.1909
  20
3.41757
  30
0
  11
9.18518
  21
3.41075
  31
0
  0
LINE
  8
0
  10
9.18518
  20
3.41075
  30
0
  11
9.18138
  21
3.40438
  31
0
  0
LINE
  8
0
  10
9.18138
  20
3.40438
  30
0
  11
9.17861
  21
3.39826
  31
0
  0
LINE
  8
0
  10
9.17861
  20
3.39826
  30
0
  11
9.17655
  21
3.39229
  31
0
  0
LINE
  8
0
  10
9.17655
  20
3.39229
  30
0
  11
9.17388
  21
3.38065
  31
0
  0
LINE
  8
0
  10
9.17388
  20
3.38065
  30
0
  11
9.17262
  21
3.3693
  31
0
  0
LINE
  8
0
  10
9.17262
  20
3.3693
  30
0
  11
9.17242
  21
3.35814
  31
0
  0
LINE
  8
0
  10
9.17242
  20
3.35814
  30
0
  11
9.17308
  21
3.34713
  31
0
  0
LINE
  8
0
  10
9.17308
  20
3.34713
  30
0
  11
9.17651
  21
3.32547
  31
0
  0
LINE
  8
0
  10
9.17651
  20
3.32547
  30
0
  11
9.18229
  21
3.30421
  31
0
  0
LINE
  8
0
  10
9.18229
  20
3.30421
  30
0
  11
9.18427
  21
3.28231
  31
0
  0
LINE
  8
0
  10
9.18427
  20
3.28231
  30
0
  11
9.1816
  21
3.25964
  31
0
  0
LINE
  8
0
  10
9.1816
  20
3.25964
  30
0
  11
9.17663
  21
3.23668
  31
0
  0
LINE
  8
0
  10
9.17663
  20
3.23668
  30
0
  11
9.1697
  21
3.21354
  31
0
  0
LINE
  8
0
  10
9.1697
  20
3.21354
  30
0
  11
9.16097
  21
3.1903
  31
0
  0
LINE
  8
0
  10
9.16097
  20
3.1903
  30
0
  11
9.15055
  21
3.16704
  31
0
  0
LINE
  8
0
  10
9.15055
  20
3.16704
  30
0
  11
9.13851
  21
3.14382
  31
0
  0
LINE
  8
0
  10
9.13851
  20
3.14382
  30
0
  11
9.12489
  21
3.12072
  31
0
  0
LINE
  8
0
  10
9.12489
  20
3.12072
  30
0
  11
9.10974
  21
3.09779
  31
0
  0
LINE
  8
0
  10
9.10974
  20
3.09779
  30
0
  11
9.09739
  21
3.08074
  31
0
  0
LINE
  8
0
  10
9.09739
  20
3.08074
  30
0
  11
9.02281
  21
3.08074
  31
0
  0
LINE
  8
0
  10
9.02281
  20
3.08074
  30
0
  11
9.01045
  21
3.09779
  31
0
  0
LINE
  8
0
  10
9.01045
  20
3.09779
  30
0
  11
8.9953
  21
3.12072
  31
0
  0
LINE
  8
0
  10
8.9953
  20
3.12072
  30
0
  11
8.98168
  21
3.14382
  31
0
  0
LINE
  8
0
  10
8.98168
  20
3.14382
  30
0
  11
8.96964
  21
3.16704
  31
0
  0
LINE
  8
0
  10
8.96964
  20
3.16704
  30
0
  11
8.95922
  21
3.1903
  31
0
  0
LINE
  8
0
  10
8.95922
  20
3.1903
  30
0
  11
8.9505
  21
3.21354
  31
0
  0
LINE
  8
0
  10
8.9505
  20
3.21354
  30
0
  11
8.94357
  21
3.23668
  31
0
  0
LINE
  8
0
  10
8.94357
  20
3.23668
  30
0
  11
8.9386
  21
3.25964
  31
0
  0
LINE
  8
0
  10
8.9386
  20
3.25964
  30
0
  11
8.93592
  21
3.28231
  31
0
  0
LINE
  8
0
  10
8.93592
  20
3.28231
  30
0
  11
8.9379
  21
3.30421
  31
0
  0
LINE
  8
0
  10
8.9379
  20
3.30421
  30
0
  11
8.94368
  21
3.32547
  31
0
  0
LINE
  8
0
  10
8.94368
  20
3.32547
  30
0
  11
8.94711
  21
3.34713
  31
0
  0
LINE
  8
0
  10
8.94711
  20
3.34713
  30
0
  11
8.94777
  21
3.35814
  31
0
  0
LINE
  8
0
  10
8.94777
  20
3.35814
  30
0
  11
8.94757
  21
3.3693
  31
0
  0
LINE
  8
0
  10
8.94757
  20
3.3693
  30
0
  11
8.94631
  21
3.38065
  31
0
  0
LINE
  8
0
  10
8.94631
  20
3.38065
  30
0
  11
8.94365
  21
3.39229
  31
0
  0
LINE
  8
0
  10
8.94365
  20
3.39229
  30
0
  11
8.94158
  21
3.39826
  31
0
  0
LINE
  8
0
  10
8.94158
  20
3.39826
  30
0
  11
8.93882
  21
3.40438
  31
0
  0
LINE
  8
0
  10
8.93882
  20
3.40438
  30
0
  11
8.93501
  21
3.41075
  31
0
  0
LINE
  8
0
  10
8.93501
  20
3.41075
  30
0
  11
8.9293
  21
3.41757
  31
0
  0
LINE
  8
0
  10
8.9293
  20
3.41757
  30
0
  11
8.91273
  21
3.42709
  31
0
  0
LINE
  8
0
  10
8.91273
  20
3.42709
  30
0
  11
8.87297
  21
3.43853
  31
0
  0
LINE
  8
0
  10
8.87297
  20
3.43853
  30
0
  11
8.83408
  21
3.45265
  31
0
  0
LINE
  8
0
  10
8.83408
  20
3.45265
  30
0
  11
8.81508
  21
3.45468
  31
0
  0
LINE
  8
0
  10
8.81508
  20
3.45468
  30
0
  11
8.80645
  21
3.45252
  31
0
  0
LINE
  8
0
  10
8.80645
  20
3.45252
  30
0
  11
8.79963
  21
3.44961
  31
0
  0
LINE
  8
0
  10
8.79963
  20
3.44961
  30
0
  11
8.79379
  21
3.44628
  31
0
  0
LINE
  8
0
  10
8.79379
  20
3.44628
  30
0
  11
8.78861
  21
3.44266
  31
0
  0
LINE
  8
0
  10
8.78861
  20
3.44266
  30
0
  11
8.77962
  21
3.43482
  31
0
  0
LINE
  8
0
  10
8.77962
  20
3.43482
  30
0
  11
8.77192
  21
3.42637
  31
0
  0
LINE
  8
0
  10
8.77192
  20
3.42637
  30
0
  11
8.7652
  21
3.41746
  31
0
  0
LINE
  8
0
  10
8.7652
  20
3.41746
  30
0
  11
8.75926
  21
3.40816
  31
0
  0
LINE
  8
0
  10
8.75926
  20
3.40816
  30
0
  11
8.74931
  21
3.38863
  31
0
  0
LINE
  8
0
  10
8.74931
  20
3.38863
  30
0
  11
8.74149
  21
3.36803
  31
0
  0
LINE
  8
0
  10
8.74149
  20
3.36803
  30
0
  11
8.73022
  21
3.34915
  31
0
  0
LINE
  8
0
  10
8.73022
  20
3.34915
  30
0
  11
8.71473
  21
3.33238
  31
0
  0
LINE
  8
0
  10
8.71473
  20
3.33238
  30
0
  11
8.69721
  21
3.31673
  31
0
  0
LINE
  8
0
  10
8.69721
  20
3.31673
  30
0
  11
8.678
  21
3.30208
  31
0
  0
LINE
  8
0
  10
8.678
  20
3.30208
  30
0
  11
8.65729
  21
3.2884
  31
0
  0
LINE
  8
0
  10
8.65729
  20
3.2884
  30
0
  11
8.63518
  21
3.27571
  31
0
  0
LINE
  8
0
  10
8.63518
  20
3.27571
  30
0
  11
8.6118
  21
3.264
  31
0
  0
LINE
  8
0
  10
8.6118
  20
3.264
  30
0
  11
8.5872
  21
3.25332
  31
0
  0
LINE
  8
0
  10
8.5872
  20
3.25332
  30
0
  11
8.56146
  21
3.24367
  31
0
  0
LINE
  8
0
  10
8.56146
  20
3.24367
  30
0
  11
8.54145
  21
3.23715
  31
0
  0
LINE
  8
0
  10
8.54145
  20
3.23715
  30
0
  11
8.48111
  21
3.28099
  31
0
  0
LINE
  8
0
  10
8.48111
  20
3.28099
  30
0
  11
8.48114
  21
3.30203
  31
0
  0
LINE
  8
0
  10
8.48114
  20
3.30203
  30
0
  11
8.48235
  21
3.32949
  31
0
  0
LINE
  8
0
  10
8.48235
  20
3.32949
  30
0
  11
8.48492
  21
3.35619
  31
0
  0
LINE
  8
0
  10
8.48492
  20
3.35619
  30
0
  11
8.48882
  21
3.38205
  31
0
  0
LINE
  8
0
  10
8.48882
  20
3.38205
  30
0
  11
8.49407
  21
3.40699
  31
0
  0
LINE
  8
0
  10
8.49407
  20
3.40699
  30
0
  11
8.50067
  21
3.43092
  31
0
  0
LINE
  8
0
  10
8.50067
  20
3.43092
  30
0
  11
8.50866
  21
3.45372
  31
0
  0
LINE
  8
0
  10
8.50866
  20
3.45372
  30
0
  11
8.51814
  21
3.47521
  31
0
  0
LINE
  8
0
  10
8.51814
  20
3.47521
  30
0
  11
8.5293
  21
3.49512
  31
0
  0
LINE
  8
0
  10
8.5293
  20
3.49512
  30
0
  11
8.54378
  21
3.51168
  31
0
  0
LINE
  8
0
  10
8.54378
  20
3.51168
  30
0
  11
8.56095
  21
3.52548
  31
0
  0
LINE
  8
0
  10
8.56095
  20
3.52548
  30
0
  11
8.57645
  21
3.54099
  31
0
  0
LINE
  8
0
  10
8.57645
  20
3.54099
  30
0
  11
8.58346
  21
3.5495
  31
0
  0
LINE
  8
0
  10
8.58346
  20
3.5495
  30
0
  11
8.58985
  21
3.55865
  31
0
  0
LINE
  8
0
  10
8.58985
  20
3.55865
  30
0
  11
8.59551
  21
3.56858
  31
0
  0
LINE
  8
0
  10
8.59551
  20
3.56858
  30
0
  11
8.60019
  21
3.57956
  31
0
  0
LINE
  8
0
  10
8.60019
  20
3.57956
  30
0
  11
8.60203
  21
3.5856
  31
0
  0
LINE
  8
0
  10
8.60203
  20
3.5856
  30
0
  11
8.60339
  21
3.59218
  31
0
  0
LINE
  8
0
  10
8.60339
  20
3.59218
  30
0
  11
8.60406
  21
3.59957
  31
0
  0
LINE
  8
0
  10
8.60406
  20
3.59957
  30
0
  11
8.60344
  21
3.60845
  31
0
  0
LINE
  8
0
  10
8.60344
  20
3.60845
  30
0
  11
8.59564
  21
3.62589
  31
0
  0
LINE
  8
0
  10
8.59564
  20
3.62589
  30
0
  11
8.57019
  21
3.65851
  31
0
  0
LINE
  8
0
  10
8.57019
  20
3.65851
  30
0
  11
8.54703
  21
3.69279
  31
0
  0
LINE
  8
0
  10
8.54703
  20
3.69279
  30
0
  11
8.53286
  21
3.7056
  31
0
  0
LINE
  8
0
  10
8.53286
  20
3.7056
  30
0
  11
8.5246
  21
3.70893
  31
0
  0
LINE
  8
0
  10
8.5246
  20
3.70893
  30
0
  11
8.51737
  21
3.71058
  31
0
  0
LINE
  8
0
  10
8.51737
  20
3.71058
  30
0
  11
8.51069
  21
3.71132
  31
0
  0
LINE
  8
0
  10
8.51069
  20
3.71132
  30
0
  11
8.50437
  21
3.71144
  31
0
  0
LINE
  8
0
  10
8.50437
  20
3.71144
  30
0
  11
8.49249
  21
3.71038
  31
0
  0
LINE
  8
0
  10
8.49249
  20
3.71038
  30
0
  11
8.4813
  21
3.70807
  31
0
  0
LINE
  8
0
  10
8.4813
  20
3.70807
  30
0
  11
8.47062
  21
3.70481
  31
0
  0
LINE
  8
0
  10
8.47062
  20
3.70481
  30
0
  11
8.46036
  21
3.70078
  31
0
  0
LINE
  8
0
  10
8.46036
  20
3.70078
  30
0
  11
8.44082
  21
3.69083
  31
0
  0
LINE
  8
0
  10
8.44082
  20
3.69083
  30
0
  11
8.42239
  21
3.67876
  31
0
  0
LINE
  8
0
  10
8.42239
  20
3.67876
  30
0
  11
8.40217
  21
3.6701
  31
0
  0
LINE
  8
0
  10
8.40217
  20
3.6701
  30
0
  11
8.37978
  21
3.66565
  31
0
  0
LINE
  8
0
  10
8.37978
  20
3.66565
  30
0
  11
8.35641
  21
3.66328
  31
0
  0
LINE
  8
0
  10
8.35641
  20
3.66328
  30
0
  11
8.33226
  21
3.66272
  31
0
  0
LINE
  8
0
  10
8.33226
  20
3.66272
  30
0
  11
8.30746
  21
3.66383
  31
0
  0
LINE
  8
0
  10
8.30746
  20
3.66383
  30
0
  11
8.28212
  21
3.66655
  31
0
  0
LINE
  8
0
  10
8.28212
  20
3.66655
  30
0
  11
8.25632
  21
3.67083
  31
0
  0
LINE
  8
0
  10
8.25632
  20
3.67083
  30
0
  11
8.23013
  21
3.67664
  31
0
  0
LINE
  8
0
  10
8.23013
  20
3.67664
  30
0
  11
8.20365
  21
3.68397
  31
0
  0
LINE
  8
0
  10
8.20365
  20
3.68397
  30
0
  11
8.18362
  21
3.69045
  31
0
  0
LINE
  8
0
  10
8.18362
  20
3.69045
  30
0
  11
8.16057
  21
3.76138
  31
0
  0
LINE
  8
0
  10
8.16057
  20
3.76138
  30
0
  11
8.17296
  21
3.7784
  31
0
  0
LINE
  8
0
  10
8.17296
  20
3.7784
  30
0
  11
8.19009
  21
3.79989
  31
0
  0
LINE
  8
0
  10
8.19009
  20
3.79989
  30
0
  11
8.20785
  21
3.81998
  31
0
  0
LINE
  8
0
  10
8.20785
  20
3.81998
  30
0
  11
8.22621
  21
3.83861
  31
0
  0
LINE
  8
0
  10
8.22621
  20
3.83861
  30
0
  11
8.24512
  21
3.85571
  31
0
  0
LINE
  8
0
  10
8.24512
  20
3.85571
  30
0
  11
8.26452
  21
3.87119
  31
0
  0
LINE
  8
0
  10
8.26452
  20
3.87119
  30
0
  11
8.28439
  21
3.88493
  31
0
  0
LINE
  8
0
  10
8.28439
  20
3.88493
  30
0
  11
8.30469
  21
3.89675
  31
0
  0
LINE
  8
0
  10
8.30469
  20
3.89675
  30
0
  11
8.32542
  21
3.9063
  31
0
  0
LINE
  8
0
  10
8.32542
  20
3.9063
  30
0
  11
8.34687
  21
3.91118
  31
0
  0
LINE
  8
0
  10
8.34687
  20
3.91118
  30
0
  11
8.36887
  21
3.91226
  31
0
  0
LINE
  8
0
  10
8.36887
  20
3.91226
  30
0
  11
8.39053
  21
3.91569
  31
0
  0
LINE
  8
0
  10
8.39053
  20
3.91569
  30
0
  11
8.4012
  21
3.91846
  31
0
  0
LINE
  8
0
  10
8.4012
  20
3.91846
  30
0
  11
8.41175
  21
3.9221
  31
0
  0
LINE
  8
0
  10
8.41175
  20
3.9221
  30
0
  11
8.42216
  21
3.92681
  31
0
  0
LINE
  8
0
  10
8.42216
  20
3.92681
  30
0
  11
8.4324
  21
3.93294
  31
0
  0
LINE
  8
0
  10
8.4324
  20
3.93294
  30
0
  11
8.43745
  21
3.93675
  31
0
  0
LINE
  8
0
  10
8.43745
  20
3.93675
  30
0
  11
8.44242
  21
3.94127
  31
0
  0
LINE
  8
0
  10
8.44242
  20
3.94127
  30
0
  11
8.4473
  21
3.94686
  31
0
  0
LINE
  8
0
  10
8.4473
  20
3.94686
  30
0
  11
8.45202
  21
3.9544
  31
0
  0
LINE
  8
0
  10
8.45202
  20
3.9544
  30
0
  11
8.45596
  21
3.97309
  31
0
  0
LINE
  8
0
  10
8.45596
  20
3.97309
  30
0
  11
8.45454
  21
4.01445
  31
0
  0
LINE
  8
0
  10
8.45454
  20
4.01445
  30
0
  11
8.45596
  21
4.0558
  31
0
  0
LINE
  8
0
  10
9.3101
  20
4.01445
  30
0
  11
9.3101
  21
4.01445
  31
0
  0
LINE
  8
0
  10
9.3101
  20
4.01445
  30
0
  11
9.30158
  21
4.07915
  31
0
  0
LINE
  8
0
  10
9.30158
  20
4.07915
  30
0
  11
9.2766
  21
4.13945
  31
0
  0
LINE
  8
0
  10
9.2766
  20
4.13945
  30
0
  11
9.23687
  21
4.19122
  31
0
  0
LINE
  8
0
  10
9.23687
  20
4.19122
  30
0
  11
9.1851
  21
4.23095
  31
0
  0
LINE
  8
0
  10
9.1851
  20
4.23095
  30
0
  11
9.1248
  21
4.25593
  31
0
  0
LINE
  8
0
  10
9.1248
  20
4.25593
  30
0
  11
9.0601
  21
4.26445
  31
0
  0
LINE
  8
0
  10
9.0601
  20
4.26445
  30
0
  11
8.99539
  21
4.25593
  31
0
  0
LINE
  8
0
  10
8.99539
  20
4.25593
  30
0
  11
8.9351
  21
4.23095
  31
0
  0
LINE
  8
0
  10
8.9351
  20
4.23095
  30
0
  11
8.88332
  21
4.19122
  31
0
  0
LINE
  8
0
  10
8.88332
  20
4.19122
  30
0
  11
8.84359
  21
4.13945
  31
0
  0
LINE
  8
0
  10
8.84359
  20
4.13945
  30
0
  11
8.81862
  21
4.07915
  31
0
  0
LINE
  8
0
  10
8.81862
  20
4.07915
  30
0
  11
8.8101
  21
4.01445
  31
0
  0
LINE
  8
0
  10
8.8101
  20
4.01445
  30
0
  11
8.81862
  21
3.94974
  31
0
  0
LINE
  8
0
  10
8.81862
  20
3.94974
  30
0
  11
8.84359
  21
3.88945
  31
0
  0
LINE
  8
0
  10
8.84359
  20
3.88945
  30
0
  11
8.88332
  21
3.83767
  31
0
  0
LINE
  8
0
  10
8.88332
  20
3.83767
  30
0
  11
8.9351
  21
3.79794
  31
0
  0
LINE
  8
0
  10
8.9351
  20
3.79794
  30
0
  11
8.99539
  21
3.77296
  31
0
  0
LINE
  8
0
  10
8.99539
  20
3.77296
  30
0
  11
9.0601
  21
3.76445
  31
0
  0
LINE
  8
0
  10
9.0601
  20
3.76445
  30
0
  11
9.1248
  21
3.77296
  31
0
  0
LINE
  8
0
  10
9.1248
  20
3.77296
  30
0
  11
9.1851
  21
3.79794
  31
0
  0
LINE
  8
0
  10
9.1851
  20
3.79794
  30
0
  11
9.23687
  21
3.83767
  31
0
  0
LINE
  8
0
  10
9.23687
  20
3.83767
  30
0
  11
9.2766
  21
3.88945
  31
0
  0
LINE
  8
0
  10
9.2766
  20
3.88945
  30
0
  11
9.30158
  21
3.94974
  31
0
  0
LINE
  8
0
  10
9.30158
  20
3.94974
  30
0
  11
9.3101
  21
4.01445
  31
0
  0
LINE
  8
0
  10
9.3101
  20
4.01445
  30
0
  11
9.3101
  21
4.01445
  31
0
  0
LINE
  8
0
  10
8.74862
  20
4.01445
  30
0
  11
9.37158
  21
4.01445
  31
0
  0
LINE
  8
0
  10
9.0601
  20
3.70296
  30
0
  11
9.0601
  21
4.32593
  31
0
  0
ENDSEC
  0
EOF
